<svg width="31" height="21" viewBox="0 0 31 21" fill="none" xmlns="http://www.w3.org/2000/svg">
<path d="M30.9998 5.3623H0V14.8949H30.9998V5.3623Z" fill="#F9F9F9"/>
<path d="M1.2919 0.000445424H29.7084C30.0405 -0.00829903 30.3627 0.112005 30.6046 0.335125C30.8466 0.558245 30.9887 0.866082 31.0001 1.19151V5.36227H0.000244141V1.19151C0.01158 0.866082 0.153728 0.558245 0.395692 0.335125C0.637656 0.112005 0.959809 -0.00829903 1.2919 0.000445424Z" fill="#09599E"/>
<path d="M0 14.8955H30.9998V19.0663C30.9885 19.3917 30.8463 19.6995 30.6044 19.9226C30.3624 20.1458 30.0403 20.2661 29.7082 20.2573H1.29166C0.959565 20.2661 0.637412 20.1458 0.395448 19.9226C0.153484 19.6995 0.0113359 19.3917 0 19.0663L0 14.8955Z" fill="#E59703"/>
<path opacity="0.05" d="M1.2919 20.2273C0.959636 20.236 0.637331 20.1156 0.395338 19.8923C0.153345 19.6689 0.0113132 19.3608 0.000244141 19.0352L0.000244141 1.19151C0.01158 0.866083 0.153728 0.558245 0.395692 0.335125C0.637656 0.112005 0.959809 -0.00829903 1.2919 0.000445424H29.7084C30.0405 -0.00829903 30.3627 0.112005 30.6046 0.335125C30.8466 0.558245 30.9887 0.866083 31.0001 1.19151" fill="white"/>
<path d="M11.9805 12.6323L12.9167 7.59766H14.4026L13.4664 12.6323H11.9805Z" fill="#00589F"/>
<path d="M18.8596 7.74575C18.4318 7.60912 17.9848 7.53873 17.5348 7.53711C16.05 7.53711 15.0166 8.22177 15.0166 9.20521C15.0166 9.92025 15.7596 10.3375 16.3083 10.5755C16.8901 10.8136 17.0833 10.9928 17.0833 11.2015C17.0833 11.5296 16.6317 11.7079 16.1791 11.7079C15.7021 11.7146 15.229 11.6232 14.7903 11.4395L14.5971 11.32L14.4028 12.4523C14.931 12.6379 15.4889 12.7288 16.05 12.7207C17.5999 12.7207 18.6333 12.036 18.6333 10.9928C18.6333 10.4267 18.2458 9.98001 17.3736 9.62249C16.857 9.38448 16.5346 9.23559 16.5346 8.99657C16.5346 8.78793 16.7929 8.54992 17.3747 8.54992C17.7486 8.54623 18.1203 8.60655 18.4731 8.72818L18.6023 8.78793L18.8596 7.74575Z" fill="#00589F"/>
<path d="M22.508 12.6612C22.508 12.6612 22.3458 12.095 22.3137 11.9167H20.4093C20.3442 12.0363 20.0869 12.6612 20.0869 12.6612H18.5359L20.7317 8.04375C20.7986 7.9023 20.9099 7.78552 21.0493 7.71045C21.1888 7.63539 21.349 7.60596 21.5067 7.62647H22.6692L23.8968 12.6612H22.508Z" fill="#00589F"/>
<path d="M10.7223 7.62703L9.26838 11.0534L9.10718 10.3677C8.71091 9.4352 7.97398 8.68112 7.04053 8.25294L8.39729 12.6323H9.97931L12.3363 7.59766H10.7223" fill="#00589F"/>
<path d="M7.91211 7.59766H5.52202L5.48999 7.71717C6.26245 7.83958 6.99381 8.14139 7.62299 8.59738C8.25216 9.05337 8.76087 9.65031 9.10664 10.3383L8.58998 8.04431C8.52591 7.71717 8.23451 7.62703 7.91211 7.59766Z" fill="#F9A51A"/>
</svg>
