<svg width="149" height="149" viewBox="0 0 149 149" fill="none" xmlns="http://www.w3.org/2000/svg">
<g opacity="0.3">
<path fill-rule="evenodd" clip-rule="evenodd" d="M108.804 91.9559C106.637 92.8033 104.13 94.075 103.898 96.39C106.842 94.1254 110.478 92.774 114.186 92.5663C111.624 95.7938 108.389 98.4847 104.749 100.416C101.481 102.151 97.3422 104.001 97.0618 107.691C100.572 103.51 105.97 100.979 111.429 100.954C107.936 106.069 102.336 109.697 96.2406 110.794C96.4498 112.366 103.208 115.733 105.177 116.381C106.579 122.404 107.186 130.214 108.588 136.237C108.933 137.72 109.237 139.423 108.329 140.644C107.429 141.856 105.729 142.064 104.223 142.171C98.288 142.593 90.1678 143.015 84.2329 143.437C83.5223 140.218 82.8117 136.999 82.1011 133.779C72.0902 134.709 29.1728 144.544 21.2969 139.384C-9.1069 119.467 29.6632 112.682 30.4964 88.4333C30.6874 82.8734 13.9704 73.1541 14.2358 67.4727C14.4091 63.7628 14.9834 60.1389 16.8189 56.9533C18.6544 53.7678 21.5629 51.314 24.7242 49.4369C20.3719 48.3182 17.0753 43.9798 17.1635 39.4869C17.2517 34.9941 20.716 30.7884 25.1088 29.8414C23.0377 27.3733 19.7765 26.242 17.3944 24.0726C14.6194 21.5454 13.225 17.4687 14.2358 13.854C15.2466 10.2394 18.8056 7.39546 22.5555 7.55571C25.6357 7.68734 28.3463 9.63551 30.4964 11.8451C33.8309 15.2719 36.3108 19.524 37.6516 24.1136C38.5453 27.1727 41.8205 28.729 44.5865 30.3121C47.3524 31.8952 50.2248 34.6529 49.4455 37.7431C48.4153 33.5145 63.7281 38.5513 77.6157 39.7843C79.4596 39.948 81.444 40.1863 82.8071 41.4388C84.7658 43.2388 87.7066 43.8953 90.2449 43.0992C91.0524 45.1012 91.6466 47.3499 90.9601 49.3966C90.2736 51.4432 87.842 53.0054 85.8982 52.0665C86.4056 54.6769 86.913 57.2872 87.4204 59.8976C92.3902 59.9573 97.3596 60.0588 102.328 60.202C104.961 60.2779 107.713 60.3977 110.002 61.7023C112.29 63.0068 115.353 61.1587 117.615 56.4104C116.151 64.1582 117.885 67.2542 120.875 68.0959C120.882 68.0373 121.114 68.0652 121.121 68.0067C122.011 60.3501 127.206 53.5519 134.437 50.8625C133.798 52.3359 129.223 55.2462 126.046 58.9626C122.943 62.5928 121.457 67.4528 121.304 68.3255C126.231 67.0336 127.873 70.7045 136.233 67.4727C132.413 72.0652 125.052 73.196 120.03 69.9618C117.66 72.6043 117.793 75.5303 116.114 78.6575C118.966 75.1139 122.752 78.2555 119.748 80.5522C121.342 80.7054 123.066 80.9154 124.222 82.0234C125.379 83.1313 125.407 85.4634 123.916 86.0466C118.879 88.0164 113.841 89.9862 108.804 91.9559Z" fill="#64FCD9"/>
<path fill-rule="evenodd" clip-rule="evenodd" d="M100.627 74.4938C100.809 74.1472 101.008 73.7837 101.343 73.5816C101.679 73.3796 102.193 73.4214 102.374 73.7689C102.566 74.1387 102.28 74.5846 101.944 74.8314C101.608 75.0783 101.195 75.2523 100.977 75.6075C102.157 76.3847 103.336 77.1619 104.516 77.9392C105.44 78.5479 106.485 79.4174 106.296 80.5074C106.185 81.1466 105.643 81.6434 105.04 81.8818C104.437 82.1203 103.773 82.1452 103.125 82.1638C98.7671 82.2893 94.405 82.2672 90.0487 82.0976C89.7464 82.0858 89.4093 82.0576 89.208 81.8319C89.052 81.657 89.0198 81.4076 88.9946 81.1746C88.7438 78.8559 88.4931 76.5372 88.2424 74.2185C88.2331 74.1329 88.2243 74.0435 88.2549 73.963C88.3839 73.6244 88.8904 73.833 89.1735 74.059C91.1789 75.6596 94.3849 75.4716 96.1894 73.6475C96.6254 73.2067 97.3677 73.2637 97.9278 73.5294C98.488 73.7952 98.9566 74.2275 99.5186 74.4894C99.4586 74.1645 99.7451 73.8217 100.076 73.823C100.406 73.8243 100.69 74.1694 100.627 74.4938Z" fill="white"/>
<path fill-rule="evenodd" clip-rule="evenodd" d="M30.4508 48.9028C30.4508 48.9028 29.964 43.072 31.1893 41.1976C32.4146 39.3232 37.0819 38.7589 37.0819 38.7589C37.0819 38.7589 49.8743 38.5917 56.786 38.8559C63.6977 39.1201 77.5208 40.3047 77.5208 40.3047C77.5208 40.3047 79.317 40.6965 80.1244 41.1976C80.9318 41.6987 82.058 43.1207 82.058 43.1207C82.058 43.1207 84.5087 43.478 85.7279 43.5266C86.947 43.5752 88.064 43.3601 88.064 43.3601C88.064 43.3601 89.6177 47.8914 88.5193 50.0511C87.4208 52.2109 83.7329 51.876 83.7329 51.876L85.0384 59.9588C85.0384 59.9588 83.4863 60.6924 82.6381 61.6121C81.7898 62.5318 81.4491 63.8505 81.4491 63.8505L83.9703 88.4335C83.9703 88.4335 84.7119 89.7114 86.305 90.1967C87.8981 90.6819 91.4875 90.7232 91.4875 90.7232C91.4875 90.7232 91.3595 93.2021 91.4875 94.2688C91.6154 95.3355 91.7295 95.92 91.7295 95.92L94.4318 115.266C94.4318 115.266 91.8054 115.743 89.2064 116.374C86.6074 117.005 81.4491 118.415 81.4491 118.415C81.4491 118.415 79.6308 119.244 79.3953 120.583C79.1597 121.921 80.1244 125.944 80.1244 125.944L51.1671 128.151C51.1671 128.151 48.3492 128.204 47.38 127.593C46.4107 126.983 46.1451 124.987 46.1451 124.987L42.2283 89.7592C42.2283 89.7592 35.9694 89.9123 34.1414 88.8686C32.3134 87.8249 32.0924 83.9719 32.0924 83.9719C32.0924 83.9719 32.3961 81.788 32.0924 80.2724C31.991 79.7667 30.6673 74.2848 30.2226 69.0687C29.9709 66.1172 33.444 63.8505 33.444 63.8505L30.4508 48.9028Z" fill="white"/>
<path fill-rule="evenodd" clip-rule="evenodd" d="M50.8834 40.7931C50.6582 41.1105 50.8467 41.5841 51.1721 41.7976C51.4975 42.0111 51.9075 42.0352 52.2963 42.0527C56.5206 42.2428 60.745 42.4329 64.9694 42.623C65.381 42.6415 65.8369 42.6456 66.1487 42.3763C66.4606 42.107 66.4194 41.4648 66.0125 41.4001C61.315 40.6533 56.5483 40.3431 51.7936 40.4749C51.4598 40.4842 51.0767 40.5208 50.8834 40.7931" fill="#E7EAEE"/>
<path fill-rule="evenodd" clip-rule="evenodd" d="M69.6782 71.0711L68.5803 65.9194C68.5803 65.9194 68.5291 66.9818 67.9478 67.4138C67.3666 67.8459 66.2175 67.676 66.2175 67.676C66.2175 67.676 66.0355 64.0786 66.8444 62.9832C67.6533 61.8878 68.4502 62.9223 69.9866 62.5719C71.5217 62.2218 71.2037 61.0687 72.9875 61.5822C74.7713 62.0957 76.0892 65.9133 76.0892 65.9133C76.0892 65.9133 74.6907 66.382 74.0956 66.2618C73.5005 66.1416 73.6456 65.4197 73.6456 65.4197C73.6456 65.4197 73.2238 65.2401 73.3313 66.5059C73.3835 67.1207 73.8489 68.0454 74.0956 69.255C74.1874 69.7055 74.0956 70.7177 74.0956 70.7177C74.0956 70.7177 72.5083 70.8796 71.1367 71.1732C69.7651 71.4668 69.6782 71.0711 69.6782 71.0711Z" fill="#E7EAEE"/>
<path fill-rule="evenodd" clip-rule="evenodd" d="M30.7053 58.2567C30.177 57.9723 29.7474 57.5383 29.3262 57.1109C28.24 56.0083 27.1401 54.8878 26.3864 53.5359C26.3147 53.4071 26.2441 53.2594 26.2855 53.1179C26.3269 52.9765 26.5428 52.8961 26.6236 53.0194C27.9337 55.0195 29.5881 56.7933 31.4921 58.2394C31.3209 58.4696 30.9579 58.3927 30.7053 58.2567Z" fill="#00160A"/>
<path fill-rule="evenodd" clip-rule="evenodd" d="M32.2869 32.943C32.599 32.6214 32.7654 32.1888 32.9092 31.7643C33.3573 30.4408 33.6627 29.0689 33.8183 27.6802C33.8464 27.4301 33.8923 27.1421 34.1093 27.0146C34.3534 28.2053 34.0511 29.4324 33.7505 30.6101C33.4862 31.6455 33.1936 32.7327 32.4441 33.4943C32.3683 33.5714 32.2715 33.6499 32.1648 33.6321C32.0211 33.608 31.9635 33.417 32.0148 33.2806C32.0661 33.1442 32.1854 33.0475 32.2869 32.943L32.2869 32.943Z" fill="#00160A"/>
<path fill-rule="evenodd" clip-rule="evenodd" d="M107.622 43.3286C107.77 43.2889 107.922 43.406 107.986 43.5455C108.051 43.6849 108.056 43.8434 108.085 43.9944C108.198 44.5846 108.73 45.0689 109.328 45.1257C109.402 45.2991 109.237 45.4726 109.107 45.609C108.81 45.9195 108.623 46.3326 108.585 46.7604C108.56 47.038 108.502 47.4244 108.223 47.4207C107.999 47.4178 107.901 47.1469 107.82 46.938C107.623 46.4275 107.178 46.0193 106.653 45.8664C106.543 45.8342 106.496 45.6933 106.527 45.5825C106.557 45.4717 106.641 45.3851 106.721 45.3029C107.066 44.9488 107.417 44.5296 107.413 44.0351C107.411 43.7677 107.364 43.3976 107.622 43.3286Z" fill="#FFB61D"/>
<path fill-rule="evenodd" clip-rule="evenodd" d="M118.084 89.7776C117.621 90.2538 117.457 90.9991 117.677 91.6259C117.433 91.7351 117.25 91.3986 117.129 91.1599C116.948 90.8016 116.605 90.5291 116.215 90.4332C116.78 90.077 117.132 89.4067 117.103 88.7396C117.33 88.5916 117.584 88.9 117.65 89.163C117.715 89.4261 117.813 89.7682 118.084 89.7776Z" fill="#E7EAEE"/>
<path fill-rule="evenodd" clip-rule="evenodd" d="M114.128 90.6705C114.397 91.097 114.779 91.4513 115.225 91.687C115.385 91.7716 115.24 92.0073 115.107 92.131C114.774 92.4424 114.563 92.8811 114.528 93.3357C114.237 93.0437 113.946 92.7518 113.654 92.4598C113.538 92.3433 113.415 92.1625 113.515 92.0319C113.821 91.6335 114.033 91.1635 114.128 90.6705Z" fill="#E7EAEE"/>
<path fill-rule="evenodd" clip-rule="evenodd" d="M94.6691 39.3244C94.9342 37.6361 95.575 35.9769 96.7008 34.6911C97.8267 33.4054 99.4701 32.5277 101.179 32.5291C102.888 32.5304 104.614 33.4983 105.324 35.0527C105.692 35.857 105.782 36.7624 105.757 37.6464C105.709 39.3274 105.258 40.9957 104.451 42.4712C103.723 43.8018 102.677 44.9986 101.319 45.6736C99.9613 46.3486 98.2688 46.4393 96.9487 45.6931C95.9034 45.1022 95.172 44.0417 94.8236 42.8926C94.4751 41.7436 94.4828 40.5106 94.6691 39.3244M105.114 38.0467C105.145 37 104.972 35.919 104.422 35.0281C104.087 34.4865 103.618 34.0284 103.069 33.7063C101.298 32.6676 98.8873 33.2256 97.4163 34.658C95.9452 36.0903 95.3075 38.2073 95.2418 40.2594C95.2068 41.3541 95.3245 42.4765 95.7899 43.4679C96.2553 44.4593 97.1069 45.3073 98.1676 45.5797C99.5556 45.9361 101.02 45.265 102.109 44.3328C103.925 42.7773 105.044 40.4367 105.114 38.0467Z" fill="#FFB61D"/>
<path fill-rule="evenodd" clip-rule="evenodd" d="M112.157 38.152C111.875 38.5215 111.579 39.0068 111.796 39.4183C111.874 39.5655 111.673 39.7368 111.513 39.6904C111.353 39.6439 111.262 39.4751 111.22 39.3142C111.177 39.1533 111.163 38.9807 111.078 38.8379C110.993 38.6951 110.799 38.5958 110.658 38.6838C110.457 38.66 110.436 38.3572 110.553 38.1919C110.67 38.0266 110.862 37.913 110.933 37.7238C110.99 37.5739 110.96 37.4058 110.987 37.2479C111.014 37.0899 111.148 36.9212 111.303 36.9616C111.298 37.2392 111.33 37.5273 111.471 37.7666C111.612 38.0059 111.881 38.185 112.157 38.152Z" fill="#FFB61D"/>
<path fill-rule="evenodd" clip-rule="evenodd" d="M86.8782 37.6051C87.0992 37.3482 87.3767 37.1283 87.7023 37.0348C88.028 36.9412 88.4058 36.9905 88.6601 37.2144C88.9368 37.4581 89.0237 37.8651 88.9647 38.2291C88.9058 38.593 88.7223 38.9237 88.5292 39.2378C88.2786 39.6453 88.0064 40.0395 87.7143 40.4183C87.623 40.5366 87.5229 40.6587 87.3831 40.7114C87.1984 40.781 86.9926 40.7132 86.8105 40.6371C86.1707 40.3697 85.5761 39.9945 85.0592 39.5322C84.586 39.1088 84.1494 38.4883 84.3412 37.8829C84.4634 37.4972 84.8365 37.2183 85.2366 37.1587C85.6368 37.0991 86.0515 37.2401 86.3697 37.49C86.522 37.6095 86.752 37.7518 86.8782 37.6051M84.8566 37.8292C84.5544 38.2449 84.8824 38.8272 85.2631 39.1724C85.7382 39.6031 86.3023 39.9212 86.8611 40.2357C86.9329 40.2761 87.0131 40.3179 87.0937 40.3005C87.1655 40.285 87.2187 40.2262 87.266 40.1701C87.6446 39.7216 87.9836 39.2398 88.2781 38.732C88.5046 38.3415 88.6708 37.7677 88.3059 37.5018C88.0172 37.2914 87.5964 37.4609 87.3516 37.7211C87.1068 37.9812 86.9529 38.3209 86.6854 38.5576C86.4764 38.2284 86.2544 37.8863 85.9157 37.6931C85.577 37.4999 85.0858 37.5138 84.8566 37.8292H84.8566Z" fill="#FFB61D"/>
<path fill-rule="evenodd" clip-rule="evenodd" d="M82.5499 26.2444C83.2427 25.7043 84.0129 25.2637 84.8297 24.9403C85.3303 24.7421 85.9017 24.5895 86.3966 24.8018C87.1895 25.142 87.344 26.2806 86.9268 27.0359C86.5096 27.7911 85.7183 28.249 84.965 28.6698C83.4878 29.4949 82.0105 30.32 80.5332 31.1451C80.8242 30.5645 80.4959 29.883 80.2271 29.2917C79.6218 27.9603 79.3049 26.4985 79.3047 25.0358C79.3046 24.5738 79.3392 24.0979 79.5419 23.6827C79.7445 23.2674 80.149 22.9231 80.6109 22.9122C81.3501 22.8948 81.8415 23.6646 82.0909 24.3606C82.3093 24.9702 82.4634 25.6027 82.5499 26.2444ZM85.6804 25.1859C84.4857 25.4287 83.3725 26.0572 82.5475 26.9549C82.4663 27.0433 82.3084 27.0043 82.2342 26.9099C82.16 26.8155 82.1458 26.6889 82.1317 26.5697C82.0386 25.78 81.8321 25.0038 81.5205 24.2723C81.3468 23.8645 81.0559 23.4141 80.6127 23.407C80.2842 23.4016 79.9984 23.6647 79.8772 23.9701C79.7561 24.2754 79.7663 24.6154 79.7896 24.9431C79.9191 26.7708 80.4 28.5729 81.1981 30.2222C82.505 29.4898 83.8118 28.7575 85.1186 28.0252C85.5264 27.7967 85.9414 27.5625 86.2584 27.2191C86.5754 26.8756 86.784 26.3984 86.6919 25.9402C86.5998 25.4819 86.1384 25.0929 85.6804 25.1859Z" fill="#FFB61D"/>
<path fill-rule="evenodd" clip-rule="evenodd" d="M73.4064 116.769C77.2206 116.335 81.0595 116.116 84.8984 116.114C85.6026 116.114 86.2153 115.567 86.5014 114.924C86.7876 114.28 86.8105 113.554 86.8108 112.85C86.8121 110.234 86.5661 107.624 86.3203 105.019C86.2206 103.963 86.1209 102.906 86.0212 101.85C85.9608 101.209 85.8966 100.554 85.6266 99.9691C85.1582 98.9547 84.1211 98.2951 83.0405 98.011C81.9599 97.7269 80.8242 97.7658 79.7076 97.8067C76.0005 97.9424 72.2933 98.0782 68.5862 98.2139C70.7232 97.4302 73.0506 97.3934 75.3266 97.3656C77.0715 97.3443 78.8164 97.323 80.5613 97.3017C82.3448 97.28 84.3827 97.3694 85.5205 98.7431C86.2554 99.6305 86.4177 100.846 86.5405 101.991C86.9274 105.599 87.2107 109.217 87.3902 112.841C87.4496 114.042 87.4016 115.453 86.4237 116.153C85.8769 116.544 85.1674 116.603 84.4966 116.648C80.4112 116.925 76.3258 117.202 72.2404 117.479C71.2812 117.543 70.2703 117.599 69.4074 117.175C69.1076 117.028 68.7996 116.695 68.9606 116.402C70.2887 117.125 71.9039 116.941 73.4064 116.769Z" fill="#00160A"/>
<path fill-rule="evenodd" clip-rule="evenodd" d="M57.2497 58.9014C57.3262 59.0157 57.3436 59.1583 57.3589 59.295C57.3947 59.6134 57.4305 59.9318 57.4662 60.2502C57.5086 60.628 57.5174 61.0849 57.2042 61.3004C57.0373 61.4153 56.822 61.4247 56.6194 61.4302C52.3578 61.5453 48.0962 61.6605 43.8345 61.7756C43.5604 61.783 43.2431 61.7712 43.075 61.5544C42.9695 61.4184 42.9533 61.2354 42.9434 61.0636C42.9124 60.5237 42.9037 59.9826 42.9175 59.442C42.9196 59.3597 42.9244 59.2712 42.9754 59.2066C43.0367 59.1292 43.1445 59.1103 43.2424 59.097C47.6457 58.5005 52.1084 58.343 56.5428 58.6276C56.8046 58.6444 57.1038 58.6834 57.2497 58.9014M57.0748 60.9726C56.642 60.7388 57.0781 60.0534 56.9207 59.5874C56.7855 59.187 56.2717 59.0923 55.8498 59.0682C51.8315 58.8394 47.7922 58.9822 43.8 59.494C43.653 59.5128 43.4899 59.5411 43.4006 59.6595C43.3124 59.7764 43.3284 59.9387 43.3484 60.0838C43.3795 60.3083 43.4106 60.5329 43.4417 60.7574C43.4662 60.9344 43.5036 61.1328 43.6522 61.2319C43.76 61.3038 43.8988 61.3031 44.0283 61.2998C48.3772 61.1907 52.726 61.0816 57.0748 60.9726Z" fill="#00160A"/>
<path fill-rule="evenodd" clip-rule="evenodd" d="M65.265 66.4462C65.2853 65.9732 65.3055 65.5002 65.3258 65.0272C65.3654 64.1049 65.4138 63.1481 65.8425 62.3305C66.2711 61.5129 67.1965 60.8775 68.0949 61.09C68.6569 61.2229 69.175 61.6646 69.7402 61.546C70.2324 61.4427 70.5343 60.9562 70.95 60.6733C71.9411 59.999 73.3225 60.6254 74.1422 61.5001C75.0255 62.4429 75.5997 63.6708 75.7569 64.9531C75.7703 65.0619 75.777 65.1842 75.7069 65.2686C75.649 65.3384 75.5539 65.3626 75.4654 65.3829C75.1242 65.461 74.783 65.5392 74.4418 65.6173C74.1513 65.6839 73.8499 65.7507 73.558 65.6903C73.2661 65.6299 72.9858 65.4048 72.9623 65.1076C72.8752 66.7681 74.1187 68.3543 73.7722 69.9806C73.6434 69.9102 73.5145 69.8398 73.3857 69.7694C73.6897 68.1385 72.2363 66.5598 72.5397 64.9288C72.5799 64.713 72.6665 64.4832 72.8595 64.3785C73.0524 64.2738 73.3576 64.3928 73.35 64.6122C73.3379 64.9637 73.7173 65.2264 74.069 65.2233C74.4207 65.2203 74.7406 65.0317 75.0411 64.8489C75.1481 64.7838 75.1188 64.6228 75.0742 64.5057C74.7417 63.6334 74.3045 62.8009 73.7751 62.032C73.4172 61.5123 72.986 60.9985 72.3913 60.7874C71.7966 60.5764 71.0112 60.7917 70.7923 61.3835C70.5361 62.0763 69.5679 62.123 68.8568 61.9232C68.1458 61.7235 67.3477 61.4116 66.7133 61.7898C66.1828 62.1061 66.0052 62.7799 65.9059 63.3894C65.7354 64.4352 65.6566 65.4959 65.6709 66.5553C65.6997 66.717 65.9058 66.7692 66.07 66.7649C66.935 66.7425 67.7381 66.0602 67.9001 65.2103C68.1332 65.4784 68.2164 65.8415 68.2918 66.1887C68.5528 67.3908 68.8139 68.5929 69.075 69.795C69.1553 70.1651 69.0615 70.7339 68.6889 70.6665C68.52 69.3555 68.2699 68.0548 67.9404 66.7746C67.3175 66.9163 66.6945 67.0579 66.0716 67.1995C65.8805 67.243 65.6666 67.2831 65.4993 67.181C65.2685 67.04 65.2534 66.7164 65.265 66.4462Z" fill="#00160A"/>
<path fill-rule="evenodd" clip-rule="evenodd" d="M83.4896 99.0954C83.8074 99.4399 83.3135 100.076 83.6047 100.443C83.7558 100.634 83.6481 100.936 83.4479 101.074C83.2478 101.212 82.9913 101.231 82.7486 101.245C78.5752 101.487 74.4018 101.73 70.2285 101.972C69.9448 101.989 69.6059 101.979 69.4508 101.741C69.383 101.637 69.3667 101.509 69.352 101.386C69.314 101.065 69.2759 100.744 69.2378 100.424C69.2258 100.323 69.2151 100.215 69.2624 100.125C69.3405 99.9776 69.5343 99.9455 69.7008 99.9308C74.0868 99.5436 78.4781 99.2164 82.8731 98.9491C83.0914 98.9358 83.3413 98.9346 83.4896 99.0954ZM83.0105 99.6371C82.9969 99.558 82.979 99.4714 82.9158 99.4219C82.8527 99.3726 82.7646 99.3761 82.6847 99.3819C78.7933 99.6656 74.9018 99.9493 71.0103 100.233C70.6958 100.256 70.3695 100.282 70.0948 100.437C69.8201 100.592 69.6129 100.915 69.6954 101.219C69.7209 101.314 69.7754 101.403 69.8589 101.454C69.9613 101.516 70.0893 101.511 70.2089 101.505C74.3174 101.282 78.4259 101.059 82.5344 100.836C83.0229 100.81 83.0931 100.119 83.0105 99.6371Z" fill="#00160A"/>
<path fill-rule="evenodd" clip-rule="evenodd" d="M86.782 95.3584C87.5207 97.3022 87.7563 99.3947 87.9858 101.461C88.5189 106.263 89.052 111.064 89.5851 115.866C89.1884 115.899 89.0057 115.389 88.9563 114.994C88.1486 108.534 87.8886 101.99 86.5227 95.6244C86.6091 95.5357 86.6956 95.4471 86.782 95.3584Z" fill="#00160A"/>
<path fill-rule="evenodd" clip-rule="evenodd" d="M62.9538 61.912C62.8389 61.8629 62.8412 61.6836 62.9294 61.595C63.0175 61.5064 63.1509 61.485 63.2749 61.4693C64.2029 61.3514 65.1386 61.294 66.074 61.2975C66.0243 61.6966 65.509 61.8132 65.1072 61.8318C64.4322 61.863 63.7571 61.8942 63.0821 61.9253C63.0388 61.9273 62.9937 61.9291 62.9538 61.912L62.9538 61.912Z" fill="#00160A"/>
<path fill-rule="evenodd" clip-rule="evenodd" d="M68.1898 110.741C68.1127 109.312 68.0356 107.883 67.9585 106.454C67.7511 102.607 67.5371 98.7211 66.4664 95.0208C66.3297 94.5484 66.1735 94.0688 65.8706 93.6813C65.1125 92.7113 63.709 92.5997 62.4779 92.5998C57.731 92.6 52.9842 93.0514 48.3223 93.946C47.8486 94.0369 47.3561 94.1412 46.9781 94.4408C46.3775 94.917 46.2192 95.754 46.1634 96.5184C46.0615 97.914 46.1624 99.3242 46.4617 100.691C46.2904 100.663 46.1191 100.634 45.9478 100.605C45.3196 99.2971 45.0334 97.8264 45.1252 96.378C45.165 95.749 45.2807 95.1085 45.6048 94.568C46.4108 93.2237 48.1852 92.9011 49.7438 92.7342C53.6982 92.3107 57.6674 92.0255 61.6418 91.8792C63.2415 91.8203 65.0491 91.8652 66.147 93.0301C66.6993 93.6161 66.9789 94.4036 67.1985 95.1783C67.9611 97.8697 68.1716 100.682 68.3782 103.471C68.58 106.197 68.7819 108.923 68.9837 111.648C69.0311 112.289 69.078 112.94 68.9484 113.569C68.526 115.619 66.3427 116.866 64.2643 117.114C62.1859 117.362 60.0934 116.887 58.0006 116.852C55.1861 116.805 52.3549 117.554 49.5791 117.086C48.7797 116.951 47.9295 116.668 47.49 115.987C47.1852 115.514 47.1302 114.928 47.0835 114.368C46.7543 110.415 46.4251 106.461 46.0959 102.508C46.0739 102.243 46.2707 101.849 46.4741 102.019C46.837 105.827 47.2 109.635 47.563 113.443C47.6121 113.959 47.6655 114.489 47.9051 114.948C48.2529 115.615 48.9548 116.038 49.6824 116.227C50.4101 116.416 51.1728 116.4 51.9245 116.391C55.1046 116.349 58.2863 116.428 61.4604 116.628C62.5219 116.695 63.5948 116.774 64.6434 116.596C65.692 116.418 66.7324 115.951 67.3833 115.11C68.3103 113.912 68.2714 112.254 68.1898 110.741Z" fill="#00160A"/>
<path fill-rule="evenodd" clip-rule="evenodd" d="M62.7935 60.3665C63.0894 60.1355 62.8405 59.6625 62.8989 59.2917C62.9814 58.7671 63.6342 58.5869 64.1617 58.5259C67.5501 58.1344 70.9623 57.9492 74.3732 57.9717C74.657 57.9736 74.9925 58.0053 75.1354 58.2505C75.307 58.5449 75.1472 59.0587 75.472 59.1619C75.6245 59.2103 75.82 59.1207 75.9356 59.2314C76.1267 59.4143 75.7707 59.6615 75.5072 59.6852C71.5156 60.0434 67.5155 60.3055 63.5113 60.4713C63.2663 60.4814 63.0065 60.4878 62.7935 60.3665M74.7168 58.7135C74.6236 58.4791 74.3115 58.4447 74.0593 58.4486C70.8435 58.4975 67.6294 58.6564 64.4245 58.925C64.0487 58.9565 63.6052 59.0349 63.4486 59.3779C63.3733 59.5729 63.5168 59.7972 63.7062 59.8857C63.8956 59.9743 64.1145 59.9628 64.3231 59.9496C67.5247 59.7465 70.7262 59.5434 73.9277 59.3403C74.1248 59.3278 74.3302 59.3129 74.5 59.2122C74.6699 59.1116 74.7898 58.897 74.7168 58.7135Z" fill="#00160A"/>
<path fill-rule="evenodd" clip-rule="evenodd" d="M79.0315 105.693C79.5253 106.085 79.3141 106.945 79.7436 107.407C79.9433 107.621 80.2424 107.705 80.5238 107.788C80.7046 107.84 80.9286 107.973 80.871 108.153C80.8121 108.337 80.5443 108.307 80.3647 108.237C79.7779 108.007 79.1163 107.625 79.0839 106.995C79.0602 106.536 78.9237 106.083 78.6897 105.687C78.7556 105.575 78.9301 105.612 79.0315 105.693V105.693Z" fill="#00160A"/>
<path fill-rule="evenodd" clip-rule="evenodd" d="M81.3662 112.201C81.2053 110.13 81.0445 108.059 80.8837 105.988C80.8601 105.684 80.8331 105.368 80.6824 105.102C80.5317 104.837 80.2193 104.637 79.9244 104.716C78.5903 105.074 77.2049 105.24 75.824 105.207C74.6165 105.178 73.3811 105.002 72.2194 105.333C72.241 105.908 72.2626 106.483 72.2842 107.058C72.2905 107.226 72.3001 107.405 72.3956 107.543C72.6635 107.93 73.3286 107.635 73.4796 107.189C73.6307 106.742 73.4943 106.254 73.5202 105.784C73.5248 105.7 73.5415 105.606 73.6124 105.562C73.7631 105.468 73.9079 105.691 73.9465 105.865C74.0573 106.361 74.1679 106.881 74.0371 107.372C73.9064 107.863 73.4505 108.309 72.9462 108.244C72.4236 108.176 72.2097 108.891 72.1971 109.417C72.1718 110.469 72.1466 111.52 72.1213 112.571C72.1134 112.902 72.2324 113.359 72.5613 113.322C73.4104 113.226 74.2594 113.13 75.1084 113.033C75.3136 113.01 75.5343 112.99 75.7148 113.09C75.8952 113.19 75.9907 113.464 75.8428 113.608C74.8456 113.695 73.8483 113.783 72.8511 113.87C72.5598 113.895 72.2576 113.92 71.9828 113.82C71.708 113.72 71.4688 113.459 71.4937 113.167C71.739 110.307 71.7939 107.431 71.6579 104.564C71.629 103.954 72.372 103.644 72.9722 103.532C74.8773 103.175 76.8202 103.02 78.7578 103.07C79.4074 103.087 80.1155 103.152 80.5865 103.599C81.0661 104.055 81.1603 104.773 81.2264 105.431C81.4743 107.899 81.7221 110.366 81.97 112.833C81.9833 112.966 81.9865 113.124 81.8801 113.205C81.8166 113.253 81.7313 113.259 81.6516 113.262C80.8247 113.296 79.9978 113.331 79.1709 113.365C78.7327 113.383 78.2613 113.393 77.8965 113.149C77.6463 112.982 77.4809 112.717 77.3356 112.454C76.987 111.822 76.7084 111.152 76.5066 110.459C76.1904 111.251 75.9901 112.089 75.9143 112.938C75.5147 112.982 75.4404 112.382 75.5333 111.991C75.725 111.184 75.9167 110.377 76.1084 109.57C76.1376 109.447 76.1842 109.305 76.3046 109.267C76.4818 109.211 76.6179 109.423 76.6827 109.598C76.9528 110.323 77.2229 111.049 77.4929 111.775C77.7254 112.4 78.3958 112.775 79.0578 112.852C79.7198 112.929 80.3833 112.762 81.0289 112.597C81.1566 112.564 81.3016 112.517 81.3513 112.395C81.3759 112.334 81.3712 112.266 81.3662 112.201ZM72.37 104.618C72.9688 104.626 73.5676 104.634 74.1664 104.641C74.6163 104.647 75.0663 104.653 75.5162 104.645C77.1402 104.614 78.7605 104.396 80.335 103.997C79.9838 103.636 79.4204 103.616 78.9172 103.625C77.1162 103.657 75.3166 103.762 73.524 103.939C73.0443 103.986 72.4482 104.143 72.37 104.618L72.37 104.618Z" fill="#00160A"/>
<path fill-rule="evenodd" clip-rule="evenodd" d="M69.69 103.067C69.6558 102.88 69.8986 102.778 70.0867 102.749C72.2592 102.412 74.4608 102.263 76.6589 102.304C76.6905 102.305 76.7229 102.306 76.7521 102.318C76.8552 102.361 76.8503 102.523 76.7685 102.599C76.6866 102.676 76.566 102.688 76.4546 102.697C74.3615 102.854 72.2377 102.773 70.1871 103.221C69.9967 103.262 69.7251 103.259 69.69 103.067L69.69 103.067Z" fill="#00160A"/>
<path fill-rule="evenodd" clip-rule="evenodd" d="M118.275 98.5691C118.395 98.2861 118.528 97.9874 118.782 97.8153C118.997 97.6702 119.266 97.6382 119.524 97.6102C120.289 97.5271 121.054 97.4441 121.819 97.361C122.197 97.3199 122.685 97.1604 122.671 96.7803C122.625 95.5523 122.72 94.1381 123.695 93.3908C124.587 92.7071 125.924 92.8947 126.839 93.5469C127.755 94.1991 128.335 95.2148 128.835 96.2214C129.057 96.6672 129.663 96.7484 130.154 96.6625C130.644 96.5766 131.141 96.3837 131.625 96.5012C132.37 96.682 132.746 97.4955 133.002 98.2179C134.287 101.844 135.159 105.623 136.756 109.122C137.354 110.431 137.165 112.064 136.284 113.201C136.175 112.298 136.327 111.365 136.715 110.543C136.898 110.155 136.289 109.9 135.86 109.901C131.492 109.913 127.106 109.925 122.786 110.573C122.654 110.593 122.514 110.617 122.416 110.707C122.32 110.795 122.283 110.927 122.25 111.053C122.116 111.561 121.982 112.07 121.848 112.579C121.764 112.898 121.817 113.392 122.145 113.359C126.42 112.926 130.718 112.72 135.015 112.741C135.467 112.743 136.083 112.922 136.025 113.371C131.448 113.424 126.853 113.48 122.326 114.154C121.605 114.261 121.107 113.368 121.188 112.644C121.27 111.919 121.686 111.27 121.803 110.55C121.904 109.93 121.777 109.298 121.642 108.684C121.426 107.709 121.184 106.74 120.918 105.777C120.658 104.838 120.374 103.905 120.091 102.973C119.662 101.562 119.233 100.152 118.804 98.7414C118.214 99.6053 117.951 100.687 118.079 101.725C118.168 102.448 118.436 103.135 118.637 103.835C118.924 104.836 119.074 105.87 119.224 106.901C119.52 108.93 119.815 110.96 120.11 112.989C120.154 113.288 120.068 113.728 119.769 113.684C118.442 109.577 118.806 105.037 117.24 101.016C117.585 100.2 117.93 99.3847 118.275 98.5691ZM128.162 99.3142C128.595 99.0735 128.819 98.5119 128.67 98.0396C128.522 97.5672 128.017 97.2345 127.525 97.2844C126.317 97.4067 125.109 97.5291 123.902 97.6515C123.79 97.6628 123.665 97.6813 123.598 97.7711C123.545 97.842 123.544 97.9377 123.549 98.026C123.582 98.5778 123.773 99.1195 124.095 99.569C124.345 99.9182 124.691 100.336 124.496 100.719C124.252 101.197 123.45 100.929 123.251 100.43C123.052 99.9319 123.193 99.3693 123.156 98.8338C123.119 98.2984 122.735 97.682 122.205 97.7711C121.337 97.9172 120.469 98.0634 119.601 98.2095C119.476 98.2305 119.314 98.3074 119.35 98.4284C120.407 101.927 121.464 105.426 122.521 108.925C122.653 109.361 122.95 109.9 123.394 109.797C127.465 108.846 131.758 109.745 135.892 109.12C134.653 105.237 133.372 101.368 132.048 97.5132C132.009 97.3995 131.965 97.2785 131.868 97.2076C131.76 97.129 131.616 97.1313 131.483 97.137C130.863 97.1632 130.242 97.1895 129.622 97.2158C129.377 97.2262 129.043 97.3431 129.096 97.5827C129.265 98.3339 129.433 99.0851 129.602 99.8364C129.631 99.9656 129.659 100.104 129.611 100.227C129.48 100.563 128.986 100.478 128.656 100.333C128.439 100.238 128.212 100.133 128.078 99.9384C127.944 99.7433 127.955 99.4291 128.162 99.3142ZM126.564 93.8638C126.088 93.5149 125.463 93.2633 124.914 93.4794C124.723 93.5547 124.557 93.6813 124.394 93.8063C124.103 94.0289 123.803 94.2617 123.632 94.5852C123.472 94.8862 123.439 95.236 123.409 95.5754C123.383 95.8721 123.357 96.1688 123.331 96.4654C123.315 96.6494 123.308 96.8607 123.442 96.9884C123.57 97.111 123.771 97.1021 123.947 97.0853C125.21 96.9652 126.473 96.845 127.736 96.7249C127.916 96.7077 128.136 96.6588 128.184 96.4843C128.203 96.4154 128.187 96.3423 128.171 96.2729C127.938 95.3156 127.358 94.4466 126.564 93.8638M126.091 97.002C125.964 97.0378 126.106 97.2763 126.198 97.182C126.316 97.1335 126.185 96.9114 126.086 96.9914L126.091 97.002Z" fill="#FFB61D"/>
<path fill-rule="evenodd" clip-rule="evenodd" d="M86.0417 68.6057C86.0197 68.5318 86.0637 68.4544 86.1155 68.3973C86.37 68.117 86.796 68.0962 87.1746 68.0953C89.4699 68.09 91.7651 68.0847 94.0603 68.0793C94.2218 68.0789 94.395 68.0821 94.5268 68.1754C94.6586 68.2688 94.7102 68.4888 94.5835 68.5891C94.5161 68.6424 94.4232 68.6458 94.3372 68.6467C91.6708 68.6763 89.0043 68.7059 86.3378 68.7355C86.2217 68.7368 86.0749 68.717 86.0417 68.6057Z" fill="#00160A"/>
<path fill-rule="evenodd" clip-rule="evenodd" d="M86.8922 70.9753C86.7539 70.8958 86.773 70.6728 86.8893 70.5636C87.0056 70.4544 87.1751 70.4287 87.3335 70.4096C88.2836 70.2951 89.239 70.2321 90.1939 70.1692C90.7201 70.1346 91.2462 70.0999 91.7723 70.0652C92.4563 70.0202 93.1402 69.9751 93.8242 69.9301C94.0415 69.9158 94.2841 69.9095 94.4477 70.0532C94.6114 70.1969 94.5714 70.5424 94.3541 70.5559C91.94 70.7054 89.526 70.855 87.1119 71.0045C87.0371 71.0092 86.9572 71.0127 86.8922 70.9753L86.8922 70.9753Z" fill="#00160A"/>
<path fill-rule="evenodd" clip-rule="evenodd" d="M99.8327 74.0965C100.015 73.7499 100.213 73.3863 100.549 73.1843C100.884 72.9823 101.399 73.024 101.58 73.3715C101.772 73.7414 101.486 74.1872 101.15 74.4341C100.814 74.681 100.401 74.855 100.183 75.2101C101.362 75.9874 102.542 76.7646 103.721 77.5418C104.645 78.1506 105.69 79.02 105.501 80.1101C105.39 80.7492 104.849 81.246 104.245 81.4845C103.642 81.7229 102.979 81.7478 102.33 81.7665C97.9726 81.8919 93.6106 81.8698 89.2542 81.7002C88.952 81.6884 88.6149 81.6603 88.4135 81.4345C88.2575 81.2597 88.2253 81.0102 88.2001 80.7773C87.9494 78.4586 87.6987 76.1399 87.4479 73.8212C87.4387 73.7356 87.4298 73.6461 87.4605 73.5656C87.5895 73.2271 88.096 73.4356 88.3791 73.6616C90.3845 75.2623 93.5905 75.0742 95.395 73.2501C95.831 72.8094 96.5732 72.8663 97.1334 73.1321C97.6935 73.3978 98.1622 73.8301 98.7241 74.0921C98.6642 73.7672 98.9507 73.4244 99.2811 73.4257C99.6114 73.427 99.8952 73.7721 99.8327 74.0965ZM100.079 75.5904C99.9361 75.0642 99.1583 74.9538 98.7294 75.2905C98.3004 75.6273 98.1614 76.2139 98.1241 76.758C98.1102 76.9609 97.7765 76.9811 97.6622 76.8129C97.5479 76.6447 97.5942 76.418 97.6577 76.2247C97.8252 75.7147 98.0832 75.2345 98.4159 74.8133C98.5807 74.6047 98.3392 74.3226 98.1217 74.1698C97.3544 73.6303 96.2679 73.0981 95.5641 73.718C93.6354 75.4167 90.5591 75.643 88.4026 74.2448C88.4283 75.9853 88.5565 77.7243 88.7864 79.4498C88.8096 79.6236 88.8393 79.8093 88.9594 79.9371C89.1183 80.1062 89.3784 80.118 89.6105 80.1183C93.3568 80.1231 97.103 80.1279 100.849 80.1326C101.214 80.1331 101.709 80.0029 101.681 79.6395C101.615 78.7937 101.989 77.9255 102.65 77.3931C102.13 77.0157 101.611 76.6383 101.091 76.2608C100.933 76.1457 100.767 76.0274 100.574 75.9943C99.9907 75.8944 99.6013 76.5626 99.3952 77.1169C99.0792 76.5521 99.4474 75.7305 100.079 75.5904ZM90.2875 81.3656C94.1886 81.3962 98.0901 81.3897 101.991 81.346C103.099 81.3336 104.392 81.2212 104.992 80.2906C99.6053 80.5272 94.2106 80.5858 88.8198 80.4662C88.7528 81.1132 89.637 81.3605 90.2875 81.3656ZM103.639 77.8882C103.523 77.8146 103.403 77.7395 103.267 77.7163C102.859 77.6462 102.537 78.0542 102.359 78.4287C102.257 78.6453 102.167 78.8682 102.092 79.0958C102.035 79.2692 101.986 79.4536 102.022 79.6327C102.058 79.8117 102.204 79.981 102.387 79.9831C103.05 79.9907 103.714 79.9836 104.377 79.9619C104.533 79.9568 104.703 79.9457 104.821 79.8419C104.958 79.7198 104.975 79.509 104.941 79.3282C104.816 78.6734 104.202 78.2451 103.639 77.8882ZM101.296 73.6533C101.289 73.4513 101.019 73.3487 100.832 73.4266C100.646 73.5046 100.531 73.69 100.429 73.8643C100.305 74.0749 100.181 74.2856 100.057 74.4963C99.9926 74.6068 99.9573 74.7947 100.082 74.8224C100.412 74.5486 100.741 74.2748 101.07 74.0011C101.181 73.9094 101.301 73.7966 101.296 73.6533ZM99.1621 73.9825C99.1062 74.2549 99.2459 74.5559 99.4901 74.689C99.5747 74.4085 99.5251 74.0905 99.359 73.8491C99.3488 73.7808 99.2561 73.7413 99.1997 73.7812C99.1563 73.8362 99.1408 73.9122 99.1592 73.9798L99.1621 73.9825Z" fill="#00160A"/>
<path fill-rule="evenodd" clip-rule="evenodd" d="M85.7486 65.9494C85.6496 65.4701 85.5506 64.9908 85.4516 64.5115C85.4131 64.3252 85.3777 64.1184 85.4754 63.9552C85.6086 63.7327 85.9135 63.703 86.1728 63.6985C92.5404 63.5877 98.9105 63.6119 105.277 63.7712C105.711 63.7821 106.068 64.1571 106.2 64.571C106.332 64.985 106.289 65.4318 106.244 65.864C106.22 66.0975 106.181 66.3579 105.995 66.5008C105.843 66.6179 105.634 66.6209 105.442 66.6188C99.0473 66.549 92.6525 66.4792 86.2578 66.4094C86.1525 66.4082 86.0411 66.4053 85.952 66.3493C85.8217 66.2673 85.7797 66.1002 85.7486 65.9494ZM86.6287 64.1189C86.158 64.1155 85.8243 64.6747 85.9419 65.1304C86.0595 65.5862 86.4998 65.8999 86.9573 66.0108C87.4148 66.1216 87.8937 66.0681 88.3624 66.0243C94.1373 65.4844 99.977 66.5162 105.748 65.9339C105.778 65.5828 105.807 65.2199 105.694 64.8861C105.581 64.5524 105.286 64.2534 104.934 64.2508C98.832 64.2069 92.7303 64.1629 86.6287 64.1189Z" fill="#00160A"/>
<path fill-rule="evenodd" clip-rule="evenodd" d="M47.3512 79.8324C47.138 80.2364 46.8441 80.6467 46.4035 80.7669C45.5642 80.9958 44.8702 80.0641 44.6412 79.2248C44.2836 77.9146 44.3741 76.4866 44.8941 75.232C45.1723 74.5608 44.9404 73.7672 44.5042 73.1862C43.6816 72.0903 42.147 71.6104 40.8284 71.9832C39.5098 72.3561 38.4693 73.529 38.1934 74.8712C38.1502 75.0814 38.1808 75.3765 38.3932 75.4063C39.453 75.5546 39.9395 76.7984 40.1008 77.8563C40.224 78.664 40.2776 79.5103 40.0036 80.28C39.7296 81.0498 39.059 81.7259 38.2443 81.7878C37.5131 81.2955 36.9627 80.5409 36.7172 79.6944C36.2605 78.1199 36.8537 76.4509 37.4662 74.9303C37.84 74.0023 38.2412 73.052 38.9513 72.3472C40.469 70.8406 43.3031 71.0194 44.6194 72.7049C45.1258 73.3533 45.4163 74.1587 45.9774 74.7602C46.4004 75.2137 46.9596 75.5311 47.3455 76.0165C48.1835 77.0709 47.9797 78.6412 47.3512 79.8324ZM37.1812 76.9217C36.7969 77.9808 36.9039 79.2072 37.4659 80.1837C37.5582 80.3441 37.6681 80.5037 37.8294 80.5944C37.9907 80.6852 38.2156 80.6866 38.3432 80.5524C38.7253 80.1506 38.7731 79.543 38.7719 78.9884C38.7704 78.3326 38.7299 77.6769 38.6508 77.0258C38.6184 76.7593 38.5632 76.4648 38.3477 76.3047C38.1322 76.1447 37.7276 76.2786 37.7615 76.5449C37.86 77.3198 37.9584 78.0947 38.0569 78.8696C38.0793 79.0458 38.099 79.2365 38.0107 79.3907C37.9224 79.5448 37.6784 79.6167 37.5666 79.4786C37.2768 78.8872 37.1894 78.1989 37.3222 77.5539C37.37 77.322 37.4029 77.0046 37.1812 76.9217M46.053 79.9947C46.1509 79.9183 46.1966 79.7942 46.2332 79.6755C46.5205 78.7425 46.5235 77.7241 46.2419 76.7895C46.1348 76.4341 45.8446 76.0184 45.4931 76.1375C45.29 76.2062 45.187 76.4286 45.1223 76.6331C44.8284 77.5622 44.8675 78.593 45.2309 79.4972C45.3005 79.6704 45.3867 79.8455 45.5342 79.96C45.6817 80.0745 45.9058 80.1096 46.053 79.9947ZM39.1549 76.6418C39.411 77.9394 39.3565 79.2973 38.9974 80.5703C38.9643 80.6875 39.0972 80.7788 39.2085 80.8282C39.7473 79.5215 39.8155 78.0264 39.3979 76.6761C39.3287 76.6267 39.2351 76.6135 39.1549 76.6418ZM46.6294 76.2912C46.5499 76.4182 46.4703 76.5453 46.3907 76.6723C46.653 76.6279 46.7731 76.9859 46.7871 77.2516C46.8196 77.8658 46.852 78.48 46.8845 79.0942C47.1288 79.0024 47.1731 78.6817 47.1776 78.4207C47.1879 77.8331 47.1981 77.2455 47.2084 76.6579C47.1204 76.6476 47.0324 76.6372 46.9444 76.6269C46.9353 76.4605 46.795 76.3109 46.6294 76.2912Z" fill="#00160A"/>
<path fill-rule="evenodd" clip-rule="evenodd" d="M75.4381 77.4058C73.6874 77.3223 71.9291 77.3982 70.1921 77.6324C70.0384 77.6531 69.8664 77.6706 69.7429 77.5768C69.6193 77.483 69.6328 77.2342 69.787 77.2173C71.5241 77.0264 73.2687 76.9036 75.0154 76.8492C75.2053 76.8433 75.418 76.8467 75.5534 76.9801C75.6887 77.1135 75.6279 77.4149 75.4381 77.4058Z" fill="#00160A"/>
<path fill-rule="evenodd" clip-rule="evenodd" d="M34.7702 70.4155C35.2672 70.3688 35.7642 70.3221 36.2611 70.2754C36.5115 70.2519 36.7619 70.2284 37.0122 70.2049C38.6047 70.0553 40.1972 69.9057 41.7912 69.7726C41.8538 69.7674 41.9192 69.7626 41.9772 69.7867C42.1497 69.8583 42.1231 70.1371 41.9728 70.2479C41.8225 70.3588 41.6192 70.3524 41.4325 70.3462C39.0851 70.268 36.7457 70.9736 34.4091 70.7349C34.2573 70.7194 34.0587 70.6412 34.0855 70.4909C34.3128 70.4585 34.5415 70.437 34.7702 70.4155Z" fill="#00160A"/>
<path fill-rule="evenodd" clip-rule="evenodd" d="M88.301 122.001C88.2228 121.317 88.1668 120.574 87.7072 120.062C87.3544 119.669 87.5369 118.938 88.033 118.758C88.5291 118.577 89.1386 119.018 89.1214 119.546C89.1155 119.727 89.0496 119.9 88.9982 120.074C88.6477 121.261 88.9732 122.539 89.4018 123.7C89.8359 124.876 90.5004 126.128 91.693 126.515C93.0726 126.962 94.5993 125.972 95.2109 124.657C95.8224 123.342 95.7293 121.815 95.5158 120.381C95.4943 120.237 95.4558 120.071 95.3237 120.01C94.787 119.762 94.7056 118.891 95.187 118.548C95.6684 118.205 96.4646 118.567 96.5236 119.155C96.5436 119.354 96.4927 119.553 96.4547 119.75C96.191 121.116 96.5396 122.548 96.2507 123.909C96.0698 124.761 95.6362 125.558 95.0188 126.173C94.3641 126.825 93.48 127.274 92.5564 127.29C91.3127 127.311 90.1496 126.539 89.4467 125.513C88.7437 124.487 88.4422 123.237 88.301 122.001Z" fill="#00160A"/>
<path fill-rule="evenodd" clip-rule="evenodd" d="M52.0333 65.8748C52.0678 66.3431 52.1008 66.8255 51.9549 67.2718C51.809 67.7181 51.4382 68.1246 50.9704 68.1649C48.5588 68.3722 46.1468 68.5796 43.7305 68.7226C40.4357 68.9175 37.1352 68.9927 33.8355 69.0678C33.7178 69.0705 33.5918 69.0709 33.4936 69.006C33.3461 68.9086 33.3185 68.7075 33.3049 68.5314C33.2692 68.0701 33.2336 67.6088 33.1979 67.1476C33.187 67.0073 33.1788 66.8557 33.2544 66.7371C33.3651 66.5632 33.6022 66.5334 33.8079 66.5212C39.8768 66.1614 45.9542 65.9459 52.0333 65.8748ZM51.0172 67.4928C51.405 67.4669 51.4834 66.8567 51.1992 66.5918C50.9149 66.3269 50.4831 66.321 50.0947 66.3307C45.1001 66.4548 40.1036 66.579 35.119 66.918C34.76 66.9424 34.3866 66.9723 34.0763 67.1544C33.766 67.3365 33.5419 67.7194 33.6605 68.0591C33.8289 68.5417 34.48 68.5948 34.99 68.5608C40.3324 68.2048 45.6748 67.8488 51.0172 67.4928Z" fill="#00160A"/>
<path fill-rule="evenodd" clip-rule="evenodd" d="M45.8326 77.5306C45.8374 77.6575 45.8421 77.7843 45.8469 77.9112C45.8569 78.1753 45.8668 78.4411 45.8286 78.7025C45.4975 78.6675 45.3948 78.2414 45.3755 77.909C45.3663 77.7509 45.3632 77.5742 45.4691 77.4564C45.575 77.3386 45.8266 77.3723 45.8326 77.5306L45.8326 77.5306Z" fill="#00160A"/>
<path fill-rule="evenodd" clip-rule="evenodd" d="M69.6792 78.6119C70.0041 78.3119 70.4981 78.3212 70.9402 78.3338C72.3386 78.3735 73.7411 78.2654 75.1169 78.012C75.2791 77.9821 75.3663 78.2343 75.2653 78.3647C75.1642 78.495 74.9816 78.5223 74.8176 78.539C73.267 78.6966 71.7098 78.7901 70.1515 78.819C69.9658 78.8225 69.7303 78.7904 69.6792 78.6119Z" fill="#00160A"/>
<path fill-rule="evenodd" clip-rule="evenodd" d="M121.884 83.8545C121.731 84.3733 121.221 84.694 120.735 84.9316C118.304 86.1209 115.445 86.4121 112.823 85.7374C111.943 85.5108 110.94 84.9867 110.902 84.0783C110.874 83.4105 111.407 82.8509 111.972 82.493C112.838 81.9439 113.847 81.6667 114.854 81.4711C116.796 81.0938 118.9 81.016 120.658 81.9232C121.394 82.3033 122.119 83.0599 121.884 83.8545M111.503 83.9774C111.504 84.7111 112.323 85.1407 113.032 85.3268C115.497 85.9733 118.192 85.6943 120.472 84.557C120.838 84.3745 121.224 84.1338 121.341 83.7418C121.497 83.2153 121.089 82.685 120.636 82.374C119.274 81.4379 117.472 81.5659 115.828 81.7419C114.506 81.8834 113.096 82.0685 112.088 82.9361C111.776 83.2042 111.502 83.5663 111.503 83.9774L111.503 83.9774Z" fill="#00160A"/>
<path fill-rule="evenodd" clip-rule="evenodd" d="M50.3362 40.8804C50.2533 40.4087 50.5786 39.94 50.9977 39.7084C51.4168 39.4767 51.9109 39.432 52.3889 39.4039C56.6511 39.1531 60.9066 39.8377 65.1703 40.0627C65.719 40.0916 66.2976 40.1219 66.7593 40.4201C67.2209 40.7182 67.492 41.3873 67.1726 41.8345C67.0181 42.0508 66.7627 42.1709 66.5093 42.251C65.7783 42.4819 64.994 42.4513 64.2281 42.4183C60.2422 42.247 56.2562 42.0756 52.2703 41.9043C51.4789 41.8702 50.4734 41.6605 50.3362 40.8804M50.883 40.1969C50.6577 40.5143 50.8462 40.9879 51.1716 41.2014C51.497 41.4149 51.907 41.439 52.2958 41.4565C56.5202 41.6466 60.7446 41.8367 64.9689 42.0268C65.3806 42.0453 65.8364 42.0494 66.1483 41.7801C66.4601 41.5108 66.419 40.8686 66.012 40.8039C61.3146 40.0571 56.5478 39.7469 51.7932 39.8787C51.4594 39.888 51.0762 39.9246 50.883 40.1969" fill="#00160A"/>
<path fill-rule="evenodd" clip-rule="evenodd" d="M97.0753 36.7873C97.7237 35.4363 98.7751 34.0437 100.269 33.9285C101.264 33.8517 102.32 34.0258 103.108 34.639C104.537 35.7512 104.636 37.9078 104.126 39.6449C103.524 41.6923 102.181 43.5887 100.255 44.5069C99.7953 44.726 99.2956 44.8897 98.787 44.8697C97.4355 44.8167 96.4513 43.4889 96.1603 42.168C95.7616 40.3577 96.2733 38.4585 97.0753 36.7873M98.7555 44.3753C99.7545 44.5113 100.696 43.875 101.401 43.154C102.722 41.8027 103.608 40.0333 103.901 38.1663C103.985 37.6283 104.02 37.0701 103.873 36.5455C103.585 35.5138 102.607 34.7682 101.558 34.5537C100.549 34.3474 99.4397 34.5935 98.6617 35.2687C98.2878 35.5932 97.9975 36.003 97.7439 36.4282C96.9169 37.8153 96.4469 39.4293 96.5044 41.0431C96.5304 41.7722 96.6686 42.5132 97.0377 43.1425C97.4068 43.7718 98.0327 44.2769 98.7555 44.3753Z" fill="#FFB61D"/>
<path fill-rule="evenodd" clip-rule="evenodd" d="M64.3137 94.126C64.4465 94.119 64.589 94.1143 64.7015 94.1853C64.8405 94.2731 64.8912 94.4479 64.9312 94.6074C65.0189 94.9565 65.107 95.3197 65.0365 95.6726C64.9659 96.0256 64.6874 96.3646 64.3278 96.3803C63.4105 96.4204 62.4932 96.4605 61.576 96.5006C61.2162 96.5163 60.7948 96.5676 60.616 96.8802C60.4949 97.092 60.5309 97.355 60.5706 97.5958C60.6831 98.2782 61.0009 99.141 61.6921 99.1159C62.1518 99.0992 62.5616 99.4482 62.7595 99.8635C62.9574 100.279 62.987 100.751 63.0133 101.211C63.0381 101.643 62.9278 102.234 62.4949 102.245C62.1457 102.253 62.0494 102.725 62.0605 103.074C62.1376 105.502 62.2147 107.93 62.2918 110.358C62.3043 110.749 61.803 110.913 61.4136 110.953C58.1504 111.282 54.8532 111.273 51.5918 110.927C51.4749 110.914 51.3255 110.868 51.3229 110.751C51.2626 108.008 51.2022 105.264 51.1418 102.521C51.1383 102.361 51.0598 102.14 50.9056 102.183C50.4196 102.315 49.9309 101.864 49.8302 101.371C49.7296 100.877 49.9022 100.373 50.0724 99.8987C50.151 99.6794 50.2393 99.4469 50.4274 99.3096C50.8291 99.0162 51.5716 99.2251 51.7515 98.7613C51.7812 98.6847 51.787 98.6007 51.7841 98.5185C51.759 97.8021 51.0919 97.2368 50.3892 97.0951C49.6865 96.9535 48.9622 97.1398 48.2779 97.3533C48.121 96.7615 48.0808 96.1391 48.1603 95.5321C48.179 95.3888 48.2081 95.2382 48.3044 95.1305C48.4416 94.9769 48.6703 94.9555 48.876 94.9446C54.0219 94.6717 59.1678 94.3989 64.3137 94.126ZM50.5942 99.6838C50.4953 99.7986 50.4734 99.9589 50.4555 100.109C50.4091 100.502 50.3626 100.894 50.3162 101.287C50.3064 101.369 50.2972 101.457 50.3305 101.533C50.4018 101.696 50.6172 101.724 50.7952 101.729C51.7398 101.752 52.6845 101.775 53.6292 101.799C53.7885 101.803 53.9556 101.805 54.0971 101.732C54.3246 101.614 54.4181 101.293 54.2897 101.072C54.4053 101.06 54.5209 101.048 54.6365 101.036C54.5856 101.378 54.9343 101.665 55.2767 101.715C55.6191 101.766 55.9632 101.661 56.3081 101.634C57.0314 101.577 57.7537 101.86 58.4742 101.775C58.55 101.766 58.6309 101.75 58.684 101.696C58.7534 101.624 58.7521 101.511 58.7464 101.412C58.7191 100.934 58.6918 100.455 58.6644 99.9769C58.6558 99.8263 58.6429 99.6642 58.5461 99.5485C58.408 99.3833 58.1603 99.3781 57.9451 99.3864C56.9051 99.4267 55.865 99.4669 54.825 99.5072C54.7524 99.51 54.672 99.5161 54.6217 99.5685C54.5653 99.6272 54.5692 99.7195 54.5769 99.8006C54.6118 100.173 54.6468 100.545 54.6817 100.917C54.5437 100.931 54.4084 100.971 54.2856 101.035C54.2549 100.742 54.2242 100.449 54.1935 100.155C54.1655 99.8881 54.0607 99.5455 53.7919 99.542C52.9335 99.5305 52.0752 99.519 51.2168 99.5076C50.9937 99.5046 50.7398 99.5147 50.5942 99.6838ZM55.5394 102.569C55.5251 102.372 55.4395 102.11 55.2426 102.132C54.0187 102.263 52.7798 102.256 51.5575 102.109C51.5877 104.772 51.6373 107.436 51.7064 110.098C51.7153 110.441 52.1478 110.578 52.4888 110.613C53.5018 110.717 54.5219 110.752 55.5397 110.719C55.6231 110.716 55.7134 110.711 55.777 110.657C55.8606 110.585 55.866 110.461 55.8648 110.351C55.8357 107.755 55.7271 105.159 55.5394 102.569ZM61.6592 102.423C61.6258 102.365 61.5495 102.353 61.4833 102.348C60.4304 102.258 59.372 102.233 58.316 102.273C58.2204 102.276 58.1179 102.283 58.0421 102.341C57.927 102.43 57.9199 102.598 57.9231 102.744C57.9813 105.402 58.0395 108.06 58.0978 110.719C59.2603 110.831 60.4439 110.721 61.5659 110.397C61.6357 110.377 61.7098 110.353 61.7549 110.296C61.8036 110.234 61.8069 110.15 61.8079 110.071C61.8299 108.361 61.7857 106.651 61.7415 104.941C61.7207 104.135 61.6999 103.33 61.6791 102.524C61.6782 102.489 61.6769 102.453 61.6592 102.423ZM48.6044 95.6839C48.4025 96.0013 48.6196 96.4493 48.9514 96.6267C49.2831 96.804 49.6808 96.7868 50.0563 96.7651C52.3285 96.6334 54.6007 96.5017 56.8729 96.37C59.0398 96.2445 61.2069 96.1189 63.3703 95.9428C63.6871 95.917 64.02 95.8846 64.2818 95.7042C64.5436 95.5239 64.6957 95.1427 64.5202 94.8777C64.344 94.6118 63.9652 94.5997 63.6467 94.6161C58.9254 94.8596 54.204 95.1031 49.4827 95.3466C49.1565 95.3634 48.7797 95.4083 48.6044 95.6839M57.6861 110.656C57.5264 108.062 57.4948 105.459 57.5914 102.861C57.5969 102.712 57.6019 102.556 57.5423 102.419C57.3684 102.019 56.809 102.021 56.378 102.087C56.1809 102.118 55.9293 102.212 55.9441 102.411C56.1289 104.896 56.3138 107.385 56.2723 109.877C56.2668 110.207 56.4556 110.533 56.7446 110.692C57.0335 110.851 57.41 110.837 57.6861 110.656ZM62.5625 101.077C62.5063 100.734 62.4476 100.384 62.2805 100.079C62.1133 99.7745 61.8139 99.5193 61.4668 99.502C60.8075 99.4692 60.1482 99.4363 59.4889 99.4035C59.3173 99.3949 59.0802 99.4467 59.0884 99.6183C59.1136 100.14 59.1387 100.662 59.1638 101.184C59.1748 101.411 59.2172 101.686 59.4283 101.773C59.4963 101.801 59.5717 101.803 59.6452 101.804C60.5048 101.824 61.3644 101.844 62.224 101.863C62.388 101.867 62.5256 101.723 62.5704 101.565C62.6152 101.407 62.589 101.239 62.5625 101.077ZM58.4004 98.5057C58.3144 98.1435 58.2247 97.7727 58.0188 97.4625C57.8128 97.1522 57.4633 96.9099 57.092 96.9372C56.5196 96.9793 55.9472 97.0213 55.3749 97.0634C55.0183 97.0896 54.6145 97.1409 54.4055 97.431C54.1527 97.7818 54.3261 98.2714 54.2578 98.6984C54.2338 98.8484 54.351 98.992 54.4913 99.0503C54.6316 99.1086 54.7892 99.1018 54.9409 99.094C55.9655 99.0412 56.9901 98.9885 58.0147 98.9358C58.1651 98.9281 58.3456 98.9006 58.4055 98.7624C58.4402 98.6825 58.4206 98.5905 58.4004 98.5057ZM60.1953 97.8496C60.0004 97.5826 60.0052 97.1869 60.2066 96.9248C59.8475 96.7017 59.3445 96.743 59.0265 97.0216C58.7085 97.3001 58.6014 97.7933 58.7752 98.1786C58.8365 98.3145 58.8014 98.4754 58.8445 98.6181C58.9058 98.8207 59.1178 98.9479 59.3279 98.9739C59.538 99 59.7488 98.9448 59.9533 98.8901C60.2216 98.8184 60.5481 98.6749 60.5455 98.3972C60.5434 98.1757 60.326 98.0285 60.1953 97.8496ZM53.7927 98.8004C53.9116 98.4112 53.7516 97.9673 53.4461 97.6984C53.1406 97.4295 52.7127 97.3248 52.3074 97.3612C52.1445 97.3758 51.9746 97.4162 51.8568 97.5296C51.7389 97.6429 51.6967 97.8469 51.803 97.9713C51.8814 98.0631 52.0158 98.0899 52.0979 98.1785C52.2232 98.3137 52.1809 98.5298 52.2383 98.705C52.368 99.1008 52.9054 99.1381 53.3202 99.1003C53.4621 99.0874 53.6188 99.0672 53.7122 98.9596C53.7515 98.9143 53.7752 98.8577 53.7927 98.8004ZM53.8597 97.491C53.9558 97.398 53.9732 97.2345 53.8989 97.1233C53.7333 97.0739 53.5481 97.1725 53.461 97.3217C53.5258 97.47 53.7078 97.5557 53.8633 97.5111M58.5851 97.0776C58.6093 97.0127 58.5951 96.935 58.5495 96.8827C58.3924 96.8331 58.2093 96.8776 58.0926 96.9939C58.2127 97.1302 58.4312 97.1669 58.5893 97.0775L58.5851 97.0776Z" fill="#00160A"/>
<path fill-rule="evenodd" clip-rule="evenodd" d="M121.929 86.0466C116.892 88.0164 111.854 89.9861 106.817 91.9559C104.65 92.8032 102.143 94.075 101.911 96.39C104.855 94.1254 108.491 92.7739 112.199 92.5663C109.637 95.7938 106.402 98.4847 102.762 100.416C99.4936 102.151 95.3552 104.001 95.0748 107.691C98.5854 103.51 103.983 100.979 109.442 100.954C105.949 106.069 100.349 109.697 94.2535 110.794C94.4627 112.366 94.6719 113.938 94.8811 115.51C96.9523 115.436 99.0361 115.733 101.005 116.381C102.407 122.404 103.809 128.426 105.211 134.449C105.556 135.932 105.859 137.635 104.952 138.856C104.051 140.068 102.351 140.276 100.845 140.383C94.9103 140.805 88.9754 141.227 83.0405 141.649C82.3299 138.43 81.6193 135.211 80.9087 131.991C70.8978 132.921 60.8869 133.85 50.876 134.78C48.7679 134.976 46.5382 135.151 44.6305 134.233C37.7111 130.902 29.3211 137.349 22.0128 134.991C28.4339 134.869 34.8352 133.749 40.9159 131.683C43.1212 130.934 45.7616 128.881 44.6094 126.857C38.9703 130.791 31.7348 132.362 24.9718 131.12C25.3689 124.552 25.1136 117.945 24.2107 111.428C29.0228 110.739 33.7652 109.564 38.3421 107.927C39.6152 107.471 40.925 106.947 41.8316 105.944C42.7382 104.94 43.1047 103.32 42.3082 102.227C35.3468 105.937 27.3091 107.597 19.4477 106.949C19.8579 115.844 20.2681 124.739 20.6783 133.634C19.5163 124.746 18.9 115.786 18.8342 106.821C22.8809 106.463 26.9276 106.104 30.9743 105.745C30.3236 102.856 29.6689 99.9018 30.0031 96.9598C30.3374 94.0178 31.8515 91.0385 34.513 89.7411C32.4995 85.4465 29.4564 81.6388 25.7114 78.7281C21.3211 75.3158 15.6766 72.7432 13.6717 67.5568C12.3461 64.1276 12.9963 60.1388 14.8318 56.9533C16.6674 53.7678 19.5759 51.314 22.7371 49.4369C18.3849 48.3182 15.0882 43.9798 15.1764 39.4869C15.2646 34.9941 18.729 30.7884 23.1218 29.8413C21.0507 27.3733 17.7895 26.242 15.4073 24.0726C12.6324 21.5454 11.2379 17.4687 12.2487 13.854C13.2595 10.2394 16.8185 7.39546 20.5684 7.55571C23.6486 7.68734 26.3593 9.63551 28.5093 11.8451C31.8439 15.2719 34.3238 19.524 35.6646 24.1136C36.5582 27.1727 39.8335 28.729 42.5994 30.3121C45.3654 31.8952 48.2378 34.6529 47.4585 37.7431C46.4282 33.5145 42.9686 29.9699 38.7661 28.8374C36.5764 28.2474 35.7783 25.6416 35.074 23.4858C33.7033 19.2909 31.3634 15.416 28.2892 12.2498C25.9788 9.8703 22.9582 7.79394 19.6464 7.97271C16.2372 8.15673 13.2319 10.93 12.4524 14.254C11.673 17.5781 12.9798 21.2203 15.4674 23.5588C18.0012 25.9408 21.6261 27.1075 23.6688 29.9219C19.2384 30.8223 15.7357 35.086 15.7124 39.6069C15.6891 44.1279 19.1477 48.4274 23.5687 49.3734C20.4532 51.1971 17.5379 53.5137 15.6157 56.5695C13.6935 59.6253 12.8696 63.5037 14.0197 66.9256C16.6799 74.8405 27.7677 76.7296 31.6806 84.1059C32.7404 80.6251 31.1869 76.9653 30.3885 73.4154C29.5901 69.8655 30.0414 65.307 33.3511 63.7953C32.3838 59.1333 31.4165 54.4713 30.4492 49.8093C29.7285 46.3353 29.3669 41.934 32.3553 40.0217C30.2497 39.3686 28.3809 37.9777 27.151 36.148C28.4792 38.181 31.0372 39.3345 33.4402 38.9841C30.4036 32.4014 27.0366 25.9711 23.3561 19.7255C27.3219 25.7052 30.8317 31.9872 33.845 38.499C47.7821 38.1219 61.7411 38.5513 75.6287 39.7843C77.4725 39.948 79.457 40.1863 80.82 41.4388C82.7788 43.2388 85.7196 43.8953 88.2579 43.0992C89.0654 45.1012 89.6596 47.3499 88.973 49.3966C88.2865 51.4432 85.855 53.0054 83.9111 52.0665C84.4185 54.6768 84.9259 57.2872 85.4333 59.8976C90.4032 59.9573 95.3725 60.0588 100.341 60.202C102.974 60.2779 105.726 60.3977 108.015 61.7023C110.303 63.0068 111.918 65.8965 110.899 68.3255C111.549 66.3181 112.199 64.3108 112.849 62.3034C115.141 65.941 116.266 70.3011 116.022 74.5934C116.815 73.3855 117.609 72.1775 118.403 70.9696C115.583 66.5305 115.224 60.6307 117.485 55.8824C119.703 59.5552 120.952 63.8071 121.074 68.0959C121.901 60.3664 127.377 53.3198 134.663 50.6098C133.399 53.5226 132.135 56.4353 130.871 59.348C129.789 61.8418 128.414 64.6079 125.813 65.4001C124.098 65.9227 121.614 65.891 121.303 67.6572C126.23 66.3652 131.474 66.3012 136.431 67.4726C132.611 72.0652 125.25 73.196 120.228 69.9618C117.859 72.6042 115.806 75.5303 114.127 78.6574C116.979 75.1138 121.416 72.8978 125.962 72.7472C123.519 75.6336 120.765 78.2555 117.761 80.5522C119.355 80.7054 121.079 80.9154 122.235 82.0233C123.391 83.1313 123.42 85.4633 121.929 86.0466ZM55.4372 56.9581C56.7583 56.9428 58.2381 56.9897 59.1603 57.9358C59.8638 58.6576 60.0524 59.7222 60.2058 60.7183C60.9072 65.2741 61.5639 69.8367 62.1758 74.4054C62.3293 75.5513 61.3686 76.6087 60.271 76.9721C59.1734 77.3354 57.98 77.176 56.8355 77.0127C57.7898 76.189 59.4009 76.7794 60.4281 76.0485C61.3493 75.393 61.344 74.047 61.2337 72.9218C60.8201 68.7031 60.257 64.4991 59.5456 60.3202C59.4199 59.5815 59.2659 58.7957 58.7426 58.2594C58.0458 57.5452 56.9324 57.4977 55.9346 57.4964C51.8387 57.4913 47.7428 57.4862 43.647 57.4811C42.941 57.4802 42.1983 57.4886 41.5854 57.8389C39.8218 58.8469 40.4719 61.5093 41.3486 63.3418C43.8322 62.8382 46.3699 62.6022 48.9038 62.639C51.1486 62.6716 53.9479 63.4005 54.3264 65.6134C55.158 70.4748 55.9896 75.3363 56.8212 80.1977C57.2572 82.7467 57.4975 85.8436 55.4605 87.4366C54.4426 88.2327 53.0917 88.4224 51.8097 88.5845C48.6576 88.983 45.5055 89.3816 42.3533 89.7801C43.6662 101.275 44.979 112.77 46.2919 124.265C46.4383 125.548 46.7064 127.022 47.8338 127.65C48.5008 128.021 49.3098 127.991 50.0721 127.949C60.1156 127.401 70.1495 126.676 80.1674 125.774C79.7668 124.861 79.7589 123.783 80.146 122.864C81.1607 128.804 82.1754 134.745 83.1901 140.685C84.9666 139.46 84.6935 136.802 84.2218 134.697C83.0277 129.366 81.8336 124.035 80.6395 118.704C80.156 119.591 79.6726 120.478 79.1891 121.365C78.9517 120.257 79.6162 119.112 80.5377 118.454C81.4591 117.795 82.595 117.525 83.7023 117.288C87.1066 116.558 90.5479 116.001 94.0085 115.618C93.0028 108.524 91.9971 101.43 90.9915 94.3353C84.8086 96.0336 78.2608 95.4991 71.8724 94.9514C69.9801 94.7892 67.5755 94.1524 67.395 92.2619C66.9414 87.5094 66.4878 82.7569 66.0342 78.0044C65.9751 77.3848 65.6161 76.5502 65.0251 76.7454C63.5728 77.2249 62.7091 75.1558 62.5902 73.631C62.2173 68.8483 61.8444 64.0656 61.4715 59.2829C61.4226 58.6557 61.4099 57.9318 61.8776 57.511C62.2051 57.2165 62.6768 57.1625 63.1155 57.1224C66.2449 56.8363 69.3743 56.5502 72.5038 56.264C74.2908 56.1006 76.3207 56.0162 77.6211 57.2528C78.5389 58.1256 78.8468 59.4491 79.0406 60.7007C79.3977 63.0075 79.5159 65.3512 79.3927 67.6822C79.1448 65.4037 78.8968 63.1252 78.6488 60.8466C78.5372 59.8214 78.4009 58.7343 77.7532 57.9318C76.6478 56.5621 74.5912 56.5851 72.837 56.7294C69.7033 56.9873 66.5697 57.2451 63.436 57.503C63.014 57.5377 62.5566 57.5876 62.2499 57.8795C61.8508 58.2592 61.862 58.8878 61.9019 59.4372C62.2377 64.0593 62.5734 68.6814 62.9092 73.3035C62.9725 74.1758 63.0588 75.1084 63.6103 75.7873C64.1619 76.4662 65.3585 76.6793 65.8738 75.9726C65.1678 74.4205 66.1444 72.5201 67.5898 71.6157C69.0353 70.7112 70.8092 70.5519 72.5089 70.4163C75.4404 70.1824 78.3718 69.9486 81.3032 69.7147C81.1023 63.6473 80.448 57.5951 79.3475 51.625C78.3336 51.3414 77.4104 50.7421 76.7385 49.9315C76.2359 51.2265 74.7385 52.0495 73.3758 51.7797C72.0131 51.51 70.9422 50.1785 70.9709 48.7897C70.8093 50.388 69.4169 51.7742 67.818 51.9288C66.219 52.0834 64.5868 50.9896 64.122 49.4519C63.3563 50.3059 62.3627 51.0417 61.2204 51.1457C60.0782 51.2497 58.8146 50.5284 58.6289 49.3965C57.1287 51.3427 53.6424 51.1452 52.3716 49.0421C51.0645 51.1992 47.3434 51.1462 46.0983 48.9527C45.5392 50.9806 42.4183 51.1429 40.9202 49.6662C39.4221 48.1895 39.1305 45.9147 38.922 43.8215C36.4492 46.2041 36.003 50.0317 36.4724 53.4333C36.9417 56.835 38.1648 60.1118 38.4614 63.5329C39.1389 63.7032 39.882 63.5957 40.4834 63.2402C39.8338 61.2772 39.4066 58.64 41.17 57.5602C41.8773 57.1271 42.7525 57.1049 43.5818 57.0953C47.5336 57.0496 51.4854 57.0038 55.4372 56.9581ZM94.5845 89.9936C99.7683 89.7362 105.116 90.4118 110.042 88.778C110.804 88.5252 111.585 88.192 112.077 87.5566C110.818 86.9783 109.482 85.981 109.513 84.5965C109.533 83.6871 110.163 82.9011 110.873 82.3325C111.618 81.7357 112.486 81.2924 113.406 81.0383C113.481 80.8104 113.08 80.7611 112.882 80.8957C112.683 81.0303 112.382 81.1969 112.25 80.9967C112.215 80.943 112.207 80.8761 112.201 80.812C111.707 75.7802 110.974 70.7719 110.006 65.8094C109.715 64.3173 109.283 62.6553 107.968 61.8927C107.258 61.481 106.407 61.4119 105.588 61.3552C99.4236 60.9287 93.2479 60.6675 87.0696 60.5719C85.6095 60.5493 83.9761 60.6036 82.9525 61.645C82.176 62.435 81.9536 63.6084 81.8714 64.7132C81.6167 68.1339 82.3493 71.539 82.8258 74.9359C83.3966 79.005 83.6021 83.1153 83.9786 87.207C84.0287 87.7516 84.0895 88.3189 84.3841 88.7797C84.889 89.5695 85.9141 89.8172 86.8424 89.9474C88.2138 90.1396 89.6008 90.2209 90.9853 90.1903C92.1866 90.1637 93.3844 90.0531 94.5845 89.9936ZM52.0422 63.5987C50.2874 62.8274 48.2774 63.0339 46.3733 63.2549C43.493 63.5893 40.6127 63.9237 37.7324 64.2581C36.3481 64.4189 34.9624 64.5798 33.5928 64.838C33.2627 64.9003 32.9314 64.9688 32.6199 65.0947C31.3992 65.5881 30.6714 66.9044 30.5021 68.2101C30.3327 69.5158 30.6229 70.8321 30.9012 72.119C31.7658 76.1186 32.5327 80.1556 32.7407 84.2423C32.7819 85.0513 32.8025 85.871 33.0249 86.65C33.2473 87.4289 33.7013 88.1783 34.4112 88.5685C34.9573 88.8686 35.5988 88.9309 36.2206 88.9718C41.9201 89.3464 47.6165 88.4272 53.2543 87.5112C54.0565 87.3808 54.9004 87.2321 55.5257 86.7131C56.4914 85.9115 56.6357 84.5012 56.6287 83.2461C56.6159 80.9282 56.3353 78.6118 55.7942 76.3579C55.1614 73.7217 54.1678 71.1286 54.1414 68.4177C54.1298 67.222 54.2868 65.9336 53.6629 64.9135C53.2943 64.3107 52.6891 63.883 52.0422 63.5987ZM24.9205 113.797C25.6867 119.302 25.9441 124.877 25.6884 130.429C25.6749 130.722 26.0305 130.871 26.3183 130.926C30.0039 131.631 33.7995 130.728 37.3759 129.592C39.4089 128.947 41.4435 128.211 43.2017 127.004C44.0061 126.451 44.82 125.619 44.6696 124.655C43.7033 118.461 43.1719 112.199 43.0804 105.931C39.8263 108.473 35.6968 109.552 31.6946 110.57C29.7977 111.053 27.8751 111.539 25.9178 111.522C25.4447 111.518 25.0518 111.934 24.9196 112.388C24.7874 112.843 24.8553 113.328 24.9205 113.797ZM99.7198 116.579C93.6242 115.986 87.4061 116.683 81.5932 118.611C81.9423 121.266 82.4192 123.905 83.0217 126.514C83.263 127.559 83.5244 128.599 83.7857 129.639C84.2948 131.664 84.8038 133.689 85.3128 135.715C85.3837 135.997 85.4724 136.305 85.7154 136.464C85.9323 136.607 86.2129 136.59 86.4715 136.569C92.4905 136.067 98.506 135.523 104.517 134.937C103.203 129.079 101.889 123.221 100.575 117.363C100.525 117.138 100.464 116.896 100.285 116.75C100.13 116.624 99.9186 116.599 99.7198 116.579ZM90.7337 90.8639C89.4073 90.9315 88.0611 90.9975 86.766 90.7032C85.4709 90.409 84.2106 89.703 83.5455 88.5535C83.1637 88.9929 82.4048 89.0259 81.9864 88.6212C81.568 88.2165 81.5756 87.4569 82.002 87.0607C80.3171 87.0759 78.6321 87.0911 76.9472 87.1063C77.7172 87.5599 77.6539 88.8973 76.8579 89.3036C76.0619 89.7098 74.96 89.0236 74.9416 88.1301C74.9333 87.7291 75.1793 87.2787 75.5789 87.2428C75.4133 86.9588 74.9831 87.1269 74.6559 87.096C74.1628 87.0493 73.8934 86.512 73.7204 86.048C73.0189 84.1659 72.3806 82.2609 71.7424 80.3564C72.1893 81.0878 73.1956 81.4168 73.9883 81.0907C74.2683 80.9755 74.2768 80.5728 74.1576 80.2945C73.9494 79.8085 73.4749 79.4339 72.9479 79.3925C72.4208 79.3511 71.8723 79.6732 71.6941 80.1709C71.43 79.9734 71.5426 79.5166 71.8197 79.3378C72.0968 79.1589 72.4518 79.1746 72.781 79.1945C75.8888 79.3821 79.0081 79.3792 82.1155 79.1856C82.2569 79.1768 82.4129 79.161 82.5093 79.0571C82.6182 78.9398 82.6077 78.7585 82.5904 78.5992C82.4717 77.5062 82.3529 76.4132 82.2341 75.3201C82.2209 75.1989 82.2021 75.0663 82.1116 74.9847C82.0118 74.8947 81.8616 74.8989 81.7276 74.9084C77.8324 75.186 73.9473 75.6052 70.0826 76.1652C69.6711 76.2248 69.2885 75.8795 69.1587 75.4846C69.0288 75.0897 69.0888 74.6607 69.1502 74.2495C69.1717 74.1052 69.1991 73.9491 69.306 73.8498C69.4044 73.7583 69.547 73.7369 69.6802 73.7199C73.7011 73.2067 77.7481 72.8987 81.8003 72.7975C81.702 73.1979 81.18 73.2842 80.7677 73.2915C77.0069 73.3582 73.2503 73.6597 69.527 74.1936C69.2297 74.702 69.6371 75.3868 70.1859 75.6006C70.7347 75.8144 71.3495 75.7001 71.9283 75.5912C75.1184 74.9908 78.3549 74.6369 81.5994 74.5339C82.0627 74.5192 82.1181 73.8526 82.0207 73.3995C81.7946 72.3472 81.5685 71.2949 81.3424 70.2426C79.0956 70.6682 76.8004 70.8379 74.5154 70.7476C73.1633 70.6942 71.8184 70.9305 70.4859 71.1659C69.3535 71.3659 68.1466 71.6031 67.3282 72.4109C66.3716 73.3553 66.2002 74.8319 66.2583 76.1749C66.3536 78.3782 66.9127 80.5332 67.1886 82.7213C67.5259 85.3945 67.4391 88.1044 67.698 90.7864C67.7678 91.509 67.8672 92.245 68.1912 92.8946C68.5152 93.5443 69.104 94.102 69.822 94.2091C75.722 95.0888 81.7376 95.1887 87.6635 94.5054C88.2109 94.4423 88.7631 94.3712 89.2799 94.18C90.0955 93.8783 90.7949 93.2734 91.2109 92.5098C91.3779 92.2033 91.5025 91.8528 91.4417 91.5091C91.3808 91.1654 91.0823 90.8462 90.7337 90.8639ZM43.5667 105.936C44.1842 112.729 44.8016 119.522 45.419 126.315C45.53 127.536 45.6368 128.797 45.2552 129.962C44.8736 131.127 43.8697 132.181 42.6443 132.221C43.3637 133.273 44.6053 133.875 45.8608 134.095C47.1162 134.315 48.4035 134.199 49.6727 134.081C60.1308 133.115 70.5888 132.149 81.0469 131.183C80.8224 129.876 80.5979 128.569 80.3735 127.262C80.3231 126.969 80.179 126.597 79.8823 126.619C72.6918 127.155 65.5012 127.691 58.3107 128.226C55.358 128.446 52.3908 128.667 49.4398 128.425C47.9465 128.303 46.1023 127.71 45.9549 126.219C44.7761 114.289 43.4113 102.378 41.8614 90.4915C41.8375 90.3086 41.808 90.1131 41.6829 89.9775C41.5161 89.7965 41.2398 89.7827 40.9937 89.7815C39.5233 89.774 38.053 89.7665 36.5826 89.759C37.0121 92.195 37.5695 94.6085 38.2519 96.986C38.3779 97.4254 38.5877 97.9384 39.0379 98.0175C40.6547 98.3014 41.9307 99.6313 42.5959 101.132C43.261 102.633 43.4181 104.301 43.5667 105.936ZM37.9176 63.6525C36.6556 57.2514 35.5878 50.8121 34.7162 44.3463C34.6669 43.9807 34.6192 43.6015 34.7268 43.2485C34.9486 42.5211 35.7443 42.1399 36.4843 41.9643C37.931 41.6212 39.4418 41.7356 40.9246 41.845C54.4817 42.8446 68.0829 43.2446 81.6753 43.0434C81.1348 41.9469 80.0476 41.1991 78.8912 40.8025C77.7349 40.4059 76.4991 40.3179 75.2795 40.2336C63.3146 39.4067 51.3316 38.6318 39.339 38.7762C37.8717 38.7939 36.3874 38.8277 34.9706 39.2098C33.5539 39.5918 32.1908 40.3613 31.3734 41.5799C30.0855 43.5003 30.397 46.0369 30.7956 48.3145C31.7292 53.6483 32.865 58.9466 34.1997 64.1944C35.439 64.0138 36.6783 63.8331 37.9176 63.6525ZM67.1082 51.1418C67.756 51.1485 68.4293 51.1122 69.0026 50.8104C70.0123 50.2789 70.4606 49.0544 70.5272 47.9154C70.5939 46.7763 70.3691 45.6347 70.4415 44.496C70.458 44.2364 70.603 43.8925 70.8548 43.9576C71.0372 45.2685 71.2195 46.5793 71.4019 47.8902C71.5025 48.6139 71.6072 49.3512 71.9243 50.0095C72.2414 50.6678 72.8114 51.2464 73.529 51.3843C73.9411 51.4634 74.3714 51.3925 74.7642 51.2448C75.7046 50.8913 76.4929 49.9912 76.4571 48.9871C76.4077 47.6008 76.3584 46.2145 76.309 44.8282C76.2895 44.2797 76.0856 43.5489 75.5375 43.5776C71.8836 43.7691 68.2188 43.7522 64.5668 43.527C64.3006 43.5106 64.2303 43.8879 64.2585 44.1532C64.4047 45.5283 64.5509 46.9033 64.697 48.2784C64.8074 49.3166 65.043 50.5368 65.9956 50.9641C66.3408 51.1189 66.7298 51.1378 67.1082 51.1418ZM85.8488 137.427C85.6737 137.549 85.5582 137.738 85.4517 137.923C84.8974 138.888 84.4521 139.915 84.1267 140.979C90.5227 140.532 96.9137 140.013 103.298 139.421C103.538 139.399 103.798 139.368 103.97 139.199C104.082 139.09 104.14 138.938 104.194 138.791C104.433 138.142 104.672 137.493 104.91 136.843C105.027 136.527 105.13 136.134 104.903 135.886C104.714 135.68 104.393 135.686 104.114 135.709C98.2766 136.176 92.4424 136.68 86.6115 137.219C86.346 137.244 86.0671 137.273 85.8488 137.427ZM97.1232 98.02C96.9503 96.0021 96.598 93.7372 94.9512 92.5583C94.3085 94.3279 93.6599 96.1243 93.5129 98.0013C93.3659 99.8782 93.7806 101.879 95.0396 103.278C95.2165 103.475 95.4133 103.666 95.5071 103.913C95.6009 104.161 95.5533 104.487 95.3236 104.619C93.6123 103.13 92.9038 100.741 92.9439 98.4731C92.984 96.205 93.6792 94.0059 94.368 91.8445C94.5193 91.3697 94.0863 90.8701 93.6004 90.7594C93.1145 90.6488 92.6127 90.8112 92.1408 90.9716C92.049 91.0028 92.0085 91.1076 91.9795 91.2002C91.6532 92.2399 91.3239 93.3422 91.5766 94.4022C92.6655 98.9692 92.525 103.763 93.6332 108.325C93.6742 108.493 93.7185 108.665 93.8166 108.808C94.5517 107.371 95.2868 105.934 96.0219 104.496C96.3673 103.821 96.7146 103.141 96.9302 102.414C97.3495 101 97.2492 99.4897 97.1232 98.02ZM123.127 64.8694C123.269 64.9865 123.459 65.0234 123.642 65.0439C125.721 65.2764 127.683 63.8615 128.834 62.1151C129.985 60.3687 130.529 58.3054 131.283 56.3546C131.991 54.5238 132.897 52.7694 133.98 51.1319C131.812 53.1659 129.144 54.5902 126.881 56.518C124.619 58.4457 122.693 61.1496 122.853 64.1177C122.867 64.3921 122.915 64.6945 123.127 64.8694ZM39.875 45.1998C40.1705 46.4951 40.0483 47.9345 40.766 49.0526C41.4617 50.1364 42.9292 50.653 44.1504 50.2439C45.3716 49.8347 46.2318 48.5384 46.1341 47.2541C46.1119 46.9623 46.046 46.6757 45.9803 46.3905C45.723 45.2729 45.4657 44.1554 45.2084 43.0379C45.1828 42.9268 45.1542 42.8098 45.0754 42.7273C44.9623 42.6091 44.7813 42.5954 44.6179 42.5891C43.046 42.5289 41.474 42.4687 39.9021 42.4086C39.7509 42.4028 39.5849 42.4016 39.4674 42.4969C39.3186 42.6175 39.3101 42.8391 39.3294 43.0297C39.4049 43.7727 39.7089 44.4716 39.875 45.1998ZM82.4267 46.4081C82.4643 48.1973 83.6299 49.7531 84.8592 51.0535C84.9792 51.1805 85.1023 51.308 85.2523 51.3977C85.4949 51.5427 85.7901 51.577 86.0717 51.5528C87.0214 51.4712 87.8337 50.7531 88.2345 49.8883C88.6354 49.0235 88.6805 48.0343 88.5942 47.0851C88.5079 46.1358 88.2978 45.201 88.213 44.2517C88.196 44.0612 88.1262 43.8127 87.935 43.8134C86.2545 43.8198 84.5739 43.8263 82.8934 43.8327C82.6784 43.8335 82.4506 43.8379 82.269 43.953C82.0874 44.0681 81.9861 44.3368 82.1208 44.5043C82.5322 45.0162 82.4129 45.7515 82.4267 46.4081ZM107.982 101.752C103.377 101.671 99.1566 104.4 95.9361 107.692C95.3933 108.246 94.8632 108.828 94.5019 109.515C94.438 109.637 94.3876 109.806 94.4924 109.895C94.5481 109.942 94.6278 109.945 94.7009 109.945C97.3796 109.936 99.9558 108.804 102.132 107.242C104.309 105.681 106.142 103.699 107.982 101.752ZM51.0099 49.919C51.6677 49.5404 52.091 48.7864 52.0718 48.0277C52.0621 47.6429 51.9484 47.2696 51.8569 46.8957C51.6217 45.9336 51.5302 44.9365 51.5865 43.9477C51.5985 43.7371 51.6165 43.5208 51.5532 43.3195C51.4899 43.1183 51.322 42.9333 51.1113 42.9218C49.3714 42.8268 47.6315 42.7318 45.8916 42.6368C45.829 42.6333 45.7608 42.6315 45.7102 42.6686C45.6319 42.726 45.6363 42.8425 45.6508 42.9386C45.8649 44.3544 46.5501 45.6881 46.594 47.1194C46.6102 47.646 46.5398 48.1857 46.6873 48.6916C46.8761 49.3394 47.4156 49.8507 48.0416 50.1027C48.6675 50.3548 49.3698 50.369 50.0338 50.2493C50.3736 50.188 50.7108 50.0912 51.0099 49.919ZM120.629 69.3028C121.889 69.6583 123.003 70.4015 124.226 70.8704C126.936 71.9098 130.162 71.4758 132.5 69.7571C133.505 69.0191 134.509 68.2811 135.513 67.5431C134.289 67.8329 133.023 67.9439 131.767 67.8715C129.668 67.7505 127.596 67.122 125.5 67.2794C123.716 67.4133 121.982 68.1338 120.629 69.3028ZM84.6461 59.6059C84.3985 58.2339 84.1508 56.8619 83.9031 55.49C83.5712 53.6511 83.2392 51.8123 82.9073 49.9735C82.8837 49.843 82.8552 49.7031 82.7585 49.6124C82.6619 49.5216 82.4733 49.5214 82.4206 49.6431C82.0891 50.4083 81.4103 51.0148 80.6128 51.2584C80.1289 51.4063 80.0874 52.0665 80.1437 52.5694C80.5405 56.1171 81.0102 59.6566 81.5526 63.185C81.7103 61.7419 82.9469 60.4887 84.3878 60.3118C84.6681 60.2774 84.6963 59.8838 84.6461 59.6059ZM58.1735 48.4465C58.0196 46.9674 57.8254 45.4926 57.5912 44.0241C57.5429 43.7212 57.414 43.3437 57.1076 43.3302C55.524 43.2608 53.9404 43.1913 52.3567 43.1218C52.3002 43.1194 52.2407 43.1175 52.1907 43.144C52.0629 43.2118 52.0838 43.3982 52.1214 43.5379C52.4867 44.8939 52.6805 46.2959 52.6969 47.7001C52.7009 48.0456 52.6969 48.4044 52.8415 48.7183C53.0544 49.1802 53.5389 49.4451 53.9994 49.6609C54.802 50.0369 55.6795 50.3675 56.5552 50.2309C57.4309 50.0944 58.2653 49.328 58.1735 48.4465ZM58.8574 48.4547C59.0172 49.2286 59.3099 50.1288 60.0681 50.3513C60.708 50.539 61.3998 50.5908 62.0416 50.4099C62.6834 50.229 63.2686 49.7981 63.5558 49.1963C63.7602 48.7679 63.8063 48.2831 63.833 47.8092C63.9059 46.511 63.8558 45.2058 63.6833 43.9171C63.6741 43.8481 63.6639 43.7771 63.629 43.7169C63.5366 43.5569 63.3188 43.5344 63.1341 43.5304C61.5215 43.4953 59.909 43.4601 58.2964 43.425C58.1647 43.4221 57.9807 43.5591 58.0921 43.6294C58.2726 45.2485 58.528 46.8592 58.8574 48.4547ZM113.044 64.4703C111.784 67.3183 111.413 70.552 111.995 73.6113C112.228 74.8335 112.685 76.1304 113.743 76.785C114.054 76.9776 114.573 77.0345 114.688 76.687C116.026 72.6495 115.402 68.0102 113.044 64.4703ZM31.3927 100.228C31.9271 100.595 32.5295 100.862 33.16 101.012C33.9566 101.202 34.784 101.204 35.6028 101.224C37.516 101.27 39.4267 101.417 41.3246 101.663C41.5894 101.697 41.8082 101.411 41.8012 101.144C41.7942 100.877 41.6319 100.641 41.4636 100.434C40.4514 99.187 38.9732 98.3276 37.3888 98.0648C36.2665 97.8787 35.1188 97.983 33.9816 97.9503C32.8443 97.9176 31.6573 97.725 30.7504 97.038C30.7024 97.6913 30.6985 98.3478 30.7389 99.0016C30.7553 99.2662 30.782 99.5406 30.9169 99.7689C31.0299 99.9602 31.2095 100.102 31.3927 100.228ZM77.4221 49.4845C77.6007 49.8084 77.8873 50.058 78.1809 50.283C78.4991 50.5268 78.8428 50.755 79.2334 50.8445C80.1955 51.0648 81.1792 50.352 81.5847 49.4521C81.9901 48.5523 81.949 47.5208 81.8552 46.5383C81.7842 45.7955 81.6876 45.0551 81.5654 44.3189C81.5451 44.1962 81.5215 44.0678 81.4444 43.9702C81.309 43.799 81.0611 43.7791 80.8429 43.7733C79.6701 43.7421 78.4972 43.711 77.3244 43.6798C77.0647 43.6729 76.6958 43.7971 76.7729 44.0452C77.1181 45.1557 77.2686 46.3264 77.2156 47.488C77.1846 48.1659 77.0945 48.8902 77.4221 49.4845ZM118.928 70.1032C120.174 68.0937 120.546 65.5636 119.934 63.2804C119.392 61.2617 118.132 59.4735 117.733 57.4218C116.802 60.2457 115.865 63.2853 116.707 66.1369C117.139 67.5983 118.01 68.8871 118.928 70.1032ZM98.2993 101.718C102.003 100.764 105.421 98.7306 108.027 95.9313C108.807 95.0938 109.605 94.2734 110.421 93.471C108.422 93.7449 106.471 94.363 104.679 95.2898C101.946 96.7037 99.5475 98.9052 98.2993 101.718ZM120.864 77.1359C122.226 75.8557 123.588 74.5756 124.95 73.2954C120.343 73.8826 116.041 76.5443 113.46 80.4046C114.125 80.917 115.08 80.6152 115.856 80.2943C116.936 79.8479 118.024 79.3965 118.985 78.7324C119.662 78.2648 120.264 77.6992 120.864 77.1359ZM31.2749 105.114C31.2864 105.232 31.3004 105.357 31.3721 105.452C31.5288 105.659 31.8485 105.608 32.0982 105.535C34.9566 104.7 37.7749 103.728 40.5401 102.622C40.7395 102.543 40.972 102.416 40.976 102.202C38.8547 102.055 36.7333 101.908 34.612 101.76C34.0931 101.724 33.5722 101.688 33.0636 101.58C32.2984 101.416 31.5688 101.088 30.9388 100.624C30.985 102.125 31.13 103.62 31.2749 105.114ZM98.2873 90.7604C98.1161 90.8842 98.047 91.1021 97.9881 91.305C97.7862 92.0008 97.5833 92.7391 97.7708 93.439C97.8663 93.7956 98.0582 94.1177 98.2477 94.4346C98.772 95.311 99.2963 96.1874 99.8207 97.0638C99.8695 97.1454 99.9224 97.2309 100.007 97.2751C100.257 97.4066 100.504 97.0977 100.62 96.8399C101.375 95.1661 102.147 93.3963 101.976 91.5683C101.949 91.2872 101.873 90.9682 101.622 90.8393C101.506 90.7802 101.372 90.7726 101.243 90.7662C100.466 90.7275 99.6883 90.6889 98.9109 90.6503C98.6958 90.6397 98.4619 90.6342 98.2873 90.7604ZM110.168 84.5639C110.148 85.742 111.175 86.727 112.303 87.0699C113.43 87.4128 114.639 87.2651 115.811 87.1394C117.871 86.9182 120.049 86.7359 121.743 85.5423C122.118 85.2775 122.474 84.9507 122.641 84.5228C122.903 83.8551 122.64 83.0667 122.148 82.5451C121.656 82.0234 120.973 81.7251 120.29 81.5065C117.85 80.7251 115.14 80.8152 112.756 81.7567C111.499 82.2535 110.19 83.2122 110.168 84.5639ZM31.0803 96.5978C31.3022 96.8048 31.752 96.8577 31.8385 96.5668C32.1349 95.5702 32.8013 94.7157 33.5863 94.0339C34.3713 93.3521 35.2764 92.8256 36.1755 92.3033C36.418 92.1624 36.4027 91.8131 36.3558 91.5366C36.2651 91.001 36.1743 90.4654 36.0835 89.9298C36.0605 89.7941 36.0151 89.6322 35.8823 89.5959C35.7736 89.5662 35.6663 89.6397 35.5775 89.7091C34.9325 90.2127 34.2875 90.7164 33.6425 91.2201C32.3502 92.2292 30.9652 93.3871 30.685 95.0026C30.5873 95.5655 30.6627 96.2081 31.0803 96.5978ZM36.1126 92.9924C34.6641 93.897 33.1308 94.8985 32.4726 96.4744C32.4316 96.5725 32.3938 96.6755 32.397 96.7818C32.4033 96.9914 32.5723 97.1682 32.7659 97.2487C32.9596 97.3292 33.1754 97.3329 33.3851 97.3354C34.6251 97.35 35.8651 97.3646 37.1051 97.3792C37.1654 97.3799 37.2309 97.379 37.2785 97.3419C37.3537 97.2832 37.346 97.1693 37.3311 97.075C37.1333 95.825 36.9355 94.5749 36.7377 93.3249C36.7096 93.147 36.6522 92.9343 36.4787 92.8859C36.3524 92.8506 36.2238 92.9229 36.1126 92.9924ZM97.7198 90.8374C96.8068 90.6019 95.822 90.6532 94.9385 90.9825C95.1096 91.5439 95.4128 92.0647 95.8167 92.4905C97.1779 93.9256 97.5804 96.0093 97.7349 97.9812C97.8174 99.0345 97.8465 100.092 97.822 101.148C98.42 100.226 99.0179 99.3034 99.6158 98.381C99.6752 98.2893 99.7365 98.1922 99.743 98.0831C99.7495 97.9739 99.7 97.87 99.6497 97.7729C99.0596 96.6336 98.1927 95.651 97.6452 94.4906C97.0978 93.3302 96.93 91.8486 97.7198 90.8374ZM36.5516 42.555C36.048 42.6349 35.4738 42.7629 35.2346 43.2132C35.0692 43.5245 35.118 43.9012 35.1711 44.2496C35.39 45.6848 35.6089 47.12 35.8277 48.5552C36.9477 46.5412 37.9965 44.4886 39.0449 42.4365C38.8509 42.2171 38.507 42.2448 38.2177 42.2907C37.6623 42.3788 37.1069 42.4669 36.5516 42.555ZM105.488 91.2864C105.644 91.4921 106.048 91.2644 105.953 91.025C107.449 91.4544 109.08 91.1488 110.493 90.4962C111.905 89.8437 113.139 88.866 114.353 87.8923C113.843 87.8211 113.333 87.7498 112.823 87.6786C112.719 87.6641 112.584 87.6661 112.545 87.7633C112.27 88.4353 111.679 88.9388 111.026 89.2567C110.374 89.5745 109.656 89.7285 108.946 89.8798C108.453 89.9847 107.96 90.0897 107.467 90.1947C106.704 90.3573 105.843 90.5914 105.488 91.2864ZM78.4272 80.879C78.523 80.8547 78.6258 80.8259 78.6871 80.7484C78.7822 80.628 78.7347 80.455 78.7097 80.3037C78.6848 80.1523 78.7231 79.9509 78.8742 79.9246C79.012 79.952 79.0755 80.1154 79.0789 80.2559C79.0823 80.3963 79.0514 80.5427 79.1021 80.6737C79.2151 80.9653 79.6176 80.9767 79.9278 80.9372C80.1113 80.9138 80.2949 80.8904 80.4784 80.867C80.5359 80.8597 80.5974 80.8506 80.6401 80.8115C80.7759 80.6871 80.587 80.4841 80.5449 80.3048C80.5125 80.1663 80.5772 80.0165 80.5348 79.8807C80.4625 79.6494 80.1548 79.614 79.9126 79.622C78.0599 79.6835 76.2073 79.7449 74.3546 79.8064C74.3864 80.157 74.4823 80.5017 74.6362 80.8183C74.6694 80.8865 74.7085 80.9569 74.7743 80.9947C74.841 81.033 74.9227 81.0305 74.9997 81.0269C75.4602 81.0055 75.9207 80.9841 76.3813 80.9627C76.4204 80.9609 76.4617 80.9584 76.4944 80.9368C76.5784 80.8813 76.5493 80.753 76.5107 80.66C76.4442 80.4998 76.3777 80.3396 76.3112 80.1794C76.2533 80.0401 76.5056 79.9575 76.6118 80.0647C76.718 80.1719 76.7219 80.34 76.7719 80.4823C76.8759 80.7777 77.1899 80.958 77.5008 80.9959C77.8116 81.0339 78.1237 80.9561 78.4272 80.879ZM105.333 90.6866C105.434 90.579 105.211 90.4668 105.065 90.4847C104.231 90.587 103.397 90.6893 102.562 90.7916C102.451 90.8053 102.303 90.8665 102.33 90.9756C102.604 92.0981 102.501 93.3093 102.042 94.3695C101.954 94.5714 101.897 94.8798 102.106 94.9475C102.976 93.386 104.066 91.9471 105.333 90.6866ZM76.9083 81.7258C76.8822 81.6352 76.8527 81.54 76.7837 81.4757C76.7053 81.4027 76.592 81.3841 76.4856 81.3724C75.939 81.3126 75.3819 81.3501 74.8482 81.4828C75.0152 82.0242 75.1821 82.5657 75.3491 83.1072C75.3807 83.2098 75.4233 83.3249 75.5229 83.3651C75.5738 83.3857 75.6309 83.3822 75.6857 83.3784C76.2253 83.3405 76.765 83.3027 77.3047 83.2648C77.1875 82.7481 77.0553 82.2348 76.9083 81.7258ZM73.3945 83.6192C73.4545 83.652 73.5278 83.6419 73.5953 83.6309C74.0839 83.5513 74.5725 83.4716 75.061 83.392C74.8847 82.827 74.7084 82.262 74.5321 81.697C74.5062 81.6141 74.474 81.5232 74.3977 81.4819C74.3372 81.4492 74.2639 81.4563 74.1956 81.4642C73.76 81.5148 73.3244 81.5655 72.8888 81.6161C72.8069 81.6256 72.7099 81.6461 72.6795 81.7228C72.6589 81.7749 72.6784 81.8333 72.6979 81.8858C72.8898 82.4037 73.0817 82.9216 73.2736 83.4394C73.2992 83.5087 73.3297 83.5837 73.3945 83.6192ZM78.8841 81.3621C78.7808 81.2723 78.628 81.2785 78.4916 81.2897C78.0613 81.3251 77.631 81.3605 77.2008 81.3959C77.3293 81.9472 77.4913 82.4908 77.6853 83.0227C77.7108 83.0925 77.7396 83.1659 77.7988 83.2106C77.8728 83.2665 77.9741 83.2634 78.0666 83.2578C78.3604 83.2401 78.6541 83.2224 78.9478 83.2047C79.0831 83.1965 79.2476 83.1677 79.2929 83.0399C79.3147 82.9786 79.3007 82.9109 79.2864 82.8474C79.1971 82.4495 79.1077 82.0515 79.0184 81.6536C78.9945 81.5473 78.9663 81.4335 78.8841 81.3621ZM76.3165 85.3234C76.2739 85.33 76.2286 85.3381 76.1976 85.3679C76.1372 85.4261 76.1648 85.5263 76.1966 85.6039C76.3096 85.8806 76.4227 86.1572 76.5357 86.4339C76.5777 86.5365 76.6249 86.6456 76.7185 86.705C76.8051 86.7599 76.9139 86.761 77.0164 86.7604C77.4068 86.758 77.7973 86.7557 78.1877 86.7534C78.2448 86.7531 78.3069 86.751 78.3509 86.7146C78.4307 86.6486 78.401 86.5218 78.3642 86.425C78.214 86.0291 78.0638 85.6331 77.9136 85.2372C77.8654 85.11 77.6886 85.1083 77.5543 85.1293C77.1417 85.194 76.7291 85.2587 76.3165 85.3234ZM79.6025 81.2837C79.5204 81.284 79.4281 81.2886 79.3728 81.3492C79.306 81.4224 79.3272 81.5369 79.3525 81.6327C79.4635 82.0523 79.5745 82.4719 79.6855 82.8916C79.705 82.9654 79.7277 83.0443 79.7869 83.0925C79.8656 83.1565 79.9793 83.1446 80.0796 83.1293C80.4497 83.0727 80.8198 83.0162 81.19 82.9596C81.1503 82.5301 81.082 82.1032 80.9859 81.6827C80.9559 81.5513 80.9143 81.4077 80.8005 81.3354C80.7153 81.2814 80.6081 81.28 80.5072 81.2804C80.2056 81.2815 79.9041 81.2826 79.6025 81.2837ZM80.3554 86.704C80.2355 86.2684 80.1155 85.8328 79.9956 85.3972C79.9497 85.2308 79.8848 85.0423 79.724 84.9796C79.6448 84.9487 79.5565 84.9556 79.4718 84.9629C79.0768 84.9973 78.6818 85.0316 78.2869 85.066C78.391 85.4561 78.5143 85.8411 78.6562 86.2192C78.7276 86.4095 78.836 86.6253 79.0367 86.6578C79.472 86.7282 79.9162 86.7438 80.3554 86.704ZM81.0429 86.6738C81.4009 86.703 81.7939 86.7229 82.0833 86.5101C81.9578 86.0221 81.8323 85.5341 81.7068 85.0461C81.6786 84.9363 81.6408 84.8139 81.5401 84.7617C81.4662 84.7233 81.3775 84.7338 81.295 84.7453C80.9402 84.7946 80.5855 84.844 80.2308 84.8934C80.3151 85.4099 80.4582 85.9169 80.6565 86.4012C80.6869 86.4755 80.7212 86.5527 80.7849 86.6017C80.8567 86.657 80.9526 86.6664 81.0429 86.6738ZM112.947 79.7277C113.22 79.1664 113.494 78.6052 113.767 78.0439C113.796 77.9849 113.825 77.9212 113.815 77.8564C113.805 77.7933 113.759 77.7429 113.715 77.6965C113.326 77.285 112.936 76.8734 112.547 76.4618C112.385 76.6827 112.404 76.983 112.43 77.2556C112.515 78.1503 112.599 79.045 112.684 79.9398C112.803 79.9662 112.893 79.8373 112.947 79.7277ZM81.4367 81.2189C81.3856 81.2154 81.3274 81.2144 81.2917 81.2511C81.2516 81.2923 81.2606 81.3589 81.2722 81.4152C81.3492 81.7867 81.4262 82.1582 81.5033 82.5297C81.5318 82.6674 81.5656 82.8146 81.6695 82.9094C82.0057 83.2159 82.6534 82.6886 82.9659 83.0193C83.0209 82.4918 82.9814 81.9546 82.8498 81.4408C82.8405 81.4047 82.8296 81.3666 82.8018 81.3416C82.7699 81.3128 82.7235 81.3084 82.6805 81.3055C82.2659 81.2766 81.8513 81.2478 81.4367 81.2189ZM73.7011 83.9742C73.6564 83.9803 73.6096 83.9871 73.5728 84.0132C73.4909 84.0713 73.4941 84.1916 73.5059 84.2912C73.5372 84.5569 73.5716 84.8319 73.7106 85.0605C73.8496 85.2892 74.1242 85.4585 74.3826 85.3892C74.7528 85.2899 75.1231 85.1906 75.4934 85.0913C75.4773 84.7374 75.4057 84.3861 75.2819 84.0543C75.251 83.9714 75.2121 83.8842 75.1359 83.8393C75.0569 83.7928 74.9581 83.8037 74.8673 83.816C74.4786 83.8687 74.0899 83.9215 73.7011 83.9742ZM82.3373 80.8692C82.4488 80.8522 82.5675 80.832 82.6503 80.7554C82.8969 80.5276 82.615 80.0646 82.8149 79.7949C82.893 79.6896 82.7018 79.5954 82.5708 79.6009C81.986 79.6256 81.4012 79.6503 80.8164 79.6749C80.839 79.9169 80.881 80.1571 80.9419 80.3923C81.0098 80.6545 81.2655 80.834 81.53 80.8921C81.7945 80.9503 82.0695 80.9098 82.3373 80.8692ZM77.6098 84.0195C77.5345 83.6577 77.0502 83.5731 76.6869 83.6408C76.3236 83.7085 75.9178 83.8398 75.6091 83.6366C75.6287 84.0186 75.7179 84.3969 75.8711 84.7474C75.9032 84.821 75.9422 84.8978 76.0121 84.9373C76.091 84.9818 76.1887 84.9677 76.278 84.9523C76.6361 84.8904 76.9942 84.8286 77.3523 84.7667C77.5298 84.7361 77.7638 84.5956 77.6704 84.4416C77.596 84.3188 77.6391 84.16 77.6098 84.0195ZM75.3979 85.5047C75.1053 85.5542 74.8127 85.6038 74.5201 85.6533C74.3616 85.6802 74.1665 85.7437 74.1495 85.9035C74.1068 86.3074 74.5093 86.6332 74.9074 86.7137C75.3055 86.7941 75.7188 86.7154 76.123 86.7553C76.1064 86.4119 76.0345 86.0713 75.9111 85.7504C75.8817 85.6741 75.8468 85.5954 75.782 85.5454C75.6769 85.4643 75.5288 85.4825 75.3979 85.5047ZM83.1094 84.721C82.7211 84.6798 82.3263 84.7004 81.9444 84.7818C82.1555 85.2844 82.3054 85.8127 82.3897 86.3513C82.4284 86.5982 82.7811 86.603 83.0232 86.5413C83.1135 86.5182 83.2121 86.4896 83.2637 86.4119C83.3081 86.345 83.306 86.2586 83.3022 86.1784C83.2815 85.7349 83.2607 85.2914 83.24 84.8479C83.2386 84.8199 83.2368 84.7902 83.2207 84.7673C83.1969 84.7333 83.1507 84.7254 83.1094 84.721ZM76.7685 88.6944C77.1346 88.329 76.9469 87.5912 76.4507 87.4452C75.9545 87.2992 75.3971 87.8177 75.5069 88.3232C75.6205 88.8458 76.3899 89.0722 76.7685 88.6944ZM79.6466 84.4105C79.8795 84.1065 79.5309 83.6577 79.1536 83.5916C78.7764 83.5255 78.394 83.6701 78.011 83.6644C77.8699 83.6623 77.8641 83.8746 77.9099 84.0081C77.9692 84.1807 78.0285 84.3534 78.0878 84.526C78.1121 84.5966 78.1561 84.6814 78.2306 84.6767C78.5037 84.6596 78.7768 84.6425 79.0498 84.6254C79.2678 84.6117 79.5138 84.5839 79.6466 84.4105ZM83.4209 87.3456C83.3927 87.2692 83.351 87.1947 83.2852 87.1467C83.2261 87.1037 83.1525 87.0855 83.0799 87.0768C82.5068 87.0077 81.9505 87.5794 82.0351 88.1504C82.2791 88.4403 82.7384 88.5204 83.0661 88.3301C83.3937 88.1398 83.5518 87.7011 83.4209 87.3456ZM79.883 83.8932C79.8704 84.1443 80.0913 84.3588 80.3334 84.4266C80.5755 84.4943 80.8331 84.4505 81.0806 84.4064C81.2073 84.3838 81.3494 84.3511 81.4157 84.2408C81.5573 84.0056 81.2764 83.5742 81.5357 83.484C81.3617 83.4601 81.1877 83.4362 81.0137 83.4123C80.7839 83.3807 80.5463 83.3497 80.3233 83.4132C80.1003 83.4768 79.8945 83.6617 79.883 83.8932ZM81.9632 84.2146C82.2268 84.4438 82.6681 84.4122 82.9131 84.1631C83.158 83.9141 83.1899 83.4921 83.0052 83.1956C82.5439 83.2812 82.0825 83.3667 81.6211 83.4523C81.6793 83.73 81.7491 84.0284 81.9632 84.2146ZM117.614 79.8048C117.254 79.9379 116.895 80.071 116.536 80.2041C116.357 80.2703 116.176 80.3376 116.022 80.4486C116.609 80.6779 117.35 80.3782 117.614 79.8048ZM84.2205 51.2902C84.2111 51.1315 84.0432 51.0018 83.8872 51.0328C83.8972 51.1942 84.0583 51.33 84.2192 51.3126L84.2205 51.2902Z" fill="#00160A"/>
</g>
</svg>
