<svg width="21" height="21" viewBox="0 0 21 21" fill="none" xmlns="http://www.w3.org/2000/svg">
<path d="M10.5 0C4.70085 0 0 4.70082 0 10.4999C0 16.299 4.70085 20.9999 10.5 20.9999C16.2991 20.9999 21 16.299 21 10.4999C21 4.70082 16.2991 0 10.5 0Z" fill="url(#paint0_linear)"/>
<path d="M11.9217 13.2831H14.6391L15.0659 10.5226H11.9217V9.01379C11.9217 7.8672 12.2966 6.85028 13.3691 6.85028H15.0927V4.4416C14.7898 4.40065 14.1493 4.3114 12.9392 4.3114C10.4118 4.3114 8.93026 5.64594 8.93026 8.68672V10.5232H6.33203V13.2836H8.92973V20.8708C9.44423 20.9475 9.96556 21 10.5005 21C10.9841 21 11.456 20.9559 11.9217 20.8929V13.2831Z" fill="white"/>
<defs>
<linearGradient id="paint0_linear" x1="3.14632" y1="3.1463" x2="19.2228" y2="19.2229" gradientUnits="userSpaceOnUse">
<stop stop-color="#2AA4F4"/>
<stop offset="1" stop-color="#007AD9"/>
</linearGradient>
</defs>
</svg>
