<svg width="21" height="21" viewBox="0 0 21 21" fill="none" xmlns="http://www.w3.org/2000/svg">
<g clip-path="url(#clip0)">
<path d="M21.0002 10.7411C21.0002 10.0273 20.9411 9.30973 20.8152 8.60754H10.7108V12.6509H16.4971C16.257 13.955 15.4854 15.1086 14.3557 15.8416V18.4652H17.8078C19.835 16.6364 21.0002 13.9357 21.0002 10.7411Z" fill="#4285F4"/>
<path d="M10.7109 21C13.6001 21 16.0367 20.0702 17.8119 18.4652L14.3598 15.8416C13.3994 16.4821 12.1594 16.8447 10.7148 16.8447C7.92007 16.8447 5.55044 14.9967 4.7002 12.512H1.13788V15.2166C2.95644 18.7623 6.66047 21 10.7109 21Z" fill="#34A853"/>
<path d="M4.69617 12.512C4.24743 11.208 4.24743 9.79587 4.69617 8.49181V5.78723H1.13778C-0.38162 8.75416 -0.38162 12.2497 1.13778 15.2166L4.69617 12.512Z" fill="#FBBC04"/>
<path d="M10.7109 4.15522C12.2382 4.13207 13.7143 4.69536 14.8204 5.72935L17.8788 2.73156C15.9422 0.949084 13.3718 -0.0308902 10.7109 -2.48392e-05C6.66047 -2.48392e-05 2.95644 2.23771 1.13788 5.78722L4.69627 8.4918C5.54256 6.00328 7.91614 4.15522 10.7109 4.15522Z" fill="#EA4335"/>
</g>
<defs>
<clipPath id="clip0">
<rect width="21" height="21" fill="white"/>
</clipPath>
</defs>
</svg>
