<svg width="198" height="198" viewBox="0 0 198 198" fill="none" xmlns="http://www.w3.org/2000/svg">
<path d="M54.6481 77.748L54.9121 77.7639L54.6481 77.748Z" fill="black"/>
<path d="M76.5231 37.0287L76.0769 37.2042C76.4135 37.1765 76.6432 37.125 76.5231 37.0287Z" fill="black"/>
<path d="M171.704 140.81C169.545 141.548 164.684 140.778 159.756 140.942C159.85 140.869 159.949 140.805 160.054 140.749C164.278 138.505 163.45 136.744 161.292 137.845C159.736 138.637 159.056 140.164 158.867 140.699C158.89 140.61 158.919 140.489 158.954 140.329C160.297 134.087 154.415 134.653 157.634 139.908C157.89 140.327 157.995 140.804 158.162 141.012C155.893 141.043 155.501 140.143 152.86 141.471C152.596 141.017 152.255 140.333 151.892 139.642L153.693 138.69C153.859 138.34 152.338 135.234 149.99 130.838C149.99 130.838 147.943 127.098 145.106 122.06H153.739V118.72H143.219C138.95 111.196 133.703 102.209 130.746 98.0905C129.285 96.0538 126.151 95.2235 120.74 95.2327C116.431 95.242 107.445 95.2869 98.4323 95.3529C96.1883 90.0729 93.6618 83.7501 93.5232 83.4029L93.9021 83.5547V83.5375C94.1199 83.6695 94.6531 83.9586 96.9381 84.7044C120.892 92.532 111.286 74.052 99.6441 66.8514C95.1891 64.0966 85.9781 56.1079 79.6804 56.3112V55.4862C79.679 55.3025 79.6049 55.1269 79.4742 54.9977C79.3436 54.8686 79.1671 54.7965 78.9834 54.7972L75.4036 54.8157C75.397 54.3246 75.3231 53.8573 75.3072 53.3901C75.2848 52.7301 75.2531 51.9539 75.9369 51.3388C77.5064 49.9264 78.4449 48.4533 78.1809 45.808C77.9433 43.4531 76.5863 40.1148 75.9817 37.2438L76.0834 37.2042L75.9751 37.2121C75.9646 37.1646 75.9527 37.1158 75.9435 37.0696C74.5495 30.1317 62.0835 31.0398 63.6794 39.3136C63.7124 39.4812 63.8351 40.3234 64.0186 41.4467C63.9139 41.5259 63.8259 41.625 63.7596 41.7382C63.6932 41.8515 63.6498 41.9767 63.6318 42.1067L64.0978 41.9232C64.3314 43.3224 64.6443 45.0345 64.9862 46.4271C65.2581 47.5372 65.988 48.7318 66.2797 49.1106C67.378 50.5362 67.4479 53.2686 67.5377 54.8579L63.5909 54.8777C63.4072 54.8791 63.2316 54.9532 63.1024 55.0839C62.9733 55.2145 62.9012 55.391 62.9019 55.5747V55.6473C59.1121 54.8922 55.197 57.8913 51.274 61.2269C48.6749 63.4366 45.1426 65.9274 43.651 67.2844C37.5605 72.8284 30.2451 81.0243 36.391 85.7881C39.2593 88.0123 43.3355 89.0155 47.5754 89.4657C54.141 89.5396 63.3995 89.661 63.3995 89.661L65.1934 97.4253C65.1934 97.4253 63.6556 114.595 80.4367 118.72H34.5654V122.062H109.032C110.498 131.405 110.671 141.701 110.671 151.234C110.671 151.26 111.442 151.203 112.624 151.102C112.601 151.696 112.583 152.361 112.584 152.935C111.792 152.979 111.1 153.024 111.104 153.059C111.236 154.352 110.781 164.872 111.529 165.009C112.717 165.227 118.248 165.618 118.726 164.732C118.822 164.554 119.164 162.129 119.848 161.617C120.062 161.456 120.31 161.485 120.595 161.827C120.838 162.12 121.107 163.555 121.406 164.291C122.27 166.434 136.704 165.033 139.218 165.022C139.866 165.022 142.009 162.406 138.015 161.051C135.243 160.108 133.301 159.448 131.857 158.871L129.096 157.934C127.936 157.539 126.928 156.794 126.211 155.8C125.494 154.807 125.104 153.615 125.095 152.39L124.831 122.055H125.352L141.825 143.454C142.391 144.114 142.718 144.493 142.718 144.493L144.154 143.734C144.714 144.467 145.329 145.349 145.783 145.978C145.457 146.19 145.234 146.344 145.255 146.362C146.101 147.364 151.723 156.215 152.408 155.991C153.501 155.635 158.216 153.463 158.107 152.519C158.07 152.22 155.718 147.584 159.637 150.374C161.561 151.745 172.907 144.664 174.949 143.521C175.47 143.237 175.49 139.516 171.704 140.81ZM61.1793 77.88H61.1489H61.1106H61.0644H61.0327C60.9139 77.8708 60.7687 77.8615 60.5958 77.8523H60.4414C59.9266 77.8312 59.2442 77.818 58.501 77.8101H58.4337H57.9334H57.6984H56.9711H56.3837H56.0299H55.4822H54.6756H53.9853H53.7675C53.5906 77.8101 53.4467 77.8101 53.3451 77.8021C53.2236 77.8021 53.1589 77.7929 53.1669 77.7863L53.2012 77.7573C53.749 77.7678 54.24 77.781 54.6453 77.8021L53.2474 77.7203C54.508 76.6999 60.2434 73.0699 60.2553 72.2687L61.3707 77.9751C61.3147 77.9295 61.2493 77.8971 61.1793 77.88ZM107.58 113.75C107.703 114.921 107.976 116.39 108.352 118.256C108.384 118.409 108.413 118.565 108.443 118.72H90.8159C96.3097 117.788 102.145 115.79 107.58 113.75ZM159.263 140.96H159.34H159.263Z" fill="black"/>
<path d="M143.427 89.496L143.691 85.4409C144.547 85.8145 145.508 86.1854 146.595 86.5563C149.457 87.5318 154.383 88.6894 154.938 88.8822C157.722 89.8524 153.776 84.7374 152.811 82.4894C151.189 78.7076 145.174 71.3605 144.635 65.9762C144.143 61.0605 138.201 60.1946 137.301 64.6456C136.377 65.4284 135.229 66.726 135.992 66.726C136.256 66.726 136.728 66.7418 137.236 66.726C137.236 66.7444 137.236 66.7616 137.236 66.7788C138.232 75.4908 134.904 80.1306 140.993 84.0325C141.125 86.1075 141.441 89.4577 141.441 89.4577L141.035 84.0589C141.879 84.5836 142.762 85.0434 143.675 85.4343C143.566 86.7609 143.525 87.8512 143.443 89.2834L143.427 89.496Z" fill="black"/>
<path d="M153.78 162.602H154.321V155.496C154.134 155.584 153.953 155.666 153.78 155.744V162.602Z" fill="white"/>
<path d="M92.2879 118.719C91.7951 118.817 91.3054 118.907 90.8187 118.99C90.2027 119.094 89.5898 119.182 88.98 119.254H108.268C108.251 119.163 108.232 119.073 108.215 118.99C108.198 118.907 108.179 118.809 108.161 118.719H92.2879Z" fill="white"/>
<path d="M121.919 150.586L121.646 150.607L121.382 150.628C119.621 150.76 117.447 150.956 115.521 151.124L112.881 151.354L112.617 151.376L112.353 151.399C112.339 151.821 112.327 152.263 112.325 152.68L112.589 152.665L112.853 152.65L113.545 152.614C114.109 152.585 114.641 152.559 114.782 152.543C116.134 152.402 118.23 152.306 119.761 152.237C120.343 152.21 120.846 152.187 121.167 152.168L121.452 152.151L121.723 152.139L121.987 152.129C121.987 152.08 121.987 152.032 121.987 151.981C121.979 151.787 121.969 151.57 121.96 151.331C121.946 151.059 121.934 150.813 121.919 150.586Z" fill="white"/>
<path d="M147.007 144.894C147.449 144.615 147.866 144.353 147.972 144.277C149.978 142.848 151.404 141.933 152.497 141.36L152.737 141.236C152.82 141.194 152.901 141.156 152.98 141.117C152.827 140.836 152.65 140.496 152.468 140.144L152.266 139.756L152.027 139.888L151.787 140.02L144.566 143.84L144.323 143.972L144.082 144.104C144.478 144.623 144.874 145.197 145.228 145.688L145.403 145.935C145.468 145.892 145.535 145.842 145.629 145.786L145.857 145.638C146.137 145.44 146.511 145.2 147.007 144.894Z" fill="white"/>
<path d="M112.629 150.83L112.893 150.807L115.463 150.586C117.389 150.417 119.555 150.228 121.328 150.089L121.592 150.07L121.866 150.048C123.07 149.957 124.031 149.898 124.506 149.897C124.98 148.471 124.803 135.188 124.685 126.329C124.665 124.809 124.645 123.371 124.629 122.062C124.629 121.971 124.629 121.88 124.629 121.791C124.629 121.703 124.629 121.61 124.629 121.527V121.395C124.629 121.103 124.626 120.819 124.62 120.542C124.609 120.121 124.591 119.695 124.563 119.267L124.543 119.003C124.543 118.914 124.53 118.822 124.522 118.733C124.228 115.207 123.291 111.697 121.354 110.417C120.447 109.819 119.374 109.782 118.157 110.306L118.125 110.319H118.091C117.088 110.472 114.3 111.47 113.108 111.929L111.978 112.364C110.646 112.879 109.27 113.409 107.864 113.938C107.996 115.054 108.252 116.446 108.611 118.211C108.647 118.383 108.68 118.556 108.713 118.729C108.731 118.819 108.748 118.908 108.767 118.999L108.818 119.263C108.961 120.009 109.091 120.763 109.214 121.523L109.258 121.787L109.301 122.058C110.782 131.509 110.933 141.822 110.935 150.957C111.219 150.941 111.727 150.901 112.36 150.848L112.629 150.83Z" fill="white"/>
<path d="M151.536 139.531L151.776 139.399L152.014 139.273L153.436 138.521C153.359 138.225 153.256 137.937 153.128 137.66C153.062 137.506 152.984 137.326 152.89 137.119C152.126 135.435 150.343 131.902 146.234 124.504C145.79 123.704 145.333 122.885 144.869 122.056L144.717 121.786L144.565 121.522C144.146 120.776 143.722 120.022 143.291 119.262L143.138 118.998L142.985 118.727C139.792 113.092 136.393 107.234 133.687 102.722C133.547 102.487 133.409 102.254 133.273 102.021C132.562 100.818 131.885 99.6705 130.951 98.6832C130.798 98.5208 130.635 98.3624 130.466 98.2093C128.683 96.5923 125.978 95.5112 120.83 95.5112H120.759C116.425 95.5204 107.682 95.564 98.8588 95.6274H98.5645H98.2701C94.0289 95.6577 89.7917 95.6947 86.0403 95.7343L86.0561 95.4703L86.0641 95.3383H85.9466L85.903 95.2063C85.639 94.4248 85.3367 93.5787 85.0252 92.6877C83.8372 89.2927 82.4869 85.4449 81.7252 82.6702C81.5589 82.067 80.9227 80.2612 80.2402 78.3604L93.3241 83.6101C93.7095 84.575 95.9641 90.1982 98.0325 95.0848H98.3269H98.6212C96.7587 90.7064 94.7219 85.6468 94.0263 83.911C94.3853 84.0892 95.1245 84.3968 96.8669 84.967C107.315 88.3819 110.678 86.5761 111.66 84.4602C112.601 82.434 111.701 79.1934 109.192 75.5673C106.829 72.1419 103.311 68.7984 99.7921 66.6204C98.7677 65.9881 97.5045 65.0865 96.0419 64.0424C92.9861 61.8604 89.1845 59.1465 85.5704 57.5097C83.4109 56.5303 81.547 56.0379 79.9551 56.0287V55.4848C79.9533 55.2303 79.8511 54.9868 79.6706 54.8073C79.4901 54.6278 79.246 54.5269 78.9915 54.5265L75.6743 54.5437C75.6638 54.3589 75.6479 54.1794 75.6321 54.0038C75.6123 53.7886 75.5938 53.5854 75.5872 53.3808V53.3676C75.5648 52.7287 75.541 52.0674 76.1271 51.5394C77.7309 50.0979 78.7394 48.5667 78.4569 45.7802C78.3249 44.4048 77.8167 42.7442 77.2861 40.9846C76.931 39.8059 76.5653 38.5915 76.3092 37.4536C76.2327 37.4629 76.1429 37.4721 76.0452 37.48C75.9634 37.48 75.8723 37.4906 75.7707 37.4946C75.5212 37.5038 75.2097 37.5078 74.8203 37.5064H74.2184C72.8707 37.5064 70.0643 37.4893 69.3225 37.6384C69.2367 37.6556 69.139 37.6688 69.0255 37.6833C68.0421 37.8153 67.1775 38.0569 67.3016 39.5604C67.3742 40.3972 67.2699 40.9081 66.9636 41.2183C66.5782 41.6143 65.9869 41.5628 65.3018 41.5113C65.1896 41.5034 65.0747 41.4942 64.9559 41.4876C64.7424 41.4674 64.5272 41.4996 64.3289 41.5813C64.2354 41.6249 64.1521 41.6879 64.0847 41.7661C63.9932 41.8772 63.9331 42.0107 63.9105 42.1528L63.8748 42.1462C64.1058 43.5151 64.4029 45.1506 64.7355 46.4904C65.0193 47.644 65.7625 48.8664 66.0793 49.2742C67.0508 50.5362 67.1775 52.9386 67.2673 54.5278C67.2673 54.549 67.2673 54.5674 67.2673 54.5872L63.6056 54.6057C63.3939 54.608 63.1888 54.6798 63.0218 54.81C62.8549 54.9402 62.7354 55.1217 62.6816 55.3264C58.9301 54.7615 55.0612 57.6655 51.117 61.0196C49.8155 62.1258 48.2553 63.3217 46.8785 64.3764C45.4622 65.4627 44.2385 66.3999 43.4874 67.0837C36.8109 73.1359 33.6482 77.88 33.792 81.5918C33.8607 83.325 34.6751 84.8086 36.2142 86.0019C38.412 87.7087 41.316 88.704 44.4576 89.2861C41.58 89.5791 38.7473 90.5256 36.9719 92.664C34.7094 95.3805 34.4639 103.575 34.0679 117.151C33.9993 119.518 33.9267 121.964 33.8382 124.596V162.612H34.3794V137.665H58.447V162.602H58.9882V124.586C58.9882 124.021 58.9882 123.152 58.9684 122.056H108.754C108.74 121.965 108.724 121.876 108.71 121.786C108.695 121.696 108.682 121.605 108.668 121.522H58.9605C58.9513 120.837 58.938 120.079 58.9209 119.262H81.2012C80.9042 119.214 80.6098 119.162 80.3194 119.101C80.1504 119.065 79.9841 119.03 79.8191 118.991C79.461 118.908 79.109 118.818 78.7631 118.721H58.909C58.8338 115.289 58.6925 110.939 58.4404 106.709C57.6933 94.149 56.5594 91.8258 55.7252 91.3836C55.4242 90.8239 54.1728 90.3619 53.1696 90.0715C54.8038 90.1084 56.3865 90.1058 57.853 90.1032C60.0653 90.1032 61.9899 90.0952 63.4986 90.2193L64.68 96.2346L64.812 96.187C64.8527 96.1736 64.8942 96.1626 64.9361 96.154C64.9969 96.1395 65.0827 96.121 65.2001 96.0986L64.0583 90.2642L60.621 72.6739C60.6092 72.5683 60.5511 72.2779 60.3016 71.041L60.0125 69.564V69.6128C59.7987 68.5476 59.5888 67.4704 59.5875 67.3054H59.0463C59.0463 67.5694 59.3367 69.0214 59.7459 71.0265C59.833 71.4502 59.9201 71.8819 59.9848 72.2053C59.8436 72.7333 56.8062 74.8294 55.1708 75.962C54.285 76.5758 53.5076 77.113 53.1076 77.4325L51.9196 77.414C49.3073 77.3797 46.0562 77.3361 44.8259 76.9098L44.6477 77.4219C45.9611 77.876 49.2611 77.9209 51.9077 77.9565C52.2945 77.9565 52.6641 77.9658 53.0126 77.9724C53.1129 78.0212 53.3228 78.0238 53.8574 78.0291C54.2877 78.0291 54.8843 78.0357 55.5562 78.0384C57.4148 78.0384 60.4402 78.0542 61.1332 78.1426L63.3851 89.6596C61.879 89.5461 59.998 89.5501 57.8411 89.554C55.3463 89.554 52.5136 89.562 49.6703 89.3692C49.0644 89.2953 48.4269 89.2372 47.7708 89.2082C43.5099 88.7713 39.3915 87.7866 36.5376 85.5729C35.1305 84.4826 34.386 83.1349 34.324 81.568C34.192 78.0766 37.3811 73.3378 43.8161 67.4836C44.55 66.8157 45.7658 65.8851 47.1729 64.8067C48.5549 63.7507 50.1204 62.5482 51.4312 61.4328C53.6673 59.532 56.2598 57.42 58.7414 56.4168C60.1247 55.8624 61.4091 55.6802 62.6156 55.8716L62.6565 63.5355C62.6582 63.7901 62.7605 64.0336 62.941 64.2131C63.1214 64.3926 63.3655 64.4935 63.6201 64.4938L70.1488 64.4595L70.1039 64.441L70.2016 64.1889L70.298 63.9355C70.4524 63.9949 70.6029 64.0675 70.7521 64.1348L70.855 64.185L71.0411 64.2826C71.1428 64.3368 71.2444 64.3922 71.3447 64.4503L71.7262 64.6707C72.6357 65.1987 73.5742 65.7531 74.8467 65.7531V66.2943C73.429 66.2943 72.3796 65.6805 71.453 65.1393C71.2431 65.0166 71.0385 64.8978 70.8352 64.7869C70.7547 64.7433 70.6742 64.7011 70.5923 64.6549C70.5105 64.6087 70.43 64.5757 70.3481 64.5387C70.3166 64.5922 70.2896 64.6483 70.2676 64.7064C70.0498 65.2924 70.3112 66.0607 71.0596 67.048C71.1784 67.0942 71.3236 67.1523 71.4992 67.2249L71.5414 67.2421L71.8371 67.3622C73.0594 67.8572 75.0381 68.5977 76.96 68.5977H77.2425V69.1389H76.96C75.2044 69.1389 73.433 68.5634 72.1724 68.0829C71.977 68.0077 71.7948 67.9351 71.6259 67.8664L71.2932 67.7344L71.2325 67.7094C71.2972 67.9232 71.5058 68.1859 71.9018 68.5819C71.9137 68.6122 71.9321 68.6677 71.9466 68.7139C72.171 69.3924 72.8535 71.4555 76.4597 72.4218C77.4497 72.6858 81.8559 74.0216 82.6294 74.4216L79.8759 77.4114C79.6013 76.6497 79.3294 75.9013 79.0839 75.2373C79.1486 75.1053 79.0654 74.9443 78.94 74.8413C78.6127 73.9384 78.3487 73.2111 78.3249 73.1253L78.0609 73.1913L77.7969 73.2164C77.7969 73.2732 77.7969 73.2837 78.4358 75.0261C78.3447 75.2413 78.4556 75.4459 78.5678 75.4406H78.5836C78.8476 76.1521 79.1486 76.9982 79.4601 77.8628L79.3413 77.9948L79.534 78.0727C80.2627 80.0962 80.9966 82.1647 81.1695 82.7956C81.9364 85.5888 83.2881 89.4458 84.4801 92.8501C84.7705 93.6751 85.0463 94.4631 85.2998 95.1944C85.3301 95.2855 85.3618 95.3752 85.3922 95.4584C85.4225 95.5416 85.4542 95.6379 85.4846 95.7224C79.6884 95.7844 75.1318 95.8544 73.6613 95.9244C68.0579 96.1884 65.9763 96.4827 65.2754 96.6134L65.1434 96.6398C65.1434 96.8906 65.1434 97.148 65.1553 97.4107C65.1711 98.0258 65.2041 98.6726 65.2569 99.3418C65.8271 106.47 68.8064 116.149 80.3999 118.554C80.6639 118.611 80.9424 118.66 81.2183 118.705C82.305 118.875 83.4026 118.966 84.5025 118.976H85.1506C86.4113 118.956 87.67 118.866 88.9205 118.705C94.8513 117.958 101.309 115.784 107.257 113.557L107.521 113.459L107.785 113.362C109.142 112.849 110.472 112.336 111.76 111.84L112.889 111.404C113.842 111.037 116.795 109.959 117.951 109.77C118.516 109.518 119.127 109.383 119.745 109.374C120.425 109.37 121.091 109.573 121.653 109.956C123.152 110.946 124.093 113.113 124.623 115.611C124.72 116.077 124.805 116.553 124.876 117.036C124.958 117.595 125.021 118.16 125.069 118.725C125.069 118.814 125.083 118.906 125.09 118.995L125.11 119.259C125.137 119.691 125.156 120.12 125.166 120.544C125.173 120.819 125.176 121.092 125.176 121.363V121.381C125.177 121.425 125.183 121.469 125.193 121.513C125.213 121.603 125.241 121.691 125.276 121.777C125.308 121.858 125.347 121.949 125.393 122.047C125.908 123.127 127.298 125.117 129.167 127.574C129.343 127.805 129.524 128.041 129.709 128.28C131.752 130.935 134.274 134.047 136.822 137.11C136.973 137.291 137.122 137.471 137.272 137.651C139.176 139.932 141.076 142.168 142.786 144.145L143.748 143.636L143.991 143.504L144.234 143.372L151.536 139.531ZM91.2385 81.9376V81.972C91.1999 82.026 91.1733 82.0876 91.1606 82.1528L82.9145 78.8383C83.1785 78.6495 83.5838 78.2192 84.4114 77.3124C84.8866 76.7844 85.4239 76.2009 85.6126 76.0716C86.9564 75.1476 88.3767 73.252 89.5185 71.7301C90.1983 70.8232 90.8385 69.9639 91.2477 69.626C93.5168 70.7506 96.5567 72.1683 97.2893 72.2924C97.2893 72.435 97.3725 72.5432 97.4557 72.5392C98.6305 72.4891 97.5533 71.4344 97.3765 71.9888L97.3633 71.7618C96.7561 71.7288 90.1165 68.566 89.0142 67.848L88.8229 67.7239L88.1629 68.4354L88.0902 68.3284C88.0216 68.2242 87.9226 68.1964 87.7853 68.1687C86.1828 67.7978 84.6121 66.264 83.1099 63.6147C83.0307 63.4748 82.8314 62.9481 82.6202 62.3924C82.1582 61.1754 81.5826 59.66 81.1682 59.1267C80.9042 58.7756 80.627 58.5987 80.3379 58.5697C80.2084 58.5601 80.0786 58.5832 79.9604 58.637L79.9485 56.5844C83.4544 56.6029 87.8804 59.1162 91.8113 61.7535C91.7916 61.7806 91.7769 61.811 91.7678 61.8433V61.8802C91.5935 62.1258 91.7189 62.3937 91.8509 62.3871C92.2047 62.3726 92.3525 62.2657 92.3789 62.1403C93.5564 62.9415 94.681 63.7454 95.7146 64.482C97.1851 65.538 98.4549 66.4382 99.4951 67.081C102.959 69.2221 106.416 72.5076 108.743 75.8696C111.144 79.332 112.031 82.3798 111.173 84.2265C109.915 86.9365 104.895 87.0144 97.0385 84.447C94.6005 83.655 94.1913 83.391 94.0171 83.2788C93.8859 83.1892 93.7343 83.1342 93.5762 83.119H93.5458L91.7321 82.3891C92.1625 82.1238 91.381 81.4624 91.2385 81.9376ZM58.447 124.591V137.124H34.3808V124.6C34.4098 123.735 34.4375 122.892 34.4639 122.062H58.4272C58.4404 123.156 58.447 124.026 58.447 124.591ZM58.4193 121.52H34.584V119.261H58.3797C58.3968 120.078 58.41 120.835 58.4193 121.52ZM52.0833 90.3381C54.3524 90.8661 55.213 91.4548 55.2579 91.641L55.2909 91.7862L55.4335 91.835C55.9205 92.004 57.1363 93.7939 57.9045 106.735C58.1566 110.959 58.3005 115.297 58.3731 118.719H34.5656C34.5805 118.191 34.5955 117.672 34.6104 117.162C34.9932 104.165 35.2454 95.5785 37.3824 93.0058C39.7096 90.2101 44.0115 89.5738 47.7233 89.7494C48.3534 89.8145 48.9848 89.8682 49.6175 89.9104C50.4447 90.0092 51.266 90.152 52.078 90.3381H52.0833ZM55.5694 77.4985H54.9305C54.6665 77.48 54.3444 77.4668 53.9907 77.4562C54.3867 77.1672 54.9147 76.8055 55.4849 76.4108C57.9863 74.679 59.4634 73.6084 60.1208 72.9168L61.0355 77.5962C60.3953 77.5354 58.9605 77.509 55.5641 77.4985H55.5694ZM63.6386 63.9606C63.5266 63.9609 63.4191 63.917 63.3395 63.8383C63.2599 63.7597 63.2146 63.6527 63.2135 63.5408L63.1739 55.993V55.7066V55.5746C63.1741 55.5264 63.1826 55.4786 63.199 55.4334C63.2278 55.3511 63.2813 55.2796 63.3521 55.2289C63.423 55.1781 63.5078 55.1504 63.595 55.1496L67.291 55.1311H67.5616H67.8335L75.1397 55.0928H75.6796L78.9955 55.0756C79.1069 55.076 79.2138 55.1202 79.2928 55.1988C79.3719 55.2774 79.4168 55.3839 79.4179 55.4954V56.0538V56.6108L79.4297 58.802L79.3703 58.8192L79.4311 59.0686L79.4469 62.1046C79.3919 62.2488 79.3172 62.3847 79.2251 62.5086C78.9757 62.8386 78.6179 63.0062 78.1309 63.0234C76.9772 63.0643 74.7226 62.399 72.9116 61.8644C71.7882 61.5344 70.8167 61.248 70.1752 61.1358C69.3291 60.9892 68.9384 61.3998 68.8552 61.7958C68.7232 62.4914 69.3529 63.3798 70.6465 63.9276L63.6386 63.9606ZM88.9232 68.4261C89.273 68.6241 89.9317 68.9673 90.7329 69.3686C90.2986 69.7936 89.7482 70.5276 89.0895 71.4067C87.9715 72.897 86.5815 74.7516 85.3103 75.6307C85.0859 75.7851 84.6714 76.2326 84.0154 76.9507C83.5059 77.5104 82.7363 78.3552 82.5436 78.4423C82.5685 78.4333 82.5952 78.4302 82.6215 78.433L82.5991 78.7129L80.3049 77.7889L88.9232 68.4261ZM68.9344 37.1487C69.0374 37.1342 69.1271 37.1223 69.1984 37.1091C69.9904 36.9468 72.7334 36.9573 74.2052 36.9639H74.8058C75.1529 36.9639 75.4235 36.9639 75.6374 36.9547C75.743 36.9547 75.834 36.9481 75.9132 36.9441C76.0281 36.9375 76.1165 36.9296 76.1852 36.9217C75.3773 33.1927 71.4741 31.6417 68.1332 32.3017C65.4285 32.8297 62.5681 35.005 63.4115 39.3637C63.4261 39.435 63.4604 39.658 63.5079 39.9682C63.562 40.3154 63.6399 40.7906 63.7257 41.3397C63.7984 41.2676 63.8801 41.2051 63.9686 41.1536C64.0499 41.1063 64.1357 41.0669 64.2246 41.0361C64.4661 40.9585 64.7202 40.9281 64.9731 40.9464L65.3268 40.9714C65.9011 41.015 66.3538 41.0493 66.5624 40.8394C66.7406 40.6599 66.8026 40.2454 66.7458 39.6092C66.5558 37.4642 68.2216 37.2424 68.9344 37.1487Z" fill="white"/>
<path d="M77.22 57.2273C77.2828 57.2886 77.3591 57.3345 77.4427 57.3613C77.5263 57.3881 77.615 57.3951 77.7018 57.3817C77.8463 57.368 77.9808 57.3019 78.08 57.1959C78.1791 57.0899 78.2362 56.9513 78.2404 56.8062C78.2404 56.7996 78.2404 56.7943 78.2404 56.7891C78.2338 56.7013 78.2017 56.6173 78.148 56.5475C78.0704 56.4481 77.9599 56.3798 77.8364 56.3548C77.7109 56.3304 77.581 56.3441 77.4634 56.3942C77.3457 56.4443 77.2458 56.5285 77.1764 56.6359C77.1179 56.7265 77.0898 56.8333 77.0959 56.9409C77.0959 56.9567 77.1025 56.9699 77.1052 56.9857C77.1185 57.0759 77.1585 57.1601 77.22 57.2273Z" fill="white"/>
<path d="M171.791 141.066C170.452 141.524 168.151 141.423 165.484 141.309C163.737 141.232 161.788 141.15 159.848 141.211L159.861 141.2C159.962 141.12 160.068 141.049 160.181 140.987L160.292 140.927C160.463 140.833 160.628 140.741 160.784 140.65C163.056 139.321 163.556 138.216 163.262 137.646C162.983 137.118 162.162 137.096 161.168 137.606C160.47 137.972 159.867 138.494 159.406 139.133C159.556 137.164 158.896 136.056 158.189 135.687C157.969 135.559 157.712 135.509 157.46 135.547C157.208 135.585 156.977 135.707 156.804 135.894C156.236 136.502 156.098 137.914 157.41 140.052C157.52 140.241 157.613 140.44 157.688 140.646C157.702 140.676 157.714 140.705 157.725 140.736C157.765 140.833 157.806 140.927 157.85 141.012C157.901 141.117 157.974 141.21 158.063 141.285C157.498 141.281 156.934 141.228 156.378 141.125C155.718 141.018 155.165 140.93 154.315 141.174C154.147 141.223 153.967 141.284 153.773 141.36C153.611 141.425 153.438 141.5 153.253 141.587C153.174 141.624 153.092 141.664 153.008 141.706L152.768 141.829C151.712 142.382 150.303 143.281 148.287 144.718C148.167 144.803 147.782 145.046 147.295 145.352C146.971 145.555 146.54 145.827 146.174 146.061C146.094 146.112 146.017 146.161 145.946 146.208L145.719 146.358L145.632 146.417C145.975 146.876 146.597 147.795 147.348 148.908C148.887 151.181 151.729 155.376 152.378 155.726C152.67 155.625 153.17 155.417 153.771 155.145C153.947 155.066 154.127 154.981 154.312 154.891C154.724 154.695 155.155 154.477 155.578 154.247C157.436 153.241 157.834 152.704 157.834 152.571C157.819 152.522 157.762 152.379 157.711 152.253C157.245 151.095 156.796 149.823 157.374 149.367C157.799 149.032 158.544 149.277 159.79 150.159C160.144 150.411 161.392 150.508 165.789 148.332C168.626 146.929 171.694 145.119 173.527 144.038C174.083 143.711 174.524 143.451 174.8 143.295C174.932 143.147 175.046 142.239 174.616 141.548C174.132 140.769 173.154 140.601 171.791 141.066ZM157.2 136.264C157.292 136.164 157.417 136.099 157.552 136.082C157.686 136.064 157.823 136.094 157.938 136.167C158.483 136.452 159.258 137.638 158.689 140.272C158.656 140.424 158.63 140.536 158.609 140.621C158.595 140.658 158.585 140.693 158.576 140.726C158.56 140.78 158.549 140.834 158.543 140.889L158.459 140.783C158.434 140.804 158.406 140.822 158.378 140.839C158.354 140.807 158.334 140.774 158.318 140.738C158.276 140.653 158.23 140.538 158.186 140.444C158.099 140.21 157.991 139.984 157.865 139.768C156.791 138.009 156.755 136.74 157.2 136.264ZM158.725 141.261C158.755 141.24 158.78 141.22 158.797 141.206L158.764 141.165H158.814C158.946 141.165 159.014 141.116 159.071 140.971C159.097 140.904 159.118 140.836 159.134 140.766C159.142 140.745 159.151 140.721 159.159 140.697C159.37 140.151 160.01 138.807 161.415 138.089C162.17 137.702 162.694 137.729 162.781 137.898C162.921 138.162 162.398 139.199 159.927 140.51C159.836 140.559 159.748 140.614 159.663 140.675L159.531 140.773C159.495 140.803 159.456 140.831 159.416 140.856C159.441 140.847 159.466 140.844 159.492 140.847C159.517 140.849 159.542 140.857 159.564 140.87L159.331 140.959L159.08 141.054C159.103 141.12 159.137 141.182 159.179 141.239C159.027 141.24 158.875 141.252 158.725 141.261Z" fill="white"/>
<path d="M137.923 161.304C133.585 159.832 131.279 159.036 129.708 158.194C129.517 158.092 129.338 157.989 129.167 157.885C128.256 157.329 127.583 156.717 126.811 155.858L126.853 155.838L127.07 155.739L127.326 155.619C127.968 155.318 128.583 154.965 129.167 154.563V157.236C129.338 157.349 129.517 157.46 129.708 157.57V154.138C130.42 153.521 130.725 152.94 130.524 152.485C130.417 152.241 130.155 152.053 129.708 152.043V137.655H136.572L136.122 137.114H129.708V129.18C129.521 128.94 129.341 128.707 129.167 128.481V152.109C128.912 152.168 128.663 152.251 128.423 152.357C127.653 152.7 126.962 153.199 126.393 153.821C126.877 151.841 126.465 150.653 125.826 150.18C125.608 150.011 125.336 149.927 125.061 149.943C124.959 149.949 124.858 149.97 124.762 150.005C124.654 150.044 124.551 150.097 124.458 150.164L124.419 150.192C124.325 150.265 124.24 150.348 124.166 150.442C123.862 150.819 123.648 151.422 123.663 152.246C123.663 152.337 123.663 152.43 123.676 152.526C123.689 152.622 123.693 152.72 123.706 152.822C123.273 152.667 122.761 152.638 122.009 152.665L121.745 152.675L121.481 152.69L121.209 152.705C120.884 152.725 120.38 152.748 119.795 152.774C118.271 152.844 116.184 152.939 114.848 153.079C114.692 153.096 114.202 153.121 113.582 153.153L112.863 153.19L112.599 153.204L112.335 153.22C111.958 153.241 111.615 153.264 111.411 153.284C111.434 153.85 111.421 154.971 111.411 156.335C111.379 159.06 111.32 164.085 111.675 164.753C112.918 164.921 114.17 165.009 115.425 165.017C118.094 165.037 118.47 164.67 118.511 164.613C118.529 164.558 118.568 164.377 118.602 164.217C118.849 163.074 119.159 161.819 119.713 161.404C119.834 161.31 119.983 161.258 120.136 161.255C120.333 161.255 120.575 161.349 120.831 161.658C120.998 161.858 121.126 162.307 121.323 163.02C121.44 163.448 121.561 163.889 121.684 164.195C121.828 164.549 122.755 165.152 127.36 165.21C130.409 165.249 133.929 165.041 136.5 164.889C137.751 164.815 138.744 164.757 139.248 164.757C139.42 164.748 140.028 164.211 140.123 163.499C140.208 162.586 139.461 161.832 137.923 161.304ZM130.029 152.707C130.073 152.807 130.002 153.045 129.708 153.379V152.587C129.896 152.6 130.003 152.651 130.029 152.711V152.707ZM128.637 152.856C128.808 152.781 128.984 152.718 129.165 152.669V153.887C128.479 154.411 127.734 154.854 126.946 155.207C126.863 155.246 126.778 155.285 126.69 155.324L126.629 155.352C126.559 155.384 126.497 155.417 126.439 155.448C126.332 155.326 126.221 155.198 126.109 155.064C126.158 154.99 126.209 154.914 126.267 154.833C126.325 154.753 126.375 154.688 126.435 154.613C127.011 153.853 127.768 153.249 128.637 152.856ZM124.246 152.777C124.23 152.665 124.22 152.556 124.212 152.451C124.147 151.535 124.38 150.905 124.748 150.624C124.853 150.535 124.985 150.485 125.123 150.483C125.261 150.481 125.395 150.528 125.502 150.615C125.904 150.917 126.342 151.92 125.817 153.882C125.789 153.983 125.76 154.086 125.729 154.192C125.697 154.297 125.667 154.391 125.631 154.495C125.087 153.86 124.696 153.431 124.311 153.15C124.286 153.024 124.263 152.898 124.246 152.778V152.777Z" fill="white"/>
<path d="M143.913 85.8264C144.691 86.1564 145.553 86.4864 146.507 86.8085C148.478 87.4803 151.463 88.2486 153.248 88.7079C154.051 88.9139 154.684 89.0775 154.848 89.1343C155.059 89.2139 155.282 89.2585 155.508 89.2663C155.609 89.273 155.71 89.2564 155.804 89.2177C155.898 89.1791 155.981 89.1193 156.048 89.0432C156.531 88.4532 155.739 87.0513 154.408 84.8113C153.859 83.8873 153.339 83.0121 153.066 82.3746C152.509 81.077 151.482 79.4178 150.278 77.4906C148.042 73.9028 145.262 69.4386 144.91 65.9353C144.72 64.0384 143.691 62.5033 142.16 61.8169C140.898 61.2546 139.533 61.3668 138.508 62.1192C137.771 62.659 137.283 63.4761 137.056 64.4952C136.285 65.1552 135.411 66.1056 135.472 66.5966C135.497 66.7827 135.646 66.9807 135.986 66.9807H136.25H136.673C136.78 66.9807 136.885 66.9807 136.991 66.9807C137.287 69.721 137.156 72.0429 137.04 74.0969C136.793 78.4291 136.621 81.477 140.736 84.1658C140.847 85.8818 141.071 88.3502 141.149 89.1818C137.817 89.298 134.355 90.1744 132.305 92.6442C131.513 93.5985 130.965 95.2314 130.576 97.5361C130.743 97.6778 130.904 97.8234 131.058 97.973C131.432 95.597 131.957 93.9087 132.722 92.99C136.078 88.9587 143.536 89.4181 147.412 90.3236C149.681 90.8516 150.542 91.4403 150.58 91.6265L150.613 91.7717L150.755 91.8205C151.242 91.9895 152.457 93.7794 153.227 106.721C153.478 110.945 153.623 115.282 153.696 118.705H143.606L143.759 118.976L143.912 119.24H153.474V121.499H145.184L145.336 121.763L145.488 122.034H153.754C153.768 123.13 153.773 123.998 153.773 124.563V137.097H153.473C153.562 137.302 153.636 137.482 153.698 137.638H153.773V137.833C154.048 138.566 153.987 138.694 153.946 138.78L153.908 138.86L153.776 138.931V140.75C153.97 140.68 154.148 140.618 154.317 140.58V124.591C154.317 122.178 154.22 114.258 153.771 106.702C153.024 94.1424 151.89 91.8192 151.056 91.377C150.66 90.6285 148.548 90.057 147.613 89.8312C146.331 89.5336 145.028 89.338 143.715 89.2465C143.738 88.8505 143.757 88.4875 143.776 88.1337C143.815 87.3391 143.854 86.6157 143.913 85.8264ZM136.257 66.454H136.031C136.121 66.2125 136.504 65.765 136.933 65.3426C137.031 65.2462 137.131 65.1512 137.231 65.0588C137.332 64.9664 137.445 64.8674 137.548 64.7816C137.712 64.637 137.889 64.5072 138.076 64.3935C138.161 64.4727 138.245 64.548 138.328 64.6219C138.667 64.9255 138.962 65.1868 139.12 65.5776C139.211 65.7993 139.165 65.9089 139.12 65.9736C138.91 66.2824 138.175 66.3999 137.47 66.4408L137.198 66.454L136.934 66.4606C136.669 66.4593 136.429 66.4567 136.258 66.454H136.257ZM141.69 89.1845C141.623 88.4558 141.42 86.2316 141.294 84.5328C141.969 84.9266 142.665 85.2823 143.38 85.598C143.311 86.4679 143.27 87.2427 143.225 88.106C143.206 88.4584 143.187 88.8241 143.165 89.2148C142.692 89.1884 142.192 89.1779 141.692 89.1845H141.69Z" fill="white"/>
<path d="M48.7845 70.4999C48.7684 70.5678 48.756 70.6365 48.7476 70.7058C48.7476 71.2549 49.5937 71.0886 49.4353 70.5817C49.3257 70.2306 48.8756 70.3164 48.7845 70.4999Z" fill="white"/>
<path d="M58.575 64.1243C58.5586 64.1921 58.5463 64.2609 58.5381 64.3302C58.5381 64.8793 59.3829 64.713 59.2258 64.2061C59.1162 63.855 58.6661 63.9408 58.575 64.1243Z" fill="white"/>
<path d="M92.9399 67.1511C92.9225 67.2188 92.9097 67.2876 92.9016 67.357C92.9016 67.9061 93.7477 67.7398 93.5893 67.2342C93.4798 66.8818 93.031 66.9676 92.9399 67.1511Z" fill="white"/>
<path d="M83.2921 82.4525C83.2758 82.5208 83.2635 82.59 83.2551 82.6597C83.2551 83.2075 84.0999 83.0412 83.9429 82.5356C83.8359 82.1845 83.3858 82.2703 83.2921 82.4525Z" fill="white"/>
<path d="M92.0317 89.7429C92.0142 89.811 92.0014 89.8802 91.9934 89.9501C91.9934 90.4992 92.8395 90.3316 92.6811 89.826C92.5716 89.4749 92.1215 89.5607 92.0317 89.7429Z" fill="white"/>
<path d="M71.5307 77.6939C71.4212 77.3428 70.9711 77.4299 70.8813 77.6121C70.8639 77.6798 70.8511 77.7486 70.843 77.818C70.843 78.3671 71.6891 78.2008 71.5307 77.6939Z" fill="white"/>
<path d="M40.883 79.2514C40.8655 79.3195 40.8527 79.3888 40.8447 79.4587C40.8447 80.0065 41.6909 79.8401 41.5325 79.3346C41.4229 78.9835 40.9728 79.0679 40.883 79.2514Z" fill="white"/>
<path d="M55.671 84.4245C55.5614 84.0721 55.1113 84.1605 55.0202 84.3414C55.004 84.4097 54.9916 84.4789 54.9833 84.5486C54.9833 85.0964 55.836 84.9301 55.671 84.4245Z" fill="white"/>
<path d="M72.4178 70.7691C72.3083 70.418 71.8581 70.5051 71.7671 70.6873C71.7508 70.7551 71.7384 70.8239 71.7301 70.8932C71.7301 71.4423 72.5762 71.28 72.4178 70.7691Z" fill="white"/>
<path d="M74.7213 91.0403C74.6117 90.6892 74.1616 90.7763 74.0719 90.9585C74.0545 91.0262 74.0417 91.095 74.0336 91.1644C74.0336 91.7136 74.8797 91.5472 74.7213 91.0403Z" fill="white"/>
<path d="M51.9155 87.3404C51.8059 86.988 51.3558 87.0764 51.2647 87.2573C51.2486 87.3252 51.2363 87.3939 51.2278 87.4632C51.2278 88.0123 52.0726 87.846 51.9155 87.3404Z" fill="white"/>
<path d="M55.3185 69.8438V69.8795C55.1442 70.125 55.271 70.3929 55.4016 70.3876C56.5791 70.3375 55.4888 69.2749 55.3185 69.8438Z" fill="white"/>
<path d="M105.956 76.2419C107.137 76.1918 106.046 75.1291 105.876 75.6981V75.7337C105.699 75.9792 105.826 76.2472 105.956 76.2419Z" fill="white"/>
<path d="M50.6076 80.8566V80.8936C50.4333 81.1391 50.5587 81.4071 50.6894 81.4005C51.8681 81.3503 50.7778 80.2877 50.6076 80.8566Z" fill="white"/>
<path d="M94.8433 78.0529C96.0221 78.0028 94.9317 76.9402 94.7615 77.5091V77.5447C94.5859 77.7903 94.7126 78.0582 94.8433 78.0529Z" fill="white"/>
<path d="M81.5061 90.5705V90.6061C81.3318 90.8517 81.4572 91.1196 81.5892 91.1143C82.764 91.0642 81.6763 90.0016 81.5061 90.5705Z" fill="white"/>
<path d="M53.2185 75.3456V75.3812C53.0442 75.6267 53.1696 75.8947 53.3016 75.8894C54.479 75.8379 53.3887 74.7753 53.2185 75.3456Z" fill="white"/>
<path d="M84.1169 85.0582V85.0938C83.9427 85.3393 84.0694 85.6073 84.2001 85.602C85.3776 85.5518 84.2872 84.4893 84.1169 85.0582Z" fill="white"/>
<path d="M47.6177 65.1922V65.2278C47.4434 65.4734 47.5702 65.7413 47.7008 65.736C48.877 65.6859 47.784 64.6233 47.6177 65.1922Z" fill="white"/>
<path d="M107.365 80.4897C108.545 80.4395 107.455 79.3769 107.284 79.9459V79.9828C107.109 80.2283 107.234 80.4963 107.365 80.4897Z" fill="white"/>
<path d="M57.4082 58.8166V58.8522C57.234 59.0978 57.3607 59.3657 57.4914 59.3604C58.6675 59.3103 57.5772 58.2477 57.4082 58.8166Z" fill="white"/>
<path d="M69.7131 72.3043V72.336C69.5388 72.5815 69.6642 72.8494 69.7962 72.8442C70.9737 72.798 69.8834 71.7354 69.7131 72.3043Z" fill="white"/>
<path d="M58.7809 87.413C59.9597 87.3629 58.8694 86.3003 58.6991 86.8692V86.9048C58.5235 87.1504 58.6502 87.4183 58.7809 87.413Z" fill="white"/>
<path d="M47.0843 85.2866V85.3222C46.9101 85.5677 47.0355 85.8357 47.1675 85.8304C48.3449 85.7802 47.2559 84.7176 47.0843 85.2866Z" fill="white"/>
<path d="M38.796 84.942C39.9747 84.8905 38.8844 83.8292 38.7141 84.3982V84.4338C38.5439 84.6793 38.664 84.9473 38.796 84.942Z" fill="white"/>
<path d="M67.3096 73.8394V73.875C67.134 74.1206 67.2607 74.3885 67.3914 74.3832C68.5688 74.3331 67.4798 73.2705 67.3096 73.8394Z" fill="white"/>
<path d="M69.6129 94.116V94.1516C69.4386 94.3971 69.564 94.6651 69.696 94.6598C70.8735 94.6044 69.7831 93.5418 69.6129 94.116Z" fill="white"/>
<path d="M38.2642 75.9449V75.9818C38.09 76.2273 38.2154 76.494 38.3474 76.4887C39.5248 76.4385 38.4345 75.372 38.2642 75.9449Z" fill="white"/>
<path d="M66.8592 65.3862V65.4231C66.6837 65.6687 66.8104 65.9366 66.9411 65.93C68.1198 65.8799 67.0295 64.812 66.8592 65.3862Z" fill="white"/>
<path d="M69.1679 85.6588V85.6944C68.9937 85.94 69.1191 86.2079 69.2511 86.2026C70.4233 86.1512 69.3329 85.0886 69.1679 85.6588Z" fill="white"/>
<path d="M34.5984 81.576L34.6327 81.5879C34.8241 81.8202 35.1159 81.7688 35.1449 81.6407C35.4063 80.4857 34.0942 81.2579 34.5984 81.576Z" fill="white"/>
<path d="M63.1936 71.016L63.228 71.0278C63.4194 71.2602 63.7098 71.2087 63.7401 71.082C64.0015 69.927 62.6894 70.6992 63.1936 71.016Z" fill="white"/>
<path d="M88.6933 85.1796C88.8847 85.4132 89.1764 85.3618 89.2055 85.2337C89.4695 84.0826 88.1495 84.8549 88.659 85.169L88.6933 85.1796Z" fill="white"/>
<path d="M101.318 83.9216L101.352 83.9321C101.544 84.1658 101.835 84.1143 101.864 83.9863C102.126 82.8352 100.814 83.6074 101.318 83.9216Z" fill="white"/>
<path d="M52.3419 65.2581C51.9973 65.3294 52.194 66.2719 52.7867 65.7861C52.9794 65.6304 52.9794 65.1261 52.3419 65.2581Z" fill="white"/>
<path d="M103.343 71.6416C103.536 71.4846 103.537 70.9816 102.899 71.1136C102.555 71.1836 102.75 72.1261 103.343 71.6416Z" fill="white"/>
<path d="M86.5458 65.1301C86.2013 65.2014 86.3967 66.1452 86.9893 65.6581C87.1821 65.5023 87.1834 64.9981 86.5458 65.1301Z" fill="white"/>
<path d="M83.688 75.504C83.8807 75.3456 83.8807 74.844 83.2432 74.976C82.896 75.042 83.0927 75.9858 83.688 75.504Z" fill="white"/>
<path d="M42.1899 70.2082C41.8453 70.2808 42.0407 71.2232 42.6334 70.7362C42.8261 70.5817 42.8274 70.0775 42.1899 70.2082Z" fill="white"/>
<path d="M109.346 83.5336C109.539 83.3765 109.54 82.8736 108.903 83.0056C108.558 83.0742 108.753 84.0181 109.346 83.5336Z" fill="white"/>
<path d="M83.9521 60.0059C83.6076 60.0772 83.8029 61.021 84.3956 60.5339C84.5883 60.3782 84.5896 59.8739 83.9521 60.0059Z" fill="white"/>
<path d="M89.1462 93.9392C89.3389 93.7808 89.3402 93.2792 88.7027 93.4112C88.3582 93.4798 88.5535 94.4223 89.1462 93.9392Z" fill="white"/>
<path d="M73.5319 80.4527C73.7247 80.2943 73.726 79.7927 73.0884 79.9247C72.7439 79.992 72.9393 80.9372 73.5319 80.4527Z" fill="white"/>
<path d="M64.284 77.3216C63.9395 77.3929 64.1362 78.3354 64.7289 77.8496C64.9229 77.6938 64.9229 77.1896 64.284 77.3216Z" fill="white"/>
<path d="M47.6309 76.2709C47.2864 76.3422 47.4817 77.286 48.0744 76.7989C48.2671 76.6432 48.2685 76.1389 47.6309 76.2709Z" fill="white"/>
<path d="M56.3877 63.1369C56.5805 62.9798 56.5805 62.4769 55.9442 62.6089C55.5984 62.6775 55.7951 63.624 56.3877 63.1369Z" fill="white"/>
<path d="M92.2297 73.4527C92.4224 73.2956 92.4224 72.7927 91.7862 72.9247C91.4403 72.996 91.637 73.9371 92.2297 73.4527Z" fill="white"/>
<path d="M78.9728 86.5141C79.1656 86.357 79.1669 85.8541 78.5293 85.9861C78.1848 86.0547 78.3802 86.9985 78.9728 86.5141Z" fill="white"/>
<path d="M58.1434 80.652C57.7989 80.7233 57.9955 81.6671 58.5882 81.18C58.7809 81.0282 58.7809 80.52 58.1434 80.652Z" fill="white"/>
<path d="M102.742 77.8365C102.935 77.6794 102.936 77.1765 102.299 77.3085C101.954 77.3771 102.149 78.3209 102.742 77.8365Z" fill="white"/>
</svg>
