<svg width="17" height="25" viewBox="0 0 17 25" fill="none" xmlns="http://www.w3.org/2000/svg">
<path d="M8.4567 0.000175458C4.7288 -0.0240153 1.29535 2.45631 0.282072 6.2187C0.053283 7.06822 -0.00376206 7.90376 0.000188277 8.70441C0.014208 11.5458 1.54051 14.0005 3.26321 16.3836C4.9859 18.7667 6.92669 21.112 7.96127 23.6784C8.003 23.7776 8.07308 23.8623 8.16273 23.9219C8.25238 23.9814 8.35762 24.0132 8.46525 24.0132C8.57287 24.0132 8.67811 23.9814 8.76776 23.9219C8.85741 23.8623 8.92749 23.7776 8.96922 23.6784C10.0038 21.112 11.9446 18.7667 13.6673 16.3836C15.39 14.0005 16.9163 11.5458 16.9303 8.70441C16.9343 7.90376 16.8772 7.06822 16.6484 6.2187C15.6351 2.45631 12.2017 -0.0240208 8.47379 0.000175458C8.46806 0.000213726 8.46243 0.000126256 8.4567 0.000175458ZM8.4567 1.09354C8.4624 1.09363 8.46809 1.09363 8.47379 1.09354C11.7179 1.06578 14.7042 3.21442 15.5892 6.50059C15.7834 7.22159 15.8406 7.96269 15.8369 8.70441C15.8249 11.1519 14.4707 13.4027 12.7789 15.743C11.303 17.7847 9.62555 19.885 8.46525 22.2348C7.30494 19.885 5.62754 17.7847 4.15157 15.743C2.45983 13.4027 1.10563 11.1519 1.09356 8.70441C1.0899 7.96269 1.14709 7.22159 1.34127 6.50059C2.22629 3.21442 5.21257 1.06578 8.4567 1.09354ZM8.44816 4.88616C6.51739 4.8837 4.93498 6.45999 4.93743 8.38836C4.93989 10.3167 6.52593 11.8881 8.4567 11.8905C10.3875 11.8933 11.9613 10.3253 11.9589 8.3969C11.9564 6.46853 10.3789 4.88862 8.44816 4.88616ZM8.44816 5.97953C9.78766 5.98117 10.8638 7.05912 10.8655 8.3969C10.8672 9.73468 9.78766 10.7989 8.44816 10.7972C7.10866 10.7955 6.03249 9.72613 6.03079 8.38836C6.0291 7.05058 7.10866 5.97782 8.44816 5.97953Z" fill="#0095F8"/>
</svg>
