<svg width="35" height="35" viewBox="0 0 35 35" fill="none" xmlns="http://www.w3.org/2000/svg">
<path d="M31.4786 22.769C31.7849 22.7444 31.8768 22.4517 32.0058 22.1714C32.4872 21.1357 31.8607 18.9895 31.3409 17.5327C30.8801 16.1756 30.2936 14.8619 29.5895 13.6097C29.5439 13.5329 29.4826 13.4667 29.4098 13.4158C29.337 13.3648 29.2545 13.3304 29.1682 13.3149C29.0819 13.2994 28.9939 13.3032 28.9104 13.326C28.827 13.3489 28.7501 13.3902 28.6853 13.4471L23.5215 17.9602C23.4121 18.0556 23.3429 18.1897 23.327 18.3368C23.3112 18.4838 23.3499 18.6334 23.4357 18.7566C23.5581 18.933 23.7107 19.153 23.8895 19.4107C25.1664 21.2759 25.5806 21.7461 25.9425 22.276C26.1199 22.5317 26.2725 22.7517 26.4011 22.9003C26.464 22.978 26.5444 23.0393 26.6352 23.0788C26.7259 23.1183 26.8242 23.1347 26.9213 23.1267L28.7554 22.9817L31.4786 22.769Z" fill="#404950"/>
<path d="M16.9475 2.65447C17.0065 2.52855 17.091 2.41715 17.1956 2.32724C17.3002 2.23732 17.4227 2.17083 17.5554 2.13192C17.6882 2.09301 17.8283 2.08251 17.9671 2.10109C18.1059 2.11967 18.2403 2.16692 18.362 2.23989C18.9712 2.60701 19.8289 3.12772 20.7983 3.74411C21.7999 4.41436 22.7502 5.16197 23.6402 5.97998C23.7497 6.07818 23.8381 6.19815 23.8995 6.33196C23.9609 6.46576 23.9938 6.61033 23.9962 6.75609C23.9986 6.90184 23.9704 7.04546 23.9134 7.1774C23.8564 7.30934 23.7719 7.4266 23.6656 7.52139L19.5356 11.1939C19.4307 11.2878 19.3066 11.3576 19.1715 11.3986C19.0363 11.4397 18.8933 11.4511 18.7516 11.4322C18.6099 11.4132 18.4728 11.3643 18.3493 11.2887C18.2258 11.213 18.1186 11.1123 18.0347 10.9932L15.3819 7.25506C15.274 7.10242 15.2077 6.92452 15.1899 6.73999C15.1722 6.55547 15.2038 6.37112 15.2812 6.20626L16.9475 2.65447Z" fill="#404950"/>
<path d="M28.5581 11.6676C27.721 10.1462 26.5889 8.92324 25.5147 7.8041C25.3369 7.61855 25.0976 7.50708 24.8464 7.4928C24.5951 7.47852 24.3511 7.56254 24.1651 7.72742L19.6142 11.7418C19.4356 11.899 19.3226 12.1191 19.2967 12.3602C19.2709 12.6012 19.334 12.8464 19.4741 13.0487C19.9732 13.7682 20.6951 14.8088 20.9413 15.1636C21.2397 15.5938 21.7347 16.3073 22.1362 16.8861C22.2167 17.0019 22.3199 17.1 22.4391 17.174C22.5583 17.248 22.6907 17.2963 22.8278 17.3156C22.9648 17.3349 23.1035 17.3249 23.2346 17.2862C23.3658 17.2475 23.4865 17.1809 23.5889 17.0909L28.3522 12.888C28.5201 12.7436 28.6322 12.5437 28.6697 12.3216C28.7071 12.0995 28.6677 11.8687 28.5581 11.6676Z" fill="#404950"/>
<path d="M17.8497 23.8504C20.2931 23.6556 22.7462 23.4746 25.1864 23.2792C25.2495 23.2747 25.3098 23.2533 25.3612 23.2173C25.4125 23.1813 25.4531 23.1319 25.4789 23.0741C25.5047 23.0163 25.5148 22.9522 25.5081 22.8881C25.5014 22.8241 25.4781 22.7624 25.4407 22.7094L22.9037 19.0524C22.8739 19.0094 22.8357 18.9731 22.7916 18.9457C22.7475 18.9182 22.6985 18.9003 22.6477 18.8932C22.597 18.886 22.5456 18.8897 22.4971 18.904C22.4485 18.9183 22.4038 18.9429 22.3659 18.9763L17.5708 23.2071C17.5141 23.2568 17.4751 23.3239 17.4592 23.3987C17.4433 23.4736 17.4515 23.5524 17.4824 23.6238C17.5134 23.6952 17.5656 23.7556 17.6316 23.7963C17.6976 23.837 17.7739 23.856 17.8497 23.8504Z" fill="#404950"/>
<path d="M11.1263 15.0963C12.1135 12.9904 13.0933 10.8779 14.0791 8.77002C14.1474 8.62509 14.2523 8.50179 14.3835 8.41217C14.5147 8.32256 14.6677 8.26969 14.8276 8.25875C14.9875 8.24781 15.1489 8.27917 15.2958 8.34975C15.4428 8.42033 15.5704 8.52773 15.6661 8.66144L17.7651 11.6094C17.9042 11.8011 17.9691 12.0363 17.9472 12.2687C17.9253 12.5011 17.8182 12.7141 17.6467 12.8659L13.0603 16.9108C12.964 16.9958 12.8505 17.0587 12.7271 17.0954C12.6037 17.1321 12.4731 17.1418 12.344 17.1239C12.2149 17.106 12.0901 17.0608 11.9777 16.9914C11.8654 16.922 11.7679 16.8299 11.6918 16.721L11.2188 16.0392C11.1223 15.9018 11.0629 15.742 11.0466 15.5763C11.0304 15.4106 11.0579 15.2449 11.1263 15.0963Z" fill="#404950"/>
<path d="M7.61487 24.7023L15.0499 24.1011C15.1557 24.0945 15.2569 24.0593 15.3432 23.9993C15.4295 23.9394 15.4977 23.8567 15.5408 23.7598C15.5839 23.663 15.6004 23.5554 15.5886 23.4482C15.5767 23.3409 15.537 23.2379 15.4734 23.1496L11.219 17.017C11.1584 16.9293 11.0766 16.8584 10.9818 16.8115C10.887 16.7646 10.7825 16.7432 10.6787 16.7496C10.575 16.7559 10.4755 16.7898 10.3903 16.8477C10.3051 16.9056 10.2371 16.9857 10.1931 17.0798L7.01775 23.813C6.96984 23.9083 6.94859 24.0158 6.95625 24.1241C6.96391 24.2324 7.00018 24.3375 7.06126 24.4285C7.12234 24.5195 7.20598 24.5929 7.30339 24.6411C7.4008 24.6893 7.50839 24.7104 7.61487 24.7023Z" fill="#404950"/>
<path d="M21.7735 18.6939L17.1072 22.8119C17.0168 22.8915 16.9103 22.9504 16.7945 22.9848C16.6787 23.0191 16.5563 23.0282 16.4353 23.0114C16.3142 22.9946 16.1971 22.9523 16.0917 22.8872C15.9863 22.8222 15.8949 22.7358 15.8234 22.6338L13.011 18.6247C12.8852 18.4458 12.8279 18.2283 12.85 18.014C12.8721 17.7997 12.9721 17.6039 13.1306 17.4642L17.8141 13.3342C17.9046 13.2541 18.0114 13.1948 18.1275 13.1601C18.2436 13.1255 18.3664 13.1163 18.4879 13.1332C18.6094 13.1501 18.7269 13.1926 18.8326 13.2581C18.9382 13.3235 19.0298 13.4104 19.1012 13.513L21.894 17.5387C22.0171 17.7175 22.0728 17.9337 22.0506 18.1465C22.0284 18.3592 21.9298 18.5539 21.7735 18.6939Z" fill="#404950"/>
</svg>
