<svg width="15" height="13" viewBox="0 0 15 13" fill="none" xmlns="http://www.w3.org/2000/svg">
<path d="M6.93023 9.7066H7.58324C7.64339 9.70451 7.70042 9.67935 7.74252 9.63635C7.78462 9.59334 7.80855 9.53578 7.80935 9.4756V8.88952L7.86975 8.87401C8.20557 8.78672 8.50734 8.60035 8.73576 8.33916C8.96419 8.07798 9.1087 7.75408 9.15048 7.40962C9.17502 7.17611 9.15005 6.94004 9.0772 6.71683C9.00434 6.49361 8.88523 6.28827 8.72765 6.11421C8.57467 5.94006 8.38635 5.8005 8.17524 5.70479C7.96412 5.60909 7.73504 5.55944 7.50325 5.55914H7.01186C6.93446 5.55969 6.85787 5.5434 6.7874 5.51141C6.71693 5.47941 6.65425 5.43247 6.60372 5.37385C6.53164 5.29223 6.48508 5.19126 6.4698 5.08345C6.45452 4.97564 6.4712 4.86571 6.51777 4.76728C6.56433 4.66885 6.63874 4.58623 6.73179 4.52966C6.82483 4.4731 6.93242 4.44506 7.04124 4.44902H7.61263C7.69152 4.44986 7.76769 4.47795 7.82823 4.52853C7.88878 4.57911 7.92998 4.64907 7.94485 4.72655C7.95496 4.77898 7.9831 4.82622 8.0244 4.86007C8.06571 4.89392 8.11756 4.91223 8.17096 4.91184H8.81989C8.85105 4.91172 8.8818 4.90478 8.91 4.89153C8.9382 4.87828 8.96316 4.85902 8.98314 4.83511C9.00388 4.81217 9.0199 4.78537 9.03026 4.75624C9.04063 4.7271 9.04514 4.69621 9.04355 4.66533C9.01591 4.34645 8.88433 4.04547 8.66903 3.80863C8.45372 3.5718 8.16661 3.41221 7.8518 3.3544L7.79139 3.33889V2.7675C7.79059 2.70733 7.76666 2.64977 7.72456 2.60676C7.68247 2.56375 7.62543 2.53859 7.56528 2.5365H6.91635C6.85621 2.53859 6.79917 2.56375 6.75707 2.60676C6.71498 2.64977 6.69105 2.70733 6.69025 2.7675V3.33889L6.62984 3.3544C6.22607 3.45014 5.87199 3.69187 5.63578 4.03305C5.39957 4.37423 5.29793 4.79073 5.35042 5.20236C5.40291 5.61399 5.60583 5.99165 5.92011 6.26263C6.23438 6.53361 6.63779 6.67874 7.05267 6.67008H7.47549C7.55289 6.66954 7.62948 6.68583 7.69995 6.71782C7.77042 6.74982 7.8331 6.79675 7.88363 6.85538C7.93537 6.91374 7.97418 6.98238 7.99754 7.0568C8.02089 7.13121 8.02825 7.20972 8.01913 7.28718C7.99855 7.42382 7.9295 7.54849 7.82459 7.63841C7.71968 7.72833 7.58592 7.77751 7.44774 7.77695H6.87636C6.79747 7.7761 6.7213 7.74801 6.66075 7.69743C6.6002 7.64685 6.559 7.57689 6.54413 7.49941C6.53403 7.44698 6.50588 7.39974 6.46458 7.36589C6.42328 7.33204 6.37142 7.31373 6.31803 7.31412H5.66501C5.59721 7.31648 5.53268 7.3438 5.4838 7.39085C5.46306 7.41379 5.44705 7.44059 5.43669 7.46972C5.42632 7.49886 5.4218 7.52975 5.4234 7.56063C5.45103 7.87951 5.58261 8.18049 5.79792 8.41733C6.01322 8.65416 6.30034 8.81375 6.61515 8.87156L6.67555 8.88707V9.45846C6.67957 9.52407 6.70788 9.58584 6.75496 9.63172C6.80205 9.6776 6.86453 9.70429 6.93023 9.7066Z" fill="#645C02"/>
<path d="M3.36591 5.7501H2.54964C2.60184 4.89871 2.88908 4.07846 3.37946 3.38053C3.86984 2.68259 4.54413 2.13429 5.32742 1.79657C6.1107 1.45885 6.97228 1.34493 7.81642 1.46747C8.66056 1.59002 9.45419 1.94423 10.1091 2.49073C10.1581 2.53244 10.2211 2.5541 10.2854 2.55138C10.3498 2.54865 10.4107 2.52175 10.456 2.47604L11.0894 1.79691C11.1348 1.74654 11.1586 1.68043 11.1559 1.6127C11.1532 1.54498 11.124 1.48102 11.0747 1.43448C10.2147 0.704743 9.16746 0.230399 8.05168 0.0651662C6.93591 -0.100067 5.79616 0.0504141 4.76151 0.499566C3.72685 0.948719 2.83862 1.6786 2.19741 2.60655C1.5562 3.5345 1.18762 4.62346 1.13341 5.7501H0.424077C0.348582 5.75074 0.274604 5.77135 0.209656 5.80984C0.144708 5.84834 0.0911048 5.90333 0.0542924 5.96925C0.0174801 6.03516 -0.00123015 6.10964 6.27378e-05 6.18513C0.00135562 6.26062 0.0226055 6.33441 0.0616535 6.39903L1.52522 8.81274C1.56301 8.8749 1.61616 8.92628 1.67957 8.96194C1.74297 8.9976 1.81449 9.01634 1.88724 9.01634C1.95998 9.01634 2.0315 8.9976 2.09491 8.96194C2.15831 8.92628 2.21147 8.8749 2.24925 8.81274L3.71282 6.39903C3.75571 6.33641 3.78058 6.26321 3.78474 6.18743C3.78889 6.11164 3.77217 6.03617 3.73638 5.96924C3.7006 5.9023 3.64713 5.84647 3.58181 5.80783C3.51648 5.76919 3.4418 5.74922 3.36591 5.7501Z" fill="#645C02"/>
<path d="M14.4372 5.84472L12.9737 3.43102C12.9359 3.36886 12.8827 3.31747 12.8193 3.28181C12.7559 3.24615 12.6844 3.22742 12.6117 3.22742C12.5389 3.22742 12.4674 3.24615 12.404 3.28181C12.3406 3.31747 12.2874 3.36886 12.2496 3.43102L10.7861 5.84472C10.747 5.90934 10.7258 5.98314 10.7245 6.05862C10.7232 6.13411 10.7419 6.20859 10.7787 6.27451C10.8155 6.34042 10.8691 6.39542 10.9341 6.43391C10.999 6.4724 11.073 6.49302 11.1485 6.49366H11.9648C11.9126 7.34505 11.6253 8.16529 11.1349 8.86323C10.6446 9.56117 9.97027 10.1095 9.18698 10.4472C8.4037 10.7849 7.54212 10.8988 6.69798 10.7763C5.85384 10.6537 5.06021 10.2995 4.4053 9.75302C4.35626 9.71131 4.29328 9.68965 4.22896 9.69238C4.16464 9.6951 4.10372 9.72201 4.05838 9.76771L3.40945 10.4468C3.36409 10.4972 3.34024 10.5633 3.34299 10.6311C3.34573 10.6988 3.37486 10.7627 3.42414 10.8093C4.28488 11.5399 5.33318 12.0147 6.45009 12.1798C7.56701 12.3448 8.70782 12.1936 9.74311 11.7431C10.7784 11.2926 11.6667 10.561 12.3073 9.63129C12.9478 8.70155 13.315 7.61089 13.3671 6.48305H14.0764C14.1515 6.48434 14.2256 6.46535 14.2907 6.42807C14.3559 6.39079 14.4098 6.33661 14.4468 6.27124C14.4837 6.20587 14.5023 6.13174 14.5007 6.05667C14.499 5.9816 14.4771 5.90838 14.4372 5.84472Z" fill="#645C02"/>
</svg>
