<svg width="22" height="21" viewBox="0 0 22 21" fill="none" xmlns="http://www.w3.org/2000/svg">
<path d="M0.70141 0H8.60396C9.02481 0 9.35213 0.327325 9.35213 0.70141V8.60396C9.35213 8.97805 9.02481 9.30537 8.65072 9.30537H0.70141C0.327325 9.35213 0 9.02481 0 8.65072V0.70141C0 0.327325 0.327325 0 0.70141 0Z" fill="#404950"/>
<path d="M0.70141 11.6902H8.60396C9.02481 11.6902 9.30537 12.0175 9.30537 12.3916V20.2941C9.30537 20.6682 8.97804 20.9956 8.60396 20.9956H0.70141C0.327325 21.0423 0 20.715 0 20.3409V12.3916C0 12.0175 0.327325 11.6902 0.70141 11.6902Z" fill="#404950"/>
<path d="M12.3916 11.6902H20.2941C20.715 11.6902 20.9956 12.0175 20.9956 12.3916V20.2941C20.9956 20.6682 20.6682 20.9956 20.2941 20.9956H12.3916C11.9707 20.9956 11.6902 20.6682 11.6902 20.2941V12.3916C11.6902 12.0175 12.0175 11.6902 12.3916 11.6902Z" fill="#404950"/>
<path d="M12.3916 0H20.2941C20.715 0 21.0423 0.327325 21.0423 0.70141V8.60396C21.0423 8.97804 20.715 9.30537 20.3409 9.30537H12.3916C11.9707 9.30537 11.6902 8.97804 11.6902 8.60396V0.70141C11.6902 0.327325 12.0175 0 12.3916 0Z" fill="#404950"/>
</svg>
