<svg width="17" height="21" viewBox="0 0 17 21" fill="none" xmlns="http://www.w3.org/2000/svg">
<g clip-path="url(#clip0)">
<path d="M17.1817 20.0454C17.1817 20.5725 16.7544 20.9999 16.2272 20.9999C15.7 20.9999 15.2726 20.5725 15.2726 20.0454C15.2726 16.3551 12.2811 13.3636 8.59086 13.3636C4.90062 13.3636 1.90908 16.3551 1.90908 20.0454C1.90908 20.5725 1.48172 20.9999 0.95454 20.9999C0.427362 20.9999 0 20.5725 0 20.0454C0 15.3007 3.84626 11.4545 8.59086 11.4545C13.3355 11.4545 17.1817 15.3007 17.1817 20.0454ZM8.59086 10.4999C5.69138 10.4999 3.34089 8.14945 3.34089 5.24997C3.34089 2.35049 5.69138 0 8.59086 0C11.4903 0 13.8408 2.35049 13.8408 5.24997C13.8408 8.14945 11.4903 10.4999 8.59086 10.4999ZM8.59086 8.59087C10.436 8.59087 11.9318 7.0951 11.9318 5.24997C11.9318 3.40485 10.436 1.90908 8.59086 1.90908C6.74574 1.90908 5.24997 3.40485 5.24997 5.24997C5.24997 7.0951 6.74574 8.59087 8.59086 8.59087Z" fill="#404950"/>
</g>
<defs>
<clipPath id="clip0">
<rect width="17" height="21" fill="white"/>
</clipPath>
</defs>
</svg>
