 <svg xmlns="http://www.w3.org/2000/svg">
  <defs>
    <symbol id="mark" width="30" height="30" viewBox="0 0 30 30">
      <path d="M18.4466 7H10.5886C10.1475 7.03011 9.73587 7.23348 9.44273 7.56618C9.14958 7.89887 8.99842 8.33417 9.02191 8.778V23L14.5196 20.333L20.0172 23V8.778C20.0406 8.33352 19.8889 7.89766 19.595 7.56485C19.301 7.23204 18.8884 7.0291 18.4466 7V7Z" stroke-width="1.5"/>
    </symbol>
    <symbol id="mark_outlined" width="30" height="30" viewBox="0 0 30 30">
      <path d="M18.427 7H10.569C10.1279 7.03011 9.71634 7.23348 9.4232 7.56618C9.13005 7.89887 8.97889 8.33417 9.00238 8.778V23L14.5 20.333L19.9976 23V8.778C20.0211 8.33352 19.8694 7.89766 19.5754 7.56485C19.2814 7.23204 18.8688 7.0291 18.427 7V7Z" stroke="#BAC3C9" stroke-width="1.5"/>
    </symbol>
    <symbol id="votes" width="30" height="30" viewBox="0 0 30 30">
      <path d="M20.0986 22.896C20.4108 22.896 20.7102 22.7756 20.9309 22.5613C21.1516 22.3469 21.2756 22.0562 21.2756 21.7531C21.2756 21.45 21.1516 21.1593 20.9309 20.945C20.7102 20.7307 20.4108 20.6103 20.0986 20.6103H20.7165C21.0287 20.6103 21.3281 20.4899 21.5488 20.2755C21.7695 20.0612 21.8935 19.7705 21.8935 19.4674C21.8935 19.1643 21.7695 18.8736 21.5488 18.6593C21.3281 18.445 21.0287 18.3246 20.7165 18.3246H21.3709C21.6831 18.3246 21.9825 18.2042 22.2032 17.9898C22.4239 17.7755 22.5479 17.4848 22.5479 17.1817C22.5479 16.8786 22.4239 16.5879 22.2032 16.3736C21.9825 16.1593 21.6831 16.0389 21.3709 16.0389H21.8794C22.1915 16.0389 22.4909 15.9184 22.7116 15.7041C22.9324 15.4898 23.0564 15.1991 23.0564 14.896C23.0564 14.5929 22.9324 14.3022 22.7116 14.0879C22.4909 13.8736 22.1915 13.7531 21.8794 13.7531H17.0821L17.4822 13.232C18.4589 11.8006 18.8718 10.0755 18.6451 8.37257C18.6488 8.01296 18.5057 7.66656 18.2469 7.40928C17.9881 7.152 17.6348 7.00482 17.2645 7C16.9926 7.00643 16.7283 7.0883 16.5029 7.23594C16.2774 7.38358 16.1002 7.59081 15.9922 7.83314C15.4837 8.70057 15.12 11.2697 12.2859 12.5886L11.123 13.1097V22.0629C12.7571 22.5883 14.455 22.9034 16.1734 23H20.0975L20.0986 22.896Z" />
      <path d="M7.81738 22.9645H9.70642C9.89883 22.9639 10.0832 22.8895 10.2192 22.7573C10.3553 22.6252 10.432 22.4462 10.4326 22.2594V12.5565C10.432 12.3697 10.3553 12.1907 10.2192 12.0586C10.0832 11.9265 9.89883 11.852 9.70642 11.8514H7.81738C7.57818 11.8491 7.34091 11.8932 7.11945 11.981C6.89798 12.0687 6.69676 12.1985 6.52756 12.3627C6.35836 12.5269 6.22456 12.7222 6.134 12.9372C6.04344 13.1522 5.99794 13.3826 6.00014 13.6148V21.1657C5.99718 21.3998 6.04192 21.6322 6.13176 21.8495C6.2216 22.0668 6.35479 22.2648 6.52366 22.4319C6.69253 22.5991 6.89376 22.7322 7.11578 22.8236C7.3378 22.915 7.57624 22.9629 7.81738 22.9645Z" />
    </symbol>
    <symbol id="upload" width="30" height="30" viewBox="0 0 30 30">
      <path fill-rule="evenodd" clip-rule="evenodd" d="M15.8 9.73502V17.4012C15.8 17.8424 15.4449 18.2 15 18.2C14.5582 18.2 14.2 17.842 14.2 17.4012V9.73242L13.2964 10.636C12.9869 10.9455 12.4849 10.9454 12.1703 10.6308C11.8579 10.3184 11.8597 9.80998 12.1651 9.50462L14.4382 7.23145C14.5921 7.07753 14.7937 7.00019 14.996 7L15.0021 7.00239C15.2053 7.00282 15.4073 7.07961 15.5592 7.23145L17.8323 9.50462C18.1419 9.81416 18.1417 10.3162 17.8271 10.6308C17.5147 10.9432 17.0063 10.9414 16.701 10.636L15.8 9.73502ZM8.6 21.8H21.4V16.1963C21.4 15.7565 21.7551 15.4 22.2 15.4C22.6418 15.4 23 15.7593 23 16.1963V22.6037C23 22.8234 22.9114 23.0223 22.7672 23.1664C22.6209 23.311 22.4216 23.4 22.2011 23.4H7.79892C7.57891 23.4 7.37967 23.3117 7.23519 23.168C7.0894 23.021 7 22.822 7 22.6037V16.1963C7 15.7565 7.35509 15.4 7.8 15.4C8.24183 15.4 8.6 15.7593 8.6 16.1963V21.8Z" />
    </symbol>
    <symbol id="back" width="19" height="15" viewBox="0 0 19 15">
      <path d="M17.9027 6.58356H3.13017L8.15772 1.58378C8.33207 1.41066 8.43051 1.17537 8.43137 0.929678C8.43224 0.683982 8.33547 0.448003 8.16235 0.273656C7.98923 0.0993082 7.75394 0.000873977 7.50825 5.79172e-06C7.26255 -0.000862393 7.02657 0.0959074 6.85222 0.269027L0.23215 6.83818C0.189549 6.88097 0.150819 6.92744 0.116414 6.97706V7.00484C0.0887216 7.04709 0.065452 7.09207 0.046973 7.13909V7.1715C0.046973 7.21779 0.014567 7.26408 0.00530816 7.31038C-0.00176939 7.3719 -0.00176939 7.43403 0.00530816 7.49556C0.00530816 7.49556 0.00530816 7.52796 0.00530816 7.54185C0.00279109 7.58657 0.00279109 7.63139 0.00530816 7.6761C0.00530816 7.71777 0.028456 7.7548 0.0377149 7.79184C0.0403339 7.81181 0.0403339 7.83205 0.0377149 7.85202L0.097897 7.96313L0.125673 8.00942C0.158586 8.05616 0.194136 8.10098 0.23215 8.14367L6.82445 14.7591C7.00029 14.919 7.23089 15.0052 7.46851 14.9998C7.70612 14.9943 7.93255 14.8977 8.10091 14.73C8.26927 14.5622 8.36667 14.3361 8.37293 14.0985C8.3792 13.8609 8.29386 13.63 8.13457 13.4536L3.11628 8.43533H17.9027C18.1482 8.43533 18.3837 8.33778 18.5574 8.16414C18.731 7.99051 18.8285 7.755 18.8285 7.50944C18.8285 7.26388 18.731 7.02838 18.5574 6.85474C18.3837 6.68111 18.1482 6.58356 17.9027 6.58356Z" />
    </symbol>
    <symbol id="home" width="21" height="21" viewBox="0 0 21 21">
      <path fill-rule="evenodd" clip-rule="evenodd" d="M20.7453 8.99218C20.7219 8.96219 20.697 8.93297 20.671 8.90452L11.4505 0.428009C10.9256 -0.14267 10.0744 -0.14267 9.54948 0.428009L0.329034 8.90452C0.302976 8.93297 0.278102 8.96219 0.25465 8.99218C-0.353682 9.76935 0.201824 10.9707 1.14062 10.9707H2.31357C2.32139 10.9707 2.32791 10.9774 2.32826 10.9859L2.74637 19.9424C2.77409 20.535 3.22418 21 3.77009 21H9.14878C9.28784 21 9.4006 20.8774 9.4006 20.7263V13.4947C9.4006 13.3435 9.51336 13.221 9.65241 13.221H11.3476C11.4866 13.221 11.5994 13.3435 11.5994 13.4947V20.7267C11.5994 20.8777 11.7119 21 11.8509 21H17.2339C17.7775 21 18.2259 20.5369 18.2534 19.9467L18.6717 10.9859C18.6721 10.9774 18.6786 10.9707 18.6864 10.9707H19.8594C20.7982 10.9707 21.3537 9.76948 20.7453 8.99218Z" />
    </symbol>
    <symbol id="like" viewBox="0 0 30 30">
      <path fill-rule="evenodd" clip-rule="evenodd" d="M18.7838 9C17.1844 9 15.4278 9.83072 14.7555 11.1247C14.0826 9.83072 12.3082 9 10.7086 9C8.20944 9 4.85762 10.997 6.3838 16.446C7.75726 20.6391 12.2771 23.7815 14.0037 24.7959C14.4671 25.0681 15.0424 25.068 15.5058 24.7956C17.2306 23.7812 21.7437 20.6401 23.1169 16.446C24.6431 10.997 21.2824 9 18.7838 9Z"/>
    </symbol>
    <symbol id="upvote" width="31" height="30" viewBox="0 0 31 30">
      <path fill-rule="evenodd" clip-rule="evenodd" d="M17.0251 7.25973C16.9842 7.21976 16.9406 7.18382 16.8951 7.15185C16.3304 6.75593 15.5407 7.18398 15.5407 7.86202V10.7533C14.498 10.7341 13.4425 10.8132 12.4238 10.9776C7.17505 11.8254 4.70612 16.9105 4.06742 21.5504C4.02235 21.8776 3.9537 22.2754 4.0468 22.6002C4.09275 22.7608 4.21149 22.9123 4.37777 22.9515C4.45972 22.9707 4.53872 22.9617 4.61286 22.9333C4.78583 22.867 4.93213 22.6945 5.02554 22.5259C5.99458 20.7776 7.91639 19.874 9.8539 19.54C10.3826 19.4489 15.5407 19.2891 15.5407 19.3948V22.1381C15.5407 22.816 16.3304 23.2441 16.8951 22.8482C16.9406 22.8161 16.9842 22.7802 17.0251 22.7403L25.0264 15.7234C25.4363 15.3238 25.4363 14.6761 25.0264 14.2767L17.0251 7.25973Z" />
    </symbol>
    <symbol id="heart_mobile" width="37" height="33" viewBox="0 0 37 33">
      <g filter="url(#filter0_d)">
        <path fill-rule="evenodd" clip-rule="evenodd" d="M26.2346 0C23.0357 0 19.5225 1.66145 18.178 4.24939C16.8321 1.66145 13.2833 0 10.0843 0C5.08587 0 -1.61777 3.99392 1.43459 14.8919C4.18151 23.2783 13.2212 29.563 16.6745 31.5918C17.6012 32.1362 18.7519 32.1361 19.6785 31.5912C23.1281 29.5625 32.1543 23.2801 34.9009 14.8919C37.9531 3.99392 31.2318 0 26.2346 0Z" fill="#EDEDED" fill-opacity="0.9"/>
      </g>
      <defs>
        <filter id="filter0_d" x="0.166992" y="0" width="36" height="33" filterUnits="userSpaceOnUse" color-interpolation-filters="sRGB">
          <feFlood flood-opacity="0" result="BackgroundImageFix"/>
          <feColorMatrix in="SourceAlpha" type="matrix" values="0 0 0 0 0 0 0 0 0 0 0 0 0 0 0 0 0 0 127 0"/>
          <feOffset dy="0.5"/>
          <feGaussianBlur stdDeviation="0.25"/>
          <feColorMatrix type="matrix" values="0 0 0 0 0 0 0 0 0 0 0 0 0 0 0 0 0 0 0.15 0"/>
          <feBlend mode="normal" in2="BackgroundImageFix" result="effect1_dropShadow"/>
          <feBlend mode="normal" in="SourceGraphic" in2="effect1_dropShadow" result="shape"/>
        </filter>
      </defs>
    </symbol>
    <symbol id="shop" width="21" height="21" viewBox="0 0 21 21">
      <path d="M18.0973 21H2.90356C1.99088 21 1.24805 20.2623 1.24805 19.3561V7.875C1.24805 7.51275 1.54412 7.21875 1.90893 7.21875C2.27374 7.21875 2.56981 7.51275 2.56981 7.875V19.3561C2.56981 19.5385 2.71983 19.6875 2.90356 19.6875H18.0973C18.281 19.6875 18.431 19.5385 18.431 19.3561V7.875C18.431 7.51275 18.7264 7.21875 19.0919 7.21875C19.4574 7.21875 19.7528 7.51275 19.7528 7.875V19.3561C19.7528 20.2623 19.0099 21 18.0973 21Z" />
      <path d="M18.8646 8.53122C18.2738 8.53122 17.7193 8.30285 17.3023 7.8881C16.6262 7.21807 15.5272 7.21741 14.8511 7.8881C14.017 8.71694 12.5598 8.71694 11.7258 7.8881C11.0497 7.21807 9.94996 7.21741 9.27454 7.8881C8.44117 8.71563 6.98392 8.7176 6.14923 7.8881C5.4738 7.21741 4.37343 7.21741 3.69801 7.8881C2.94725 8.63425 1.6876 8.73072 0.830439 8.10728C0.0981801 7.57441 -0.190626 6.56248 0.129242 5.6457L1.71536 1.10118C1.94469 0.442967 2.5712 0 3.27306 0H17.7272C18.4291 0 19.0556 0.442311 19.2849 1.10118L20.8711 5.6457C21.1903 6.56248 20.9021 7.57441 20.1692 8.10794C19.7892 8.38488 19.3378 8.53122 18.8646 8.53122ZM16.077 6.07357C16.8595 6.07357 17.6413 6.36954 18.2374 6.96082C18.5395 7.26138 19.0457 7.3001 19.3894 7.04941C19.6544 6.85648 19.7528 6.44698 19.6233 6.0762C19.6227 6.0762 19.6226 6.0762 19.6226 6.0762L18.0372 1.53234C17.9916 1.40043 17.8667 1.3125 17.7279 1.3125H3.27306C3.13428 1.3125 3.01003 1.40043 2.96377 1.53103L1.37765 6.07554C1.24812 6.44632 1.34659 6.85582 1.6116 7.04876C1.95526 7.29813 2.4615 7.25941 2.76352 6.96082C3.95443 5.77761 5.8928 5.77695 7.08438 6.96082C7.4201 7.29419 8.00499 7.29288 8.34005 6.96082C9.53162 5.77761 11.4693 5.77761 12.6609 6.96082C12.9966 7.29419 13.5815 7.29354 13.9166 6.96082C14.512 6.36954 15.2945 6.07357 16.077 6.07357Z" />
      <path d="M13.1442 21H7.85717C7.49236 21 7.19629 20.7066 7.19629 20.3437V12.8002C7.19629 11.8939 7.93912 11.1562 8.8518 11.1562H12.1496C13.0623 11.1562 13.8051 11.8939 13.8051 12.8002V20.3437C13.8051 20.7066 13.5097 21 13.1442 21ZM8.51806 19.6875H12.4834V12.8002C12.4834 12.6177 12.3333 12.4687 12.1496 12.4687H8.8518C8.66808 12.4687 8.51806 12.6177 8.51806 12.8002V19.6875Z" />
      <path d="M5.21309 5.2498C5.14435 5.2498 5.07364 5.2393 5.00425 5.21633C4.65794 5.10148 4.47025 4.73005 4.58591 4.38617L5.24679 2.41743C5.36178 2.07421 5.73584 1.88653 6.08281 2.00268C6.42911 2.11752 6.61614 2.48896 6.50049 2.83283L5.8396 4.80158C5.74774 5.07589 5.49 5.2498 5.21309 5.2498Z" />
      <path d="M10.5007 5.24999C10.1359 5.24999 9.83984 4.95599 9.83984 4.59374V2.625C9.83984 2.26275 10.1359 1.96875 10.5007 1.96875C10.8655 1.96875 11.1616 2.26275 11.1616 2.625V4.59374C11.1616 4.95599 10.8655 5.24999 10.5007 5.24999Z" />
      <path d="M15.7874 5.24996C15.5105 5.24996 15.2528 5.07606 15.1609 4.80109L14.5 2.83235C14.3844 2.48847 14.5714 2.11704 14.9177 2.00219C15.2673 1.88604 15.6381 2.07372 15.7537 2.41694L16.4146 4.38568C16.5303 4.72956 16.3432 5.10099 15.9969 5.21584C15.9269 5.23946 15.8562 5.24996 15.7874 5.24996Z" />
    </symbol>
    <symbol id="follow" width="21" height="21" viewBox="0 0 21 21">
      <path fill-rule="evenodd" clip-rule="evenodd" d="M10.5 21C16.299 21 21 16.299 21 10.5C21 4.70101 16.299 0 10.5 0C4.70101 0 0 4.70101 0 10.5C0 16.299 4.70101 21 10.5 21Z" fill="#E9445A"/>
      <path fill-rule="evenodd" clip-rule="evenodd" d="M10.5 6C10.0168 6 9.625 6.39175 9.625 6.875V9.625H6.875C6.39175 9.625 6 10.0168 6 10.5C6 10.9832 6.39175 11.375 6.875 11.375H9.625V14.125C9.625 14.6082 10.0168 15 10.5 15C10.9832 15 11.375 14.6082 11.375 14.125V11.375H14.125C14.6082 11.375 15 10.9832 15 10.5C15 10.0168 14.6082 9.625 14.125 9.625H11.375V6.875C11.375 6.39175 10.9832 6 10.5 6Z" fill="white"/>
    </symbol>
    <symbol id="profile" width="18" height="21" viewBox="0 0 18 21">
      <path d="M17.1817 20.0454C17.1817 20.5725 16.7544 20.9999 16.2272 20.9999C15.7 20.9999 15.2726 20.5725 15.2726 20.0454C15.2726 16.3551 12.2811 13.3636 8.59086 13.3636C4.90062 13.3636 1.90908 16.3551 1.90908 20.0454C1.90908 20.5725 1.48172 20.9999 0.95454 20.9999C0.427362 20.9999 0 20.5725 0 20.0454C0 15.3007 3.84626 11.4545 8.59086 11.4545C13.3355 11.4545 17.1817 15.3007 17.1817 20.0454ZM8.59086 10.4999C5.69138 10.4999 3.34089 8.14945 3.34089 5.24997C3.34089 2.35049 5.69138 0 8.59086 0C11.4903 0 13.8408 2.35049 13.8408 5.24997C13.8408 8.14945 11.4903 10.4999 8.59086 10.4999ZM8.59086 8.59086C10.436 8.59086 11.9318 7.0951 11.9318 5.24997C11.9318 3.40485 10.436 1.90908 8.59086 1.90908C6.74574 1.90908 5.24997 3.40485 5.24997 5.24997C5.24997 7.0951 6.74574 8.59086 8.59086 8.59086Z" />
    </symbol>
    <symbol id="play" width="44" height="52" viewBox="0 0 44 52" >
      <path d="M0 45.7308C0.10204 50.5726 4.69124 53.5044 8.71187 51.1994L41.0442 31.3724C42.8051 30.2911 44 28.3099 44 25.9881C44 23.6662 42.8051 21.685 41.0442 20.6037L8.71187 0.804746C4.69124 -1.50025 0.10204 1.40354 0 6.24524V45.7308Z" fill="white" fill-opacity="0.65"/>
    </symbol>
    <symbol id="star" width="13" height="11" viewBox="0 0 13 11" fill="none">
      <path fill-rule="evenodd" clip-rule="evenodd" d="M6.4 0L7.83689 4.1459H12.4868L8.72494 6.7082L10.1618 10.8541L6.4 8.2918L2.63817 10.8541L4.07506 6.7082L0.313238 4.1459H4.96311L6.4 0Z" fill="#FFD100"/>
    </symbol>
    <symbol id="mobile_like" width="14" height="12" viewBox="0 0 14 12" fill="none">
      <g>
        <path fill-rule="evenodd" clip-rule="evenodd" d="M9.58782 0C8.38823 0 7.07079 0.623041 6.5666 1.59352C6.0619 0.623041 4.7311 0 3.53147 0C1.65707 0 -0.856784 1.49771 0.287847 5.58446C1.31794 8.72932 4.7078 11.0861 6.00278 11.8469C6.35032 12.051 6.78181 12.051 7.1293 11.8467C8.42288 11.0859 11.8077 8.73002 12.8377 5.58446C13.9822 1.49771 11.4618 0 9.58782 0Z" fill="#E93E09"/>
      </g>
    </symbol>
    <symbol id="cart" width="12" height="13" viewBox="0 0 12 13" fill="none">
      <path d="M11.852 2.21341C11.738 1.98484 11.5101 1.87055 11.2822 1.87055H2.96299C2.84903 1.52769 2.73507 1.24198 2.67809 1.01341C2.50715 0.499121 2.0513 0.0991211 1.53848 0.0991211C0.854709 0.0991211 0.455845 0.0991211 0.455845 0.0991211C0.227923 0.0991211 0 0.27055 0 0.556264C0 0.784835 0.170942 1.01341 0.455845 1.01341C0.455845 1.01341 0.854709 1.01341 1.59546 1.01341C1.70942 1.01341 1.82338 1.12769 1.88036 1.29912C2.27922 2.55626 3.47582 6.04198 3.70374 6.84198C3.41883 7.12769 3.24789 7.58484 3.24789 8.04198C3.24789 8.95626 3.87468 9.69912 4.67241 9.69912H8.60407C8.83199 9.69912 9.05991 9.47055 9.05991 9.24198C9.05991 9.01341 8.83199 8.78483 8.60407 8.78483H4.67241C4.38751 8.78483 4.15958 8.44198 4.15958 8.04198C4.15958 7.64198 4.38751 7.29912 4.67241 7.29912H9.23085C9.91462 7.29912 10.5414 6.84198 10.7693 6.15626L11.9659 2.95626C12.0229 2.72769 12.0229 2.44198 11.852 2.21341Z" fill="#44BA76"/>
      <path d="M5.18679 10.6134C4.78793 10.6134 4.44604 10.9563 4.44604 11.3563C4.44604 11.7563 4.78793 12.0991 5.18679 12.0991C5.58566 12.0991 5.92754 11.7563 5.92754 11.3563C5.92754 10.9563 5.58566 10.6134 5.18679 10.6134Z" fill="#44BA76"/>
      <path d="M7.92092 10.6134C7.52206 10.6134 7.18018 10.9563 7.18018 11.3563C7.18018 11.7563 7.52206 12.0991 7.92092 12.0991C8.31979 12.0991 8.66167 11.7563 8.66167 11.3563C8.66167 10.9563 8.31979 10.6134 7.92092 10.6134Z" fill="#44BA76"/>
    </symbol>
  </defs>
</svg>