<svg xmlns="http://www.w3.org/2000/svg">
  <defs>
    <symbol id="home_filled">
      <path d="M7.82414 17.8833V12.3035H12.1707V17.8833C12.1675 18.1759 12.2806 18.4578 12.485 18.6671C12.6895 18.8765 12.9686 18.996 13.2611 18.9996H16.5208C16.8133 18.996 17.0925 18.8765 17.2969 18.6671C17.5014 18.4578 17.6144 18.1759 17.6113 17.8833V10.0717H19.4488C19.5612 10.0709 19.6707 10.036 19.7628 9.97156C19.855 9.90714 19.9254 9.81627 19.9648 9.71094C20.0042 9.60562 20.0107 9.49082 19.9835 9.38172C19.9562 9.27262 19.8965 9.17435 19.8123 9.09993L10.7248 0.697451C10.5266 0.515126 10.2671 0.41394 9.99785 0.41394C9.72856 0.41394 9.4691 0.515126 9.27086 0.697451L0.183436 9.09993C0.100589 9.17498 0.0421823 9.27319 0.015785 9.38183C-0.0106123 9.49048 -0.00378371 9.60455 0.0353859 9.70927C0.0745555 9.81399 0.144261 9.90452 0.235469 9.96915C0.326678 10.0338 0.435186 10.0695 0.546933 10.0717H2.39168V17.8833C2.38853 18.1759 2.5016 18.4578 2.70605 18.6671C2.91051 18.8765 3.18965 18.996 3.48217 18.9996H6.74183C7.03292 18.9939 7.30997 18.8734 7.51267 18.6643C7.71537 18.4552 7.82731 18.1745 7.82414 17.8833Z"/>
    </symbol>
    <symbol id="home_outlined" width="20" height="20" viewBox="0 0 20 20">
      <path d="M16.0158 20H3.90614C3.14333 20 2.57122 19.4258 2.57122 18.756L2.18982 10.4306H1.33165C0.759545 10.4306 0.282788 10.1435 0.0920852 9.56938C-0.0986177 9.09091 -0.00326622 8.51675 0.473491 8.13397L9.24582 0.287081C9.72258 -0.0956938 10.39 -0.0956938 10.8668 0.287081L19.5438 8.13397C19.9252 8.51675 20.1159 9.09091 19.9252 9.56938C19.7345 10.0478 19.2577 10.4306 18.6856 10.4306H17.9228L17.446 18.6603C17.3507 19.4258 16.7786 20 16.0158 20ZM9.91328 1.24402L1.2363 9.09091L1.33165 9.1866H3.33403L3.81079 18.6603C3.81079 18.756 3.81079 18.756 3.90614 18.756H16.1111C16.2065 18.756 16.2065 18.756 16.2065 18.6603L16.7786 9.2823H18.6856L19.067 8.61244L18.6856 9.09091L9.91328 1.24402Z" />
      <path d="M10.963 20.0001H8.86523V12.8231C8.86523 12.7274 8.96059 12.536 9.15129 12.536H10.7723C10.8676 12.536 11.0583 12.6317 11.0583 12.8231V20.0001H10.963Z" />
    </symbol>
    <symbol id="shop_outlined" width="20" height="20" viewBox="0 0 20 20">
      <path d="M17.2356 20H2.7654C1.89618 20 1.18872 19.2975 1.18872 18.4343V7.5C1.18872 7.155 1.4707 6.875 1.81813 6.875C2.16557 6.875 2.44755 7.155 2.44755 7.5V18.4343C2.44755 18.6081 2.59042 18.75 2.7654 18.75H17.2356C17.4106 18.75 17.5534 18.6081 17.5534 18.4343V7.5C17.5534 7.155 17.8348 6.875 18.1829 6.875C18.5309 6.875 18.8123 7.155 18.8123 7.5V18.4343C18.8123 19.2975 18.1048 20 17.2356 20Z" />
      <path d="M17.9663 8.12497C17.4036 8.12497 16.8755 7.90747 16.4784 7.51247C15.8345 6.87435 14.7878 6.87373 14.1439 7.51247C13.3496 8.30185 11.9617 8.30185 11.1674 7.51247C10.5235 6.87435 9.47616 6.87373 8.8329 7.51247C8.03921 8.3006 6.65135 8.30247 5.85641 7.51247C5.21315 6.87373 4.16517 6.87373 3.52191 7.51247C2.8069 8.2231 1.60724 8.31497 0.790894 7.72122C0.0935049 7.21372 -0.181548 6.24998 0.123087 5.37686L1.63368 1.04875C1.85208 0.421873 2.44877 0 3.1172 0H16.8831C17.5515 0 18.1482 0.421249 18.3666 1.04875L19.8772 5.37686C20.1812 6.24998 19.9068 7.21372 19.2088 7.72185C18.8468 7.9856 18.417 8.12497 17.9663 8.12497ZM15.3114 5.78435C16.0567 5.78435 16.8013 6.06623 17.369 6.62935C17.6566 6.9156 18.1388 6.95248 18.4661 6.71373C18.7185 6.52998 18.8122 6.13998 18.6889 5.78685C18.6882 5.78685 18.6882 5.78685 18.6882 5.78685L17.1783 1.45937C17.1348 1.33375 17.0159 1.25 16.8837 1.25H3.1172C2.98503 1.25 2.8667 1.33375 2.82264 1.45812L1.31205 5.78623C1.18868 6.13935 1.28247 6.52935 1.53486 6.7131C1.86215 6.9506 2.34428 6.91373 2.63193 6.62935C3.76613 5.50248 5.61219 5.50186 6.74702 6.62935C7.06677 6.94685 7.6238 6.9456 7.94291 6.62935C9.07774 5.50248 10.9232 5.50248 12.058 6.62935C12.3777 6.94685 12.9348 6.94623 13.2539 6.62935C13.821 6.06623 14.5662 5.78435 15.3114 5.78435Z" />
      <path d="M12.5182 20H7.48293C7.13549 20 6.85352 19.7206 6.85352 19.375V12.1906C6.85352 11.3275 7.56098 10.625 8.43019 10.625H11.571C12.4402 10.625 13.1476 11.3275 13.1476 12.1906V19.375C13.1476 19.7206 12.8663 20 12.5182 20ZM8.11234 18.75H11.8888V12.1906C11.8888 12.0169 11.7459 11.875 11.571 11.875H8.43019C8.25522 11.875 8.11234 12.0169 8.11234 12.1906V18.75Z" />
      <path d="M4.9648 4.9999C4.89934 4.9999 4.83199 4.9899 4.7659 4.96803C4.43609 4.85865 4.25734 4.50491 4.36748 4.17741L4.9969 2.30241C5.10641 1.97554 5.46266 1.79679 5.7931 1.90741C6.12292 2.01679 6.30104 2.37054 6.19089 2.69804L5.56148 4.57303C5.47399 4.83428 5.22852 4.9999 4.9648 4.9999Z" />
      <path d="M10.0008 5.00011C9.65331 5.00011 9.37134 4.72011 9.37134 4.37511V2.50012C9.37134 2.15512 9.65331 1.87512 10.0008 1.87512C10.3482 1.87512 10.6302 2.15512 10.6302 2.50012V4.37511C10.6302 4.72011 10.3482 5.00011 10.0008 5.00011Z" />
      <path d="M15.0355 4.9998C14.7718 4.9998 14.5263 4.83417 14.4389 4.5723L13.8094 2.6973C13.6993 2.36981 13.8774 2.01606 14.2072 1.90668C14.5402 1.79606 14.8933 1.97481 15.0034 2.30168L15.6329 4.17667C15.743 4.50417 15.5649 4.85792 15.2351 4.9673C15.1683 4.9898 15.101 4.9998 15.0355 4.9998Z" />
    </symbol>
    <symbol id="shop_filled" width="20" height="20" viewBox="0 0 20 20">
      <path d="M12.1484 12.1905V20H8.32666V12.1905C8.32666 12 8.51775 11.9048 8.61329 11.9048H11.7662C11.9573 11.9048 12.1484 12 12.1484 12.1905Z" />
      <path d="M18.6459 1.04762C18.4548 0.380952 17.786 0 17.1172 0H3.35893C2.69012 0 2.11686 0.380952 1.92578 1.04762L0.397085 5.33333C0.205999 6 0.397084 6.95238 1.92578 6.95238C2.21241 6.95238 2.69012 6.7619 2.88121 6.66667C4.02773 5.52381 5.84305 5.52381 6.98957 6.66667C7.2762 6.95238 7.84946 6.95238 8.23163 6.66667C9.37815 5.52381 11.1935 5.52381 12.34 6.66667C12.6266 6.95238 13.1999 6.95238 13.5821 6.66667C14.1553 6.09524 14.9197 5.80952 15.684 5.80952C16.4484 5.80952 17.2127 6.09524 17.786 6.66667C17.9771 6.85714 18.4548 6.95238 18.6459 6.95238C19.8879 6.95238 20.5567 6.19048 20.2701 5.33333L18.6459 1.04762ZM6.41631 2.66667L5.74751 4.57143C5.65197 4.85714 5.46088 5.04762 5.17425 5.04762C5.07871 5.04762 5.07871 5.04762 4.98316 5.04762C4.60099 4.95238 4.50545 4.57143 4.60099 4.28571L5.26979 2.38095C5.36534 2.09524 5.74751 1.90476 6.03414 2C6.32077 2 6.51186 2.38095 6.41631 2.66667ZM10.9068 4.38095C10.9068 4.7619 10.6202 5.04762 10.238 5.04762C9.85587 5.04762 9.56924 4.7619 9.56924 4.38095V2.47619C9.56924 2.19048 9.85587 1.90476 10.238 1.90476C10.6202 1.90476 10.9068 2.19048 10.9068 2.47619V4.38095ZM15.4929 4.95238C15.3974 4.95238 15.3974 4.95238 15.3018 4.95238C15.0152 4.95238 14.8241 4.7619 14.7286 4.47619L14.0598 2.57143C13.9642 2.28571 14.1553 1.90476 14.4419 1.80952C14.7286 1.71429 15.1108 1.90476 15.2063 2.19048L15.8751 4.09524C15.9706 4.47619 15.7796 4.85714 15.4929 4.95238ZM16.735 7.52381C16.0662 6.85714 15.0152 6.85714 14.3464 7.52381C13.5821 8.28571 12.1489 8.28571 11.3846 7.52381C10.7158 6.85714 9.66479 6.85714 8.99598 7.52381C8.23164 8.28571 6.79849 8.28571 6.03414 7.52381C5.36534 6.85714 4.31436 6.85714 3.64556 7.52381C3.26338 7.90476 2.59458 8.19048 2.02132 8.09524C1.73469 8.09524 1.54361 8 1.35252 7.90476V18.381C1.35252 19.2381 2.02132 20 2.88121 20H6.98957V12.1905C6.98957 11.3333 7.65838 10.6667 8.61381 10.6667H11.7667C12.6266 10.6667 13.391 11.3333 13.391 12.1905V20H17.4993C18.3592 20 19.1236 19.3333 19.1236 18.381V7.90476C18.8369 8 18.5503 8.09524 18.2637 8.09524C17.6904 8.09524 17.1172 7.90476 16.735 7.52381Z" />
    </symbol>
    <symbol id="cart_outlined" width="20" height="20" viewBox="0 0 20 20">
      <path d="M19.7119 3.44498C19.5223 3.0622 19.1432 2.87081 18.7642 2.87081H5.02273C4.8332 2.39234 4.64366 1.91388 4.54889 1.5311C4.26458 0.574163 3.50644 0 2.65352 0C1.42153 0 0.758148 0 0.758148 0C0.379074 0 0 0.287081 0 0.76555C0 1.14833 0.284306 1.5311 0.758148 1.5311C0.758148 1.5311 1.42153 1.5311 2.65352 1.5311C2.84306 1.5311 3.03259 1.72249 3.12736 2.00957C3.79074 4.11483 5.68611 9.95215 6.15995 11.1962C5.68611 11.6746 5.30704 12.4402 5.30704 13.2057C5.30704 14.7368 6.34949 15.9809 7.67625 15.9809H14.2153C14.5944 15.9809 14.9734 15.5981 14.9734 15.2153C14.9734 14.8325 14.5944 14.4498 14.2153 14.4498H7.77102C7.29718 14.4498 6.9181 13.8756 6.9181 13.2057C6.9181 12.5359 7.29718 11.9617 7.77102 11.9617H15.3525C16.4897 11.9617 17.5322 11.1962 17.9113 10.0478L19.9014 4.689C20.0909 4.30622 19.9962 3.82775 19.7119 3.44498ZM16.4897 9.47368C16.3002 10.0478 15.8263 10.4306 15.3525 10.4306H7.77102C7.67625 10.4306 7.58148 10.4306 7.48671 10.4306C7.10764 9.47368 6.25472 6.69857 5.49657 4.40191H18.3851L16.4897 9.47368Z" />
      <path d="M8.62408 17.512C7.9607 17.512 7.39209 18.0861 7.39209 18.756C7.39209 19.4258 7.9607 20 8.62408 20C9.28746 20 9.85607 19.4258 9.85607 18.756C9.85607 18.0861 9.28746 17.512 8.62408 17.512Z" />
      <path d="M13.1722 17.512C12.5088 17.512 11.9402 18.0861 11.9402 18.756C11.9402 19.4258 12.5088 20 13.1722 20C13.8356 20 14.4042 19.4258 14.4042 18.756C14.4042 18.0861 13.8356 17.512 13.1722 17.512Z" />
    </symbol>
    <symbol id="cart_filled" width="20" height="20" viewBox="0 0 20 20">
      <path d="M19.7533 3.52381C19.5633 3.14286 19.1835 2.95238 18.8036 2.95238H4.93832C4.74838 2.38095 4.55845 1.90476 4.46348 1.52381C4.17858 0.666667 3.41884 0 2.56413 0C1.42452 0 0.759742 0 0.759742 0C0.379872 0 0 0.285714 0 0.761905C0 1.14286 0.284904 1.52381 0.759742 1.52381C0.759742 1.52381 1.42452 1.52381 2.65909 1.52381C2.84903 1.52381 3.03897 1.71429 3.13393 2C3.79871 4.09524 5.79303 9.90476 6.1729 11.2381C5.69806 11.7143 5.41316 12.4762 5.41316 13.2381C5.41316 14.7619 6.4578 16 7.78735 16H14.3401C14.72 16 15.0999 15.619 15.0999 15.2381C15.0999 14.8571 14.72 14.4762 14.3401 14.4762H7.78735C7.31251 14.4762 6.93264 13.9048 6.93264 13.2381C6.93264 12.5714 7.31251 12 7.78735 12H15.3848C16.5244 12 17.569 11.2381 17.9489 10.0952L19.9432 4.76191C20.0382 4.38095 20.0382 3.90476 19.7533 3.52381Z" />
      <path d="M8.64279 17.5237C7.97801 17.5237 7.4082 18.0952 7.4082 18.7618C7.4082 19.4285 7.97801 19.9999 8.64279 19.9999C9.30756 19.9999 9.87736 19.4285 9.87736 18.7618C9.87736 18.0952 9.30756 17.5237 8.64279 17.5237Z" />
      <path d="M13.1999 17.5237C12.5351 17.5237 11.9653 18.0952 11.9653 18.7618C11.9653 19.4285 12.5351 19.9999 13.1999 19.9999C13.8647 19.9999 14.4345 19.4285 14.4345 18.7618C14.4345 18.0952 13.8647 17.5237 13.1999 17.5237Z" />
    </symbol>
    <symbol id="search">
      <path d="M15.7607 13.8222C16.8671 12.3778 17.5445 10.5778 17.5445 8.62222C17.5445 3.86667 13.593 0 8.76094 0C3.92887 0 0 3.86667 0 8.62222C0 13.3778 3.92887 17.2444 8.76094 17.2444C10.5673 17.2444 12.2608 16.6889 13.6607 15.7556C13.6833 15.7778 13.6833 15.7778 13.7059 15.8L17.5445 19.5778C17.8154 19.8444 18.1993 20 18.5605 20C18.9218 20 19.3057 19.8667 19.5766 19.5778C20.1411 19.0222 20.1411 18.1333 19.5766 17.5778L15.7607 13.8222ZM8.76094 14.4222C5.50946 14.4222 2.86763 11.8222 2.86763 8.62222C2.86763 5.42222 5.50946 2.82222 8.76094 2.82222C12.0124 2.82222 14.6542 5.42222 14.6542 8.62222C14.6542 11.8222 12.0124 14.4222 8.76094 14.4222Z"/>
    </symbol>
    <symbol id="bell">
      <path d="M7.27609 21.4715H12.6001C12.3376 21.9347 11.9522 22.3209 11.484 22.5899C11.0157 22.8588 10.4819 23.0007 9.93811 23.0007C9.39432 23.0007 8.86048 22.8588 8.39227 22.5899C7.92405 22.3209 7.53859 21.9347 7.27609 21.4715ZM19.7766 19.6368L18.4297 16.7319V11.0381C18.4562 9.17852 17.8658 7.36015 16.7462 5.85253C15.6265 4.34491 14.0371 3.22828 12.2137 2.66817C12.1105 2.15323 11.8269 1.68899 11.4114 1.35446C10.9958 1.01993 10.4739 0.835791 9.93448 0.833374C9.39668 0.841582 8.87781 1.02782 8.46346 1.36137C8.04912 1.69493 7.76404 2.15587 7.65526 2.66817C6.33377 3.03644 5.12092 3.70427 4.11626 4.61682C3.26364 5.41304 2.58497 6.3684 2.12088 7.42569C1.6568 8.48299 1.41685 9.62048 1.41539 10.7701V16.7319L0.0685781 19.6368C0.0175484 19.7527 -0.00552772 19.8784 0.00111651 20.0043C0.00776074 20.1302 0.0439497 20.253 0.106911 20.3632C0.17629 20.4708 0.273198 20.559 0.388151 20.6192C0.503105 20.6795 0.632164 20.7096 0.762703 20.7068H19.0047C19.1353 20.7096 19.2643 20.6795 19.3793 20.6192C19.4942 20.559 19.5911 20.4708 19.6605 20.3632C19.7431 20.2624 19.7973 20.1423 19.8176 20.015C19.838 19.8876 19.8238 19.7572 19.7766 19.6368Z"/>
    </symbol>
    <symbol id="more">
      <ellipse cx="2.81876" cy="2.7" rx="2.80002" ry="2.7"/>
      <ellipse cx="10.0189" cy="2.7" rx="2.80002" ry="2.7"/>
      <ellipse cx="17.2188" cy="2.7" rx="2.80002" ry="2.7"/>
    </symbol>
    <svg id="signup_outlined" width="19" height="21" viewBox="0 0 19 21" fill="none">
      <path d="M18.1817 20.0454C18.1817 20.5725 17.7544 20.9999 17.2272 20.9999C16.7 20.9999 16.2726 20.5725 16.2726 20.0454C16.2726 16.3551 13.2811 13.3636 9.59086 13.3636C5.90062 13.3636 2.90908 16.3551 2.90908 20.0454C2.90908 20.5725 2.48172 20.9999 1.95454 20.9999C1.42736 20.9999 1 20.5725 1 20.0454C1 15.3007 4.84626 11.4545 9.59086 11.4545C14.3355 11.4545 18.1817 15.3007 18.1817 20.0454ZM9.59086 10.4999C6.69138 10.4999 4.34089 8.14945 4.34089 5.24997C4.34089 2.35049 6.69138 0 9.59086 0C12.4903 0 14.8408 2.35049 14.8408 5.24997C14.8408 8.14945 12.4903 10.4999 9.59086 10.4999ZM9.59086 8.59086C11.436 8.59086 12.9318 7.0951 12.9318 5.24997C12.9318 3.40485 11.436 1.90908 9.59086 1.90908C7.74574 1.90908 6.24997 3.40485 6.24997 5.24997C6.24997 7.0951 7.74574 8.59086 9.59086 8.59086Z" fill="#BFBFBF"/>
    </svg>
    <svg id="signup_filled" width="19" height="21" viewBox="0 0 19 21" fill="none">
      <path d="M18.1817 20.0454C18.1817 20.5725 17.7544 20.9999 17.2272 20.9999C16.7 20.9999 16.2726 20.5725 16.2726 20.0454C16.2726 16.3551 13.2811 13.3636 9.59086 13.3636C5.90062 13.3636 2.90908 16.3551 2.90908 20.0454C2.90908 20.5725 2.48172 20.9999 1.95454 20.9999C1.42736 20.9999 1 20.5725 1 20.0454C1 15.3007 4.84626 11.4545 9.59086 11.4545C14.3355 11.4545 18.1817 15.3007 18.1817 20.0454ZM9.59086 10.4999C6.69138 10.4999 4.34089 8.14945 4.34089 5.24997C4.34089 2.35049 6.69138 0 9.59086 0C12.4903 0 14.8408 2.35049 14.8408 5.24997C14.8408 8.14945 12.4903 10.4999 9.59086 10.4999ZM9.59086 8.59086C11.436 8.59086 12.9318 7.0951 12.9318 5.24997C12.9318 3.40485 11.436 1.90908 9.59086 1.90908C7.74574 1.90908 6.24997 3.40485 6.24997 5.24997C6.24997 7.0951 7.74574 8.59086 9.59086 8.59086Z" fill="#BFBFBF"/>
    </svg>
  </defs>
</svg>
