<svg width="35" height="35" viewBox="0 0 35 35" fill="none" xmlns="http://www.w3.org/2000/svg">
<path d="M31.4784 22.769C31.7847 22.7444 31.8767 22.4517 32.0056 22.1714C32.487 21.1357 31.8605 18.9895 31.3407 17.5327C30.8799 16.1756 30.2934 14.8619 29.5893 13.6097C29.5438 13.5329 29.4824 13.4667 29.4096 13.4158C29.3368 13.3648 29.2543 13.3304 29.168 13.3149C29.0817 13.2994 28.9937 13.3032 28.9102 13.326C28.8268 13.3489 28.7499 13.3902 28.6851 13.4471L23.5213 17.9602C23.412 18.0556 23.3427 18.1897 23.3269 18.3368C23.311 18.4838 23.3497 18.6334 23.4355 18.7566C23.5579 18.933 23.7106 19.153 23.8893 19.4107C25.1663 21.2759 25.5804 21.7461 25.9423 22.276C26.1197 22.5317 26.2723 22.7517 26.401 22.9003C26.4638 22.978 26.5442 23.0393 26.635 23.0788C26.7258 23.1183 26.824 23.1347 26.9211 23.1267L28.7552 22.9817L31.4784 22.769Z" fill="#404950"/>
<path d="M16.9474 2.65447C17.0063 2.52855 17.0908 2.41715 17.1954 2.32724C17.3 2.23732 17.4225 2.17083 17.5553 2.13192C17.688 2.09301 17.8282 2.08251 17.9669 2.10109C18.1057 2.11967 18.2401 2.16692 18.3618 2.23989C18.9711 2.60701 19.8287 3.12772 20.7982 3.74411C21.7997 4.41436 22.75 5.16197 23.64 5.97998C23.7495 6.07818 23.8379 6.19815 23.8993 6.33196C23.9607 6.46576 23.9937 6.61033 23.9961 6.75609C23.9985 6.90184 23.9702 7.04546 23.9132 7.1774C23.8562 7.30934 23.7717 7.4266 23.6654 7.52139L19.5354 11.1939C19.4305 11.2878 19.3064 11.3576 19.1713 11.3986C19.0362 11.4397 18.8931 11.4511 18.7514 11.4322C18.6097 11.4132 18.4726 11.3643 18.3491 11.2887C18.2256 11.213 18.1184 11.1123 18.0345 10.9932L15.3817 7.25506C15.2738 7.10242 15.2075 6.92452 15.1898 6.73999C15.1721 6.55547 15.2036 6.37112 15.281 6.20626L16.9474 2.65447Z" fill="#404950"/>
<path d="M28.5579 11.6676C27.7209 10.1462 26.5888 8.92324 25.5146 7.8041C25.3368 7.61855 25.0975 7.50708 24.8462 7.4928C24.595 7.47852 24.351 7.56254 24.165 7.72742L19.6141 11.7418C19.4355 11.899 19.3224 12.1191 19.2966 12.3602C19.2707 12.6012 19.3339 12.8464 19.474 13.0487C19.9731 13.7682 20.695 14.8088 20.9411 15.1636C21.2395 15.5938 21.7346 16.3073 22.1361 16.8861C22.2166 17.0019 22.3198 17.1 22.439 17.174C22.5581 17.248 22.6906 17.2963 22.8276 17.3156C22.9647 17.3349 23.1033 17.3249 23.2345 17.2862C23.3656 17.2475 23.4863 17.1809 23.5887 17.0909L28.3521 12.888C28.52 12.7436 28.6321 12.5437 28.6695 12.3216C28.707 12.0995 28.6676 11.8687 28.5579 11.6676Z" fill="#404950"/>
<path d="M17.8495 23.8504C20.293 23.6556 22.7461 23.4746 25.1862 23.2792C25.2493 23.2747 25.3096 23.2533 25.361 23.2173C25.4123 23.1813 25.453 23.1319 25.4788 23.0741C25.5046 23.0163 25.5146 22.9522 25.5079 22.8881C25.5012 22.8241 25.4779 22.7624 25.4405 22.7094L22.9035 19.0524C22.8737 19.0094 22.8356 18.9731 22.7914 18.9457C22.7473 18.9182 22.6983 18.9003 22.6475 18.8932C22.5968 18.886 22.5454 18.8897 22.4969 18.904C22.4483 18.9183 22.4036 18.9429 22.3657 18.9763L17.5706 23.2071C17.514 23.2568 17.4749 23.3239 17.459 23.3987C17.4432 23.4736 17.4513 23.5524 17.4823 23.6238C17.5132 23.6952 17.5654 23.7556 17.6314 23.7963C17.6974 23.837 17.7737 23.856 17.8495 23.8504Z" fill="#404950"/>
<path d="M11.1263 15.0963C12.1135 12.9904 13.0932 10.8779 14.079 8.77002C14.1473 8.62509 14.2522 8.50179 14.3834 8.41217C14.5146 8.32256 14.6677 8.26969 14.8276 8.25875C14.9875 8.24781 15.1488 8.27917 15.2958 8.34975C15.4427 8.42033 15.5703 8.52773 15.666 8.66144L17.765 11.6094C17.9041 11.8011 17.9691 12.0363 17.9472 12.2687C17.9253 12.5011 17.8181 12.7141 17.6467 12.8659L13.0603 16.9108C12.964 16.9958 12.8504 17.0587 12.727 17.0954C12.6036 17.1321 12.4731 17.1418 12.344 17.1239C12.2149 17.106 12.0901 17.0608 11.9777 16.9914C11.8653 16.922 11.7679 16.8299 11.6918 16.721L11.2187 16.0392C11.1222 15.9018 11.0628 15.742 11.0465 15.5763C11.0303 15.4106 11.0578 15.2449 11.1263 15.0963Z" fill="#404950"/>
<path d="M7.61481 24.7023L15.0498 24.1011C15.1556 24.0945 15.2569 24.0593 15.3432 23.9993C15.4294 23.9394 15.4976 23.8567 15.5407 23.7598C15.5839 23.663 15.6004 23.5554 15.5885 23.4482C15.5767 23.3409 15.5369 23.2379 15.4734 23.1496L11.2189 17.017C11.1583 16.9293 11.0765 16.8584 10.9817 16.8115C10.887 16.7646 10.7825 16.7432 10.6787 16.7496C10.5749 16.7559 10.4755 16.7898 10.3903 16.8477C10.3051 16.9056 10.2371 16.9857 10.1931 17.0798L7.01769 23.813C6.96978 23.9083 6.94853 24.0158 6.95619 24.1241C6.96385 24.2324 7.00012 24.3375 7.0612 24.4285C7.12228 24.5195 7.20591 24.5929 7.30333 24.6411C7.40074 24.6893 7.50833 24.7104 7.61481 24.7023Z" fill="#404950"/>
<path d="M21.7735 18.6939L17.1072 22.8119C17.0168 22.8915 16.9103 22.9504 16.7945 22.9848C16.6787 23.0191 16.5563 23.0282 16.4353 23.0114C16.3142 22.9946 16.1971 22.9523 16.0917 22.8872C15.9863 22.8222 15.8949 22.7358 15.8234 22.6338L13.011 18.6247C12.8852 18.4458 12.8279 18.2283 12.85 18.014C12.8721 17.7997 12.9721 17.6039 13.1306 17.4642L17.8141 13.3342C17.9046 13.2541 18.0114 13.1948 18.1275 13.1601C18.2436 13.1255 18.3664 13.1163 18.4879 13.1332C18.6094 13.1501 18.7269 13.1926 18.8326 13.2581C18.9382 13.3235 19.0298 13.4104 19.1012 13.513L21.894 17.5387C22.0171 17.7175 22.0728 17.9337 22.0506 18.1465C22.0284 18.3592 21.9298 18.5539 21.7735 18.6939Z" fill="#404950"/>
</svg>
