<svg width="135" height="135" viewBox="0 0 135 135" fill="none" xmlns="http://www.w3.org/2000/svg">
<path d="M120.321 78.5007L120.31 78.5187L120.344 78.5272L120.321 78.5007Z" fill="white"/>
<path d="M120.223 78.39L120.321 78.5025C120.364 78.4287 120.342 78.39 120.223 78.39Z" fill="white"/>
<path d="M15.949 48.1383C16.3261 48.3642 16.6951 48.5883 16.9858 48.6873L15.949 48.1383Z" fill="white"/>
<path d="M15.9488 48.1382C15.6159 47.9249 15.2658 47.7398 14.9021 47.5847L15.9488 48.1382Z" fill="white"/>
<path d="M19.0693 45.1333C19.1269 45.2584 19.6993 46.4257 19.7434 46.4833L19.0693 45.1333Z" fill="white"/>
<path d="M22.6233 46.2978C22.734 46.0521 23.2047 45.1809 23.2362 44.9478L22.6233 46.2978Z" fill="white"/>
<path d="M25.0515 48.6144L24.8301 48.7494L25.0515 48.6144Z" fill="white"/>
<path d="M25.0515 48.6143L26.2395 47.8943C26.073 47.9699 25.4277 48.3803 25.0515 48.6143Z" fill="white"/>
<path d="M123.918 71.8568C125.939 71.8064 128.001 71.7668 129.558 71.4968L123.918 71.8568Z" fill="white"/>
<path d="M14.2281 105.199C15.9705 106.729 18.4833 109.285 20.6991 110.642C21.8817 111.362 21.8889 111.902 22.5414 111.151C23.1462 110.454 23.8014 110.155 23.3217 109.933C23.8005 109.975 27.1296 105.289 27.1341 105.266C27.2952 104.397 26.5986 104.207 25.8426 104.186C26.4691 103.772 27.0702 103.321 27.6426 102.836C28.6596 103.573 29.5821 104.03 30.0807 103.826C31.9761 103.046 43.0047 94.5837 49.8969 89.7858C50.1363 91.5786 50.3838 92.8404 50.5935 92.8404C54.0981 92.8404 56.7819 92.6937 59.6331 92.5641C63.2466 97.353 67.3443 100.242 83.1717 105.483C83.1717 105.483 83.3211 105.187 83.6217 104.614C84.2913 104.936 85.1859 105.287 85.8546 105.261C85.2786 105.398 84.7404 105.014 84.537 105.308C84.4263 105.467 84.4245 106.421 84.4245 107.123C84.4245 107.483 84.0555 109.842 83.8845 110.038C83.6802 110.265 83.3652 110.374 82.6245 110.911C82.2726 111.164 81.6075 111.315 81.4752 111.948C81.4248 112.189 81.2052 112.758 81.2601 113.036C81.0045 113.449 80.6823 114.999 82.1232 114.937C84.1176 114.847 87.282 115.758 88.7571 114.203C90.8847 111.961 91.1502 110.814 92.5929 108.278C93.0312 107.508 94.5729 104.664 93.1437 104.358C92.6793 104.259 92.6541 103.954 92.1789 104.121C92.0628 103.81 91.6389 103.558 90.8163 103.052C89.5158 102.248 86.6763 100.197 86.8401 102.152C86.3631 101.864 85.87 101.603 85.3632 101.371C85.5144 101.094 85.6734 100.804 85.8402 100.502C85.3272 99.8397 79.2702 96.6825 74.8791 92.3049L91.9503 92.1627C91.3707 90.306 84.3624 77.5008 77.004 66.0392H77.184H76.9977C75.6684 63.9692 74.3265 61.9397 73.0098 60.029C79.5033 62.594 86.427 64.7594 90.09 66.5369C90.27 66.6269 90.4347 66.1013 90.5688 65.3156C93.4317 65.4515 93.0645 68.9246 96.0354 67.5656C96.1597 67.6228 96.2871 67.673 96.417 67.716L96.5664 67.7636L96.6564 67.8266C97.3359 68.282 100.256 69.5177 101.606 69.8462C101.049 71.4411 100.321 72.9747 99.783 75.1455L101.714 73.6847C101.714 73.4462 102.761 70.3458 103.134 69.1217L103.224 69.1551C102.693 70.6203 102.162 72.0422 101.772 73.6847C100.962 74.7152 98.8146 75.5289 100.174 75.7629C104.346 76.4829 115.611 79.8129 118.134 79.8129C118.418 79.8129 120.054 78.8652 120.3 78.5133L120.097 78.4602C120.662 78.0273 121.566 74.1402 122.077 71.9685L123.909 71.8523C123.295 71.8676 122.683 71.8838 122.091 71.9072C122.25 71.2367 122.368 70.7372 122.424 70.5752C122.585 70.0739 122.715 69.5629 122.811 69.0452C123.707 69.011 124.576 68.9399 124.952 68.8193L122.85 68.9291C123.531 65.4668 124.002 59.4989 124.481 58.4891C124.686 58.0553 121.647 57.9635 121.008 57.7592C120.018 57.4442 107.673 55.4309 106.444 55.4309C105.624 55.5263 105.108 56.0456 104.559 56.4317C103.898 56.8988 103.769 58.5152 103.809 59.3522C103.816 59.5373 103.814 59.7227 103.802 59.9075C101.164 59.4125 95.8212 58.9688 94.6899 60.92C94.5621 61.0099 94.4482 61.1178 94.3515 61.2404C94.3002 61.3052 94.2525 61.3709 94.2075 61.4366C93.186 61.3718 92.1222 61.3799 91.5165 61.2314C91.5165 61.2314 91.0449 61.2314 90.9936 61.2269C91.0413 60.5258 91.0656 60.0443 91.0656 60.0443C88.3242 59.1443 77.1219 54.3959 68.904 50.5862C68.9442 50.5838 68.9834 50.5731 69.0192 50.5547H68.8311C65.4462 48.9842 62.5761 47.5766 61.0254 46.6694C59.7573 45.9278 58.581 45.5831 57.5604 45.5561C57.5658 45.5147 57.5712 45.4742 57.5775 45.4328C57.5775 45.4193 57.5775 45.4058 57.5838 45.3914C57.5892 45.3545 57.5946 45.3176 57.6009 45.2807C57.6009 45.2645 57.6063 45.2483 57.609 45.2312C57.6144 45.197 57.6207 45.1628 57.627 45.1286C57.627 45.1106 57.6342 45.0926 57.6369 45.0746C57.6432 45.0422 57.6504 45.0098 57.6567 44.9783C57.663 44.9468 57.6648 44.9396 57.6693 44.9207C57.6738 44.9018 57.6828 44.8595 57.69 44.8307C57.6972 44.8019 57.6999 44.7911 57.7053 44.7722C57.7107 44.7533 57.7206 44.7137 57.7278 44.6822C57.735 44.6507 57.7395 44.6426 57.7449 44.6228C57.7503 44.603 57.7611 44.567 57.7701 44.5391L57.789 44.4797C57.798 44.4527 57.807 44.4257 57.8169 44.3987C57.8268 44.3717 57.8304 44.3609 57.8376 44.3411C57.8448 44.3213 57.8583 44.2889 57.8691 44.2637C57.8799 44.2385 57.8835 44.2259 57.8916 44.2079C57.8997 44.1899 57.9141 44.1575 57.9258 44.1323L57.9501 44.0801C57.9627 44.0549 57.9762 44.0306 57.9897 44.0054C58.0032 43.9802 58.0059 43.9739 58.0149 43.9586L58.0617 43.8812L58.0851 43.8434C58.1094 43.8065 58.1346 43.7714 58.1616 43.7363C58.4906 43.2781 58.7376 42.7662 58.8915 42.2234C58.9122 42.1334 58.9338 42.0479 58.9545 41.9534C59.9913 42.6077 61.1505 43.3034 62.5743 44.5049C65.4039 46.8971 69.5943 47.1563 72.0783 43.9028C73.4076 42.1595 73.4652 39.3011 72.5175 37.4282C70.2468 32.9408 67.0401 33.0956 62.3475 33.245C60.8418 33.2936 58.6683 31.2839 55.5903 31.2839C53.1333 31.2839 49.9518 33.9839 52.1262 37.592C52.2 36.9557 52.5285 36.4544 52.7922 36.008C53.2521 35.2322 53.496 35.0711 53.6724 35.2538C53.1773 35.6976 52.841 36.2912 52.7148 36.944C52.3854 38.5838 51.5907 40.517 51.4548 41.8706C51.3036 43.3619 51.8337 44.1926 52.7148 44.9891C53.1009 45.3356 53.0829 45.773 53.0694 46.1456C53.0476 46.4184 53.0051 46.6892 52.9425 46.9556C52.0236 47.1356 51.0525 47.7791 50.274 48.9302C48.4983 51.5528 44.8947 56.0573 42.3648 57.8285C41.1102 58.7078 40.0833 59.0984 38.5938 58.6682C37.5012 58.3532 29.5659 55.781 29.4615 55.9835C29.4282 56.0474 29.3832 56.141 29.3292 56.258C29.1843 56.168 28.8252 56.078 28.6551 55.9664C27.3762 55.1384 27.2556 55.0781 26.3538 53.7047C25.8084 52.8731 25.0614 52.6193 24.3864 52.6319C23.8923 51.5366 23.3766 50.426 22.977 49.6763C22.5657 48.905 22.0167 48.464 21.5154 48.9221C21.2157 49.1921 19.9089 50.1614 19.2708 51.0443C18.6156 51.9515 18.9198 52.7471 19.3149 53.6444C18.5841 53.9405 18.8262 54.836 19.1268 55.3895C19.467 56.0195 19.4382 55.313 19.4661 56.2319C19.4769 56.5973 20.2761 56.8619 20.3985 57.4118C20.4516 57.6512 21.4785 58.6205 21.7008 58.6808C21.7908 58.8464 21.8808 59.0147 21.9708 59.1893C22.9095 60.9227 23.5341 60.3845 24.4908 59.0615C24.552 58.9778 24.6168 58.8815 24.6834 58.7816C24.6834 58.8275 24.7149 58.8518 24.7734 58.8455C25.8714 58.7258 27.5337 59.3963 27.9576 59.3099C28.0692 59.2874 28.7478 57.4487 29.1213 56.7188C28.4571 58.2371 27.2313 61.3169 27.5742 61.4312C30.9321 62.5445 31.608 62.7101 38.2842 64.3877C41.8293 65.2787 43.8246 65.3777 45.9459 63.467C47.0052 62.513 48.051 61.5383 49.0842 60.5735C48.9708 65.0276 48.9573 70.1693 48.9411 73.8764C41.8734 79.7822 23.0049 98.2224 23.4531 98.82C23.6394 99.0666 23.8797 99.3537 24.1587 99.6642C23.4873 100.235 22.8159 100.893 22.4487 101.414C22.5486 101.031 22.6737 100.674 22.6998 100.381C22.7097 100.277 18.8685 100.505 18.2664 100.536L18.1242 100.48C17.2125 100.313 13.2804 98.1333 13.1787 98.1288C12.3111 98.0883 11.772 98.1234 11.4885 98.2836C10.5516 98.6346 9.85682 99.8136 10.089 100.223C10.6344 101.166 12.15 103.367 14.2281 105.199ZM115.455 77.2523C117.391 77.6898 119.183 78.1146 119.761 78.3747L115.455 77.2523ZM104.8 63.7829C104.429 65.7422 103.89 67.337 103.34 68.8661L103.657 67.2074C104.197 65.1311 105.087 61.685 105.713 59.039C105.3 61.154 104.859 63.4706 104.8 63.7829ZM25.2 54.4607C25.5987 55.1051 25.74 55.2563 25.83 55.862C25.6752 55.3292 25.38 54.8513 25.3251 54.7388C25.2819 54.6488 25.2405 54.5561 25.2 54.4607ZM25.7535 57.0473C25.8235 56.9421 25.8718 56.824 25.8957 56.6999C25.8894 56.9789 25.7967 57.0599 25.5033 57.4505C25.5924 57.3029 25.677 57.1661 25.7526 57.0473H25.7535ZM24.4422 104.22C24.3887 104.217 24.3356 104.209 24.2838 104.196C22.7907 103.746 22.3623 103.071 22.3236 102.372C22.7205 102.975 23.6304 103.823 24.4422 104.22Z" fill="white"/>
<path d="M58.6161 92.8018L59.5431 92.7595L59.4081 92.5795L59.2758 92.3995L58.599 92.4301C56.079 92.548 53.6994 92.6578 50.6475 92.6596C50.526 92.4688 50.3325 91.6246 50.0949 89.8759L49.9239 89.9947L49.752 90.1144C49.9662 91.6273 50.1921 92.7244 50.4027 92.9431C50.4263 92.9704 50.4554 92.9926 50.4881 93.0081C50.5208 93.0236 50.5564 93.0321 50.5926 93.0331C53.6796 93.0313 56.0772 92.9197 58.6161 92.8018Z" fill="black"/>
<path d="M52.5601 36.027L52.6285 35.9127C53.0128 35.2629 53.2693 34.9992 53.5222 34.9992C53.5378 34.9983 53.5534 34.9983 53.569 34.9992C53.5785 35.0004 53.5878 35.0025 53.5969 35.0055C53.4916 33.9984 53.6923 33.2541 54.1567 33.0831L54.2845 33.4305C54.0757 33.507 53.8894 33.9777 53.9488 34.7994C53.9533 34.8678 53.9596 34.9371 53.9686 35.01C53.9776 35.0829 53.9857 35.1468 53.9965 35.2188C54.0271 35.4141 54.0676 35.6229 54.1252 35.8488C54.145 35.9145 54.1648 35.982 54.1855 36.054C54.3286 36.5427 54.5068 37.152 54.8272 37.6623C56.2042 39.852 57.4012 40.7439 58.8277 41.6538L58.9942 41.7591L59.1598 41.8635L59.3524 41.985C60.3091 42.5844 61.3936 43.2639 62.6905 44.361C64.2295 45.6624 66.1447 46.296 67.9438 46.0998C69.5287 45.927 70.9057 45.1269 71.9281 43.7877C73.1413 42.1965 73.3267 39.438 72.3493 37.5075C70.1578 33.1758 67.1131 33.2775 62.5051 33.4215L62.3476 33.426C61.6753 33.4485 60.8968 33.0939 59.9995 32.6835C58.8106 32.1435 57.331 31.4658 55.5895 31.4658C54.2125 31.4658 52.7095 32.3487 52.0255 33.5655C51.598 34.3215 51.283 35.5203 52.0507 37.0692C52.1794 36.7032 52.3503 36.3534 52.5601 36.027Z" fill="black"/>
<path d="M18.7075 54.0116C18.5122 54.5516 18.8191 55.2185 18.9595 55.4777C19.0783 55.6955 19.171 55.7936 19.2628 55.8422C19.2673 55.9106 19.2709 56.0285 19.2754 56.1752V56.2373C19.2835 56.4929 19.5004 56.6738 19.7308 56.8673C19.9423 57.0473 20.161 57.2273 20.2123 57.4541C20.2753 57.7394 21.1906 58.6241 21.5623 58.823C21.6406 58.9706 21.7216 59.1209 21.8053 59.273C22.2364 60.0686 22.6198 60.4358 23.0473 60.4637H23.095C23.6503 60.4637 24.1408 59.849 24.6358 59.1632C24.6682 59.12 24.7006 59.0732 24.7339 59.0237C24.7536 59.0259 24.7735 59.0259 24.7933 59.0237C25.4062 58.9571 26.2261 59.1551 26.8849 59.3144C27.1877 59.3988 27.4968 59.459 27.8092 59.4944C27.226 61.1207 27.3178 61.3457 27.3592 61.4492C27.3727 61.4843 27.3937 61.5161 27.4207 61.5422C27.4478 61.5683 27.4802 61.5882 27.5158 61.6004C30.8341 62.7011 31.5091 62.8712 37.9675 64.4939L38.2375 64.5614C39.7432 64.9394 40.9852 65.1743 42.0787 65.1743C43.5871 65.1743 44.8147 64.7288 46.0675 63.5993C47.0179 62.7434 47.9638 61.8641 48.8872 61.0028C48.7918 65.0096 48.7729 69.5186 48.7585 72.9674C48.7585 73.2464 48.7585 73.5191 48.7585 73.7837L48.9439 73.6289C49.0069 73.5767 49.0681 73.5254 49.1293 73.4759C49.1293 73.3094 49.1293 73.1411 49.1293 72.9683C49.1365 71.2781 49.1446 69.3314 49.1626 67.3145C49.8826 67.3208 50.5927 67.3415 51.3127 67.3757C51.0661 69.4727 50.8942 71.3402 50.9527 72.098L51.058 72.0359C51.0805 72.0233 51.1048 72.0107 51.1309 71.999C51.1894 71.9705 51.2495 71.9453 51.3109 71.9234C51.2209 69.5897 52.8058 59.1614 52.8229 59.0534L52.8382 58.949L52.7563 58.8824C52.4765 58.6577 52.2097 58.4173 51.9571 58.1624C51.8671 58.0724 51.7843 57.9824 51.7051 57.8924C50.1049 56.0771 50.6251 54.6272 51.139 53.2178C51.2434 52.9307 51.3505 52.6328 51.4378 52.3394C51.9778 50.5133 52.2361 49.7861 53.0218 48.1886C53.2342 47.9186 53.5186 47.8187 53.8516 47.8034C53.6059 48.563 53.5816 49.4486 53.794 50.3864C54.0208 51.3764 54.4366 52.9532 54.9865 54.9359C55.0243 55.0718 55.0621 55.2059 55.1017 55.3499C56.2627 59.5151 57.9682 65.3111 59.743 71.0999L59.7988 71.2799C59.8141 71.3303 59.8294 71.3807 59.8456 71.4311C59.8456 71.4419 59.8519 71.4518 59.8546 71.4626C59.3992 71.4815 58.8214 71.5049 58.1806 71.5355C57.0043 71.5922 55.6147 71.6723 54.3763 71.7875C53.3656 71.882 52.4566 71.999 51.8473 72.1475C51.636 72.1909 51.4312 72.2614 51.238 72.3572L51.2029 72.377C50.7691 72.629 50.0482 73.1816 49.1239 73.9529L48.9385 74.1077L48.7531 74.2643C45.6121 76.9238 40.5001 81.7118 36.2593 85.7978C29.3419 92.465 23.9869 97.9694 23.6431 98.7578C23.797 98.9576 23.9761 99.1745 24.175 99.4013L24.3001 99.5399L24.4252 99.6776C25.4035 100.747 26.4758 101.726 27.6292 102.603L27.7831 102.716C27.8362 102.754 27.8875 102.791 27.9397 102.827C28.8334 103.457 29.611 103.817 30.0097 103.655C31.1437 103.189 35.7373 99.8261 40.6 96.2666C44.2 93.6287 47.2825 91.3868 49.6954 89.7047L49.8691 89.5832L50.0401 89.4644C52.4359 87.803 54.1297 86.7329 54.9685 86.4296C54.7579 86.0138 54.5185 85.5422 54.2818 85.0589C53.6851 83.8637 52.9417 82.376 52.8148 82.2302C52.8301 82.246 52.8489 82.258 52.8697 82.2653L53.0011 81.9206C53.1271 81.9683 53.2099 82.0862 54.6121 84.8906C54.8614 85.3901 55.1134 85.8959 55.3375 86.3369H55.3591C55.3792 86.3355 55.3993 86.3355 55.4194 86.3369C55.4603 86.3423 55.4997 86.356 55.5352 86.3772C55.5706 86.3984 55.6014 86.4267 55.6255 86.4602C56.2951 87.4142 56.8855 88.2836 57.4516 89.1242C58.2562 90.3131 58.9816 91.3832 59.7223 92.3714L59.8573 92.5514L59.9941 92.7314C63.5284 97.3088 67.7458 100.171 83.0782 105.257C83.1376 105.141 83.2348 104.953 83.368 104.696C83.3941 104.645 83.4229 104.589 83.458 104.532C83.4931 104.476 83.5129 104.426 83.5426 104.37C83.8918 103.703 84.412 102.722 85.1005 101.459C85.1302 101.406 85.1599 101.351 85.1905 101.296L85.2805 101.133L85.609 100.534C85.3552 100.308 84.6649 99.8657 83.8189 99.3239C81.5428 97.8668 77.7952 95.4656 74.7955 92.4911H75.0655H75.322L92.2015 92.3507L92.1277 92.1131C91.5157 90.1538 84.4165 77.2694 77.1877 65.9942V65.8565H77.0977C75.8926 63.9791 74.6848 62.1485 73.504 60.4214C75.9943 61.3907 78.4972 62.2907 80.9236 63.1619C84.6505 64.5011 87.8689 65.6576 90.0136 66.7007C90.054 66.7198 90.0985 66.7288 90.1432 66.7269C90.1878 66.725 90.2314 66.7123 90.2701 66.6899C90.3646 66.6332 90.5275 66.536 90.7201 65.5127C91.8172 65.6198 92.3806 66.2678 92.9242 66.8969C93.4417 67.4945 93.9394 68.0669 94.8142 68.0669C95.1571 68.0669 95.5567 67.9769 96.0382 67.7672L96.1741 67.7051C96.2695 67.6601 96.3676 67.6106 96.4693 67.5566C96.544 67.58 96.6187 67.6034 96.6952 67.625C97.3308 67.8025 97.9755 67.9455 98.6266 68.0534C99.0559 68.1281 99.4852 68.1947 99.91 68.2604C100.379 68.3315 100.837 68.4026 101.276 68.4818C101.456 68.5151 101.636 68.5493 101.816 68.5862L101.996 68.6258L102.176 68.6672C102.47 68.7374 102.751 68.8157 103.015 68.9066L103.116 68.9426L103.16 68.9579L103.168 68.9363L103.196 68.9462C103.246 68.9633 103.298 68.9795 103.347 68.9975L103.218 69.3431L103.09 69.2972L103 69.2666L102.915 69.2387C102.65 69.155 102.375 69.0812 102.079 69.0155L101.899 68.9759L101.719 68.939C101.651 69.1706 101.578 69.3989 101.5 69.6239C100.6 69.3809 99.1351 68.8076 98.0452 68.318C97.5196 68.2162 96.9998 68.0861 96.4882 67.9283L96.5629 67.9787C97.2316 68.4287 99.9352 69.5762 101.379 69.9731C101.226 70.4024 101.061 70.8263 100.894 71.2583C100.451 72.404 99.9937 73.5875 99.6175 75.1004L99.4915 75.6071L99.568 75.5486C99.568 75.5612 99.568 75.5729 99.5734 75.5846C99.6283 75.8231 99.9154 75.9023 100.158 75.9446C101.91 76.2461 104.874 76.9994 108.013 77.7977C112.268 78.8777 116.668 79.9964 118.15 79.9964C118.495 79.9964 120.268 78.9749 120.49 78.5816C120.516 78.5434 120.53 78.4988 120.532 78.453C120.533 78.4071 120.523 78.3616 120.5 78.3215C120.49 78.3066 120.479 78.2927 120.466 78.2801C120.931 77.4566 121.48 75.374 122.239 72.1457L122.252 72.0854C122.873 72.062 123.507 72.0467 124.135 72.0305C126.073 71.9819 128.076 71.9324 129.593 71.675L129.532 71.315C128.041 71.567 126.05 71.6174 124.126 71.6651C123.531 71.6804 122.93 71.6948 122.341 71.7164C122.468 71.1764 122.566 70.775 122.611 70.6364C122.759 70.1746 122.879 69.7042 122.971 69.2279C123.829 69.191 124.646 69.119 125.016 69.0011L124.904 68.6492C124.584 68.7509 123.846 68.8184 123.045 68.8562C123.347 67.2929 123.606 65.2562 123.844 63.3959C124.125 61.181 124.392 59.0894 124.642 58.562C124.662 58.5223 124.671 58.4784 124.67 58.4341C124.668 58.3898 124.656 58.3466 124.634 58.3082C124.479 58.0301 123.782 57.9239 122.336 57.7628C121.785 57.7016 121.264 57.6431 121.057 57.5774C120.13 57.2804 108.629 55.3796 106.619 55.2473V55.2176L106.423 55.2401H106.417C106.398 55.2401 106.38 55.2455 106.362 55.2482C105.681 55.3436 105.192 55.7135 104.76 56.042C104.653 56.1239 104.551 56.2013 104.448 56.2742C103.703 56.7989 103.579 58.5188 103.619 59.354C103.623 59.4584 103.623 59.5709 103.619 59.6852C100.949 59.2199 95.7556 58.8014 94.5415 60.7886C94.4134 60.8831 94.2984 60.9942 94.1995 61.1189C94.168 61.1585 94.1383 61.199 94.1095 61.2395C93.8395 61.2233 93.5641 61.2116 93.2995 61.2008C92.6128 61.172 91.9639 61.145 91.5571 61.0451C91.5098 61.0369 91.4618 61.0348 91.414 61.0388H91.1863C91.225 60.4493 91.2448 60.0551 91.2457 60.0488L91.2529 59.9075L91.1188 59.8634C88.4269 58.9832 77.1688 54.2141 68.923 50.3909H68.932H68.9203C65.5471 48.8258 62.6806 47.4209 61.1146 46.5029C59.9554 45.8243 58.8088 45.4472 57.7666 45.3761C57.8566 44.792 58.0105 44.2223 58.3066 43.8461C58.6518 43.3675 58.9101 42.832 59.0698 42.2639C59.0698 42.2585 59.0698 42.2531 59.0698 42.2477L58.9051 42.1433L58.7404 42.0398C57.2257 41.0804 55.9702 40.1777 54.5104 37.8629C54.1621 37.3085 53.9758 36.6722 53.8264 36.161C53.7679 35.9603 53.6959 35.711 53.6266 35.5472C53.6055 35.486 53.5728 35.4295 53.5303 35.3807C53.5256 35.376 53.5201 35.372 53.5141 35.369C53.5051 35.369 53.3557 35.4023 52.9417 36.1025L52.8724 36.2186C52.7635 36.3986 52.6483 36.5957 52.5484 36.8045C52.5403 36.8387 52.5313 36.8729 52.5241 36.908C52.453 37.2626 52.3585 37.6343 52.2541 38.0105L52.2379 38.1518L52.2217 38.1248C52.1263 38.4641 52.0237 38.8052 51.922 39.1427C51.6223 40.1327 51.3388 41.0741 51.2605 41.8526C51.0994 43.4366 51.6736 44.3069 52.5844 45.1259C52.903 45.413 52.8904 45.7784 52.8778 46.1393C52.8608 46.3613 52.8281 46.5817 52.7797 46.799C51.8104 47.0285 50.8519 47.7386 50.1139 48.8285C48.4489 51.2873 44.8408 55.8656 42.2515 57.6791C41.0635 58.5125 40.0915 58.9121 38.638 58.4891C38.3617 58.409 37.6354 58.1813 36.7156 57.8924C35.3935 57.4775 33.5809 56.9087 32.1256 56.474C29.4112 55.664 29.3806 55.7216 29.2897 55.8971C29.2735 55.9286 29.2546 55.9673 29.233 56.0123C29.1889 55.9943 29.143 55.9772 29.0917 55.9583C28.973 55.9189 28.8579 55.8692 28.7479 55.8098L28.666 55.7567C27.4852 54.9926 27.3619 54.9125 26.5015 53.6012C25.9066 52.6913 25.1101 52.4699 24.5026 52.4483C24.022 51.3899 23.5252 50.3189 23.1364 49.5899C22.9105 49.1669 22.5415 48.6449 22.0645 48.563C21.942 48.5436 21.8167 48.5537 21.699 48.5925C21.5813 48.6313 21.4745 48.6978 21.3877 48.7862C21.3256 48.8429 21.2077 48.9356 21.0673 49.0562C20.5273 49.4963 19.6273 50.2316 19.1179 50.939C18.4438 51.8714 18.703 52.7021 19.0729 53.5616C18.9029 53.6651 18.7738 53.824 18.7075 54.0116ZM45.8173 63.3266C43.7662 65.1743 41.8483 65.0906 38.3239 64.205L38.0584 64.1384C31.6531 62.5283 30.9484 62.3501 27.6958 61.2728C27.6823 61.0928 27.802 60.6554 27.9892 60.1028C29.1961 60.1721 32.8213 60.1928 37.0135 60.2099C41.0698 60.2297 45.7435 60.2522 48.9007 60.3305C48.9007 60.3845 48.9007 60.4376 48.9007 60.4916C47.8909 61.4258 46.855 62.3906 45.8173 63.3266ZM85.0339 57.8699C84.907 57.8923 84.7784 57.904 84.6496 57.905C83.0512 57.8411 81.4942 58.0337 79.9894 58.22C79.4611 58.2857 78.9139 58.3532 78.3694 58.409C76.0609 58.6475 73.7146 58.769 71.3872 58.8473C70.8913 58.6025 70.3135 58.3271 69.6979 58.0373C68.0401 57.2696 65.9548 56.3669 65.2951 56.1968L65.2051 56.5568C65.9323 56.744 68.6008 57.9167 70.5943 58.8707C69.6133 58.9004 68.6359 58.9247 67.6675 58.9481L65.8198 58.994L65.6083 59.0003L65.3968 59.0057C64.3087 59.0363 63.2143 59.0723 62.1172 59.1218L61.9264 59.1308L61.7347 59.1407C60.0454 59.2217 58.3534 59.3378 56.6776 59.5169C56.2024 57.8798 55.7704 56.3669 55.3978 55.0286C55.3582 54.8855 55.3186 54.7442 55.2799 54.6056C54.8065 52.8956 54.4384 51.5105 54.2152 50.5754C54.6184 50.6258 55.3303 50.6654 56.1619 50.7032L56.5858 50.7194C56.9359 50.7329 57.3004 50.7446 57.6658 50.7554L58.0024 50.7653L58.3624 50.7743L58.5271 50.7788L58.7314 50.7842H58.9384C60.2596 50.8148 61.3954 50.831 61.6789 50.8346C62.8606 50.8508 63.9982 50.858 65.0089 50.858C65.6074 50.858 66.1618 50.858 66.6559 50.8499C67.9924 50.8346 68.5882 50.8049 68.8672 50.7689C74.0377 53.1701 80.3701 55.9268 85.0339 57.8699ZM90.8695 60.1757C90.8524 60.497 90.8335 60.821 90.8128 61.1432L90.3817 65.3273C90.2917 65.8502 90.2017 66.2156 90.1117 66.3452C89.0236 65.8205 87.6718 65.2652 86.1265 64.6802C87.1075 64.4102 89.3512 64.2158 90.2377 64.2158V63.8468C89.5267 63.8468 86.4361 64.052 85.6063 64.4831C84.2131 63.9602 82.6759 63.4031 81.0415 62.8199C78.4855 61.9019 75.844 60.9524 73.225 59.9237C73.1719 59.813 72.9478 59.6465 72.1054 59.2082L72.073 59.192C74.1862 59.1128 76.312 58.9931 78.4099 58.7762C78.9562 58.7204 79.5052 58.652 80.0362 58.5863C81.595 58.3928 83.0665 58.211 84.6361 58.274C84.9738 58.2652 85.309 58.2129 85.6333 58.1183C88.0111 59.0993 89.8948 59.8427 90.8695 60.173V60.1757ZM71.1145 84.3623C70.8939 83.7166 70.7242 83.0545 70.6069 82.3823C70.5079 81.8522 69.2092 77.5097 68.9203 76.5449C69.5854 76.4045 71.4538 76.2695 73.3492 76.2299C76.348 76.1687 77.4118 76.364 77.5792 76.4837C77.6548 76.7672 78.0049 77.5403 78.4846 78.5978C79.2046 80.1935 80.2009 82.3778 80.7346 83.9834L80.7427 84.0095C80.785 84.1364 80.8228 84.2588 80.8579 84.3776C81.2116 85.58 81.2179 86.4116 80.8714 86.9111C80.6131 87.2846 80.1514 87.4799 79.4692 87.5069C74.6929 87.6959 72.442 87.6068 71.2567 84.7295C71.2054 84.6098 71.1595 84.4883 71.1145 84.3623ZM81.082 83.8628C80.542 82.2428 79.5439 80.045 78.8167 78.4421C78.3667 77.4521 77.9779 76.5935 77.9275 76.3721C77.9141 76.3238 77.8903 76.2789 77.8578 76.2407C77.8253 76.2025 77.7849 76.1718 77.7394 76.1507C76.6972 75.5765 69.5053 75.9284 68.6269 76.2407L68.4613 76.2992L68.5117 76.4675C68.5279 76.5215 70.1389 81.8837 70.2433 82.4489C70.3591 83.1033 70.5231 83.7482 70.7338 84.3785L70.3468 84.392L70.1506 84.3983L69.9571 84.4055L69.3082 84.4253L69.1201 84.4307L68.9302 84.4361C67.5046 84.4766 66.0736 84.5018 64.6102 84.5018V84.8699C66.1096 84.8699 67.5712 84.8429 69.0274 84.8015L69.2173 84.7961L69.4054 84.7907L70.0912 84.7691L70.2847 84.7628L70.4791 84.7556L70.8724 84.7421C71.3854 86.0336 72.0982 86.8427 73.1008 87.3188C74.1034 87.7949 75.3913 87.9362 77.0482 87.9362C77.7826 87.9362 78.5917 87.9092 79.4845 87.8741C80.2828 87.8426 80.8516 87.5879 81.1756 87.119C81.5761 86.5394 81.5977 85.6376 81.2422 84.3731C82.6039 84.3641 84.0799 84.3731 85.4497 84.3794C86.2723 84.3839 87.0499 84.3884 87.7321 84.3884C89.8174 88.1423 91.2691 90.9584 91.6813 91.9898L74.9413 92.1293H74.6902H74.4292L72.3952 92.1464H72.1774H71.956L67.258 92.1851C66.2878 90.3104 63.9325 83.249 61.4692 75.3767C62.6797 75.2183 63.9262 75.1409 65.1736 75.0968L65.395 75.0896L65.6155 75.0824C65.8987 75.074 66.1822 75.0671 66.466 75.0617L66.6559 75.0572H66.8467L67.7467 75.0419C69.5368 75.0113 71.389 74.9807 73.1998 74.8052C74.476 74.6819 76.1014 74.7395 77.6737 74.7953C79.246 74.8511 80.8885 74.9087 82.1665 74.7818V74.7431C84.1717 78.0947 86.0086 81.287 87.5287 84.0131C86.8987 84.0131 86.194 84.0131 85.4533 84.005C84.0457 83.9969 82.5265 83.9897 81.1333 83.9996C81.1117 83.9564 81.0982 83.9105 81.082 83.8628ZM81.9721 74.4299C80.7418 74.5361 79.1893 74.4812 77.6845 74.4299C76.1005 74.3732 74.4625 74.3156 73.162 74.4416C71.362 74.6153 69.5224 74.6459 67.7386 74.6756L66.7432 74.6936H66.5533H66.3625C66.0277 74.7008 65.6926 74.7098 65.3572 74.7206L65.1349 74.7278L64.9117 74.7359C63.7147 74.7827 62.5195 74.8628 61.3549 75.0185C61.0192 73.9448 60.6817 72.8585 60.3469 71.7668C60.328 71.7056 60.3091 71.6453 60.2911 71.5868C60.2731 71.5283 60.2614 71.4914 60.247 71.4437C60.247 71.4311 60.2389 71.4185 60.2353 71.405C60.22 71.3573 60.2056 71.3096 60.1912 71.2619C60.1723 71.2007 60.1534 71.1404 60.1354 71.0819C59.6701 69.5699 59.2084 68.0498 58.7611 66.5612C59.3814 66.465 60.0067 66.4049 60.634 66.3812C60.5068 66.479 60.4255 66.6719 60.3901 66.9599C60.3604 67.2128 60.5197 67.9373 60.8833 68.1299C60.9445 68.1628 61.0127 68.1804 61.0822 68.1812C61.1973 68.1781 61.3072 68.1326 61.3909 68.0534C61.714 67.7834 61.6312 67.2533 61.462 66.8834C61.3648 66.6728 61.2145 66.4595 61.0363 66.3641C61.8814 66.3236 62.8813 66.2939 63.964 66.2741L64.1557 66.2696H64.3474C65.6281 66.2462 67.0096 66.2327 68.3794 66.2255H68.7601C71.2801 66.2147 73.7245 66.2255 75.3715 66.2255L76.8925 66.2309C78.6394 68.9525 80.3584 71.7389 81.9721 74.4299ZM61.1929 67.2029C61.2559 67.4063 61.2829 67.6619 61.1533 67.769C61.0948 67.8194 61.0741 67.8086 61.0633 67.8005C60.8896 67.7105 60.742 67.1705 60.7627 66.9977C60.7897 66.7718 60.8401 66.6998 60.8527 66.6818C60.9166 66.7025 61.093 66.8861 61.1929 67.2038V67.2029ZM75.3715 65.8529C73.6093 65.8466 71.1712 65.8367 68.6881 65.8475H68.3047C66.9169 65.8547 65.5255 65.8691 64.2394 65.8943H64.0477H63.856C61.4458 65.9456 59.4586 66.0374 58.654 66.1967C57.9898 63.9845 57.3562 61.8416 56.782 59.8661C58.4614 59.6861 60.1588 59.5736 61.8544 59.4935L62.0461 59.4845L62.2369 59.4755C63.3646 59.4251 64.4869 59.3855 65.6092 59.3585L65.8198 59.3531L66.0304 59.3468L67.6756 59.3063C68.8753 59.2766 70.0885 59.2469 71.308 59.2064C71.9686 59.5322 72.4906 59.8076 72.748 59.9705L72.856 60.128C74.116 61.9586 75.3949 63.8855 76.6585 65.8484L75.3715 65.8529ZM58.753 50.4134L58.5442 50.408L58.3381 50.3999L57.79 50.3846L57.475 50.3756L57.1726 50.3657C56.8909 50.3567 56.6218 50.3468 56.368 50.3369L55.8847 50.3171C55.0135 50.2784 54.3799 50.2352 54.1288 50.1893C53.9488 49.3172 53.9884 48.5 54.2359 47.8097C54.2575 47.7494 54.2818 47.69 54.307 47.6297C54.3322 47.5694 54.3592 47.5109 54.388 47.4497C54.4114 47.4029 54.4339 47.3597 54.46 47.3102C54.46 47.3012 54.4699 47.2922 54.4753 47.2832L54.4816 47.2733C54.5104 47.2229 54.5419 47.1734 54.5716 47.1248C54.5769 47.1174 54.5817 47.1095 54.586 47.1014C54.6103 47.0663 54.6364 47.033 54.6616 46.9979L54.7066 46.9376C54.8724 46.7217 55.0678 46.5302 55.2871 46.3688C55.8577 45.9503 56.5615 45.7388 57.3472 45.7271H57.4111H57.5326C57.5938 45.7271 57.6559 45.7316 57.718 45.7361C58.708 45.7982 59.8078 46.16 60.9265 46.8161C62.4079 47.6828 65.0494 48.9869 68.1823 50.4485C66.4552 50.5277 62.1649 50.4962 58.753 50.4134ZM52.2847 60.1334C51.8347 60.0749 51.0328 60.0299 49.9726 59.993L49.4488 59.9768L49.2796 59.9723C49.2922 59.5358 49.3057 59.1065 49.3201 58.6889C49.3363 58.2146 49.3462 57.7196 49.357 57.1949C49.3858 55.7738 49.4182 54.2132 49.5892 52.757C50.0608 52.757 50.5324 52.757 50.9077 52.7615L50.7889 53.0945C50.2633 54.5399 49.6801 56.1599 51.4288 58.1399C51.508 58.2299 51.5917 58.3199 51.6808 58.4099C51.9204 58.6547 52.1734 58.886 52.4386 59.1029C52.4116 59.2766 52.3576 59.6366 52.2847 60.1289V60.1334ZM51.0796 52.2368C51.0646 52.289 51.0484 52.3412 51.031 52.3934C50.671 52.388 50.1607 52.3826 49.636 52.3844C49.9132 50.3504 50.4928 48.5684 51.7627 47.7305C52.0415 47.5484 52.3487 47.414 52.6717 47.3327C52.5583 47.8655 52.5106 48.1211 52.5817 48.2516C51.8635 49.7168 51.5998 50.4701 51.0796 52.2323V52.2368ZM49.1608 66.9518C49.1806 64.8476 49.2112 62.6804 49.2616 60.6518C49.2616 60.5456 49.2643 60.4403 49.2697 60.3359L49.591 60.3449C50.8312 60.3818 51.7663 60.4295 52.2316 60.4916C52.0012 62.0729 51.6349 64.6505 51.3514 67.0103C50.617 66.9752 49.897 66.9536 49.1608 66.9473V66.9518ZM118.144 79.6373C116.704 79.6373 112.33 78.5249 108.097 77.4494C104.952 76.6502 101.977 75.8951 100.215 75.59C100.117 75.5797 100.022 75.5513 99.9352 75.5063C99.9946 75.3794 100.378 75.1031 100.662 74.8979C101.036 74.6279 101.451 74.3282 101.764 73.9979C102.333 74.4326 104.475 74.9528 108.076 75.7223C108.869 75.8915 109.495 76.0247 109.659 76.0823C110.379 76.319 112.144 76.7123 114.012 77.1299C116.335 77.6483 119.515 78.3584 119.802 78.6176C119.827 78.6401 119.856 78.6586 119.886 78.6725C119.374 79.0397 118.341 79.6184 118.144 79.6328V79.6373ZM122.297 58.1381C122.955 58.211 124.03 58.3307 124.282 58.4765C124.017 59.1308 123.767 61.0955 123.479 63.3572C123.238 65.2472 122.973 67.3217 122.669 68.8787C121.784 68.9093 120.888 68.903 120.444 68.8643L120.412 69.2315C120.659 69.254 121.081 69.2657 121.574 69.2657C121.893 69.2657 122.242 69.2603 122.594 69.2495C122.507 69.6807 122.396 70.1066 122.26 70.5248C122.204 70.6859 122.099 71.1242 121.954 71.738C120.962 71.7669 119.972 71.851 118.989 71.99L119.048 72.35C119.982 72.2169 120.923 72.1355 121.866 72.1061C121.604 73.2194 121.25 74.7269 120.893 75.9887C120.479 77.4557 120.223 78.002 120.092 78.2054H119.842C119.163 77.8976 117.142 77.4341 114.094 76.7537C112.234 76.3388 110.478 75.9437 109.774 75.716C109.594 75.6557 108.988 75.527 108.154 75.3479C107.05 75.113 105.539 74.7899 104.284 74.4704C102.452 74.0033 102.058 73.7675 101.974 73.6847C102.334 72.1826 102.803 70.8884 103.299 69.5195C103.919 67.8095 104.559 66.0419 104.983 63.8126C105.09 63.2465 105.505 61.0793 105.89 59.0975C106.268 57.5 106.554 56.1815 106.61 55.6154C108.579 55.7459 120.142 57.671 120.946 57.9275C121.189 58.0094 121.703 58.067 122.297 58.1336V58.1381ZM99.3475 59.6681C100.773 59.68 102.195 59.8109 103.598 60.0596V60.0641L103.778 60.0965L103.958 60.1298L104.076 60.1523C104.375 60.2144 104.627 60.2747 104.816 60.3323V60.3197C104.873 60.335 104.927 60.3494 104.974 60.3638L104.87 60.7175C104.638 60.65 104.311 60.5735 103.917 60.497L103.737 60.4637L103.557 60.4313C103.512 60.8129 103.442 61.2251 103.356 61.6535C102.807 61.5689 102.077 61.3772 101.247 61.1594C99.8074 60.7823 98.1874 60.3548 96.8104 60.2963C96.3804 60.3841 95.966 60.5358 95.581 60.7463C97.0444 60.4358 99.3511 61.0406 101.154 61.514C101.984 61.7318 102.714 61.9244 103.28 62.0135C103.114 62.7893 102.908 63.6011 102.713 64.3697C102.448 65.4065 102.22 66.302 102.141 66.9131C102.083 67.3591 102 67.8017 101.894 68.2388C101.283 68.1092 100.634 68.0075 99.955 67.904C98.8876 67.7402 97.7878 67.5701 96.7618 67.274C96.7712 67.2304 96.7712 67.1853 96.7618 67.1417L96.5701 67.1354L96.3802 67.1264H96.2902L95.9923 67.1084C95.8438 67.0976 95.6953 67.0868 95.5495 67.0742L95.3866 67.0589H95.3623C95.2102 67.0445 95.0653 67.0283 94.9312 67.0121C94.5838 66.9698 94.3165 66.9221 94.231 66.8789L94.4002 66.5504C94.4709 66.5729 94.5435 66.5889 94.6171 66.5981C94.6918 66.6098 94.7818 66.6224 94.8871 66.635L94.9861 66.6467L95.1328 66.6629L95.5117 66.7007H95.554C95.8762 66.7295 96.2209 66.7538 96.5278 66.7691L96.7888 66.7799C96.904 66.7799 97.0102 66.7853 97.1011 66.7853C97.1587 66.7484 97.2244 66.7079 97.3018 66.662C97.6879 66.437 97.6069 66.0599 97.5349 65.7278C97.4629 65.3957 97.3774 64.9997 97.6501 64.5749C97.984 64.0538 96.9301 62.162 96.9166 62.1449C96.6133 61.6436 95.8465 61.4294 94.9546 61.3241C94.879 61.3151 94.8016 61.307 94.7242 61.2998C94.7259 61.2928 94.728 61.2859 94.7305 61.2791C94.7556 61.2029 94.7875 61.1291 94.8259 61.0586C94.9761 60.7925 95.1933 60.5704 95.4559 60.4142L95.4955 60.3926H95.4865C96.4261 59.8094 98.0038 59.6699 99.3484 59.6699L99.3475 59.6681ZM49.8259 49.8887C49.5557 50.6988 49.3678 51.534 49.2652 52.3817C48.7531 52.3871 48.2563 52.3997 47.8954 52.4258C48.6181 51.5276 49.2796 50.651 49.8259 49.8887ZM29.5741 56.1599C30.2824 56.258 34.5241 57.59 36.6094 58.2443C37.531 58.5332 38.2582 58.7618 38.539 58.8428C40.1266 59.3009 41.2192 58.8518 42.4675 57.977C44.0191 56.8898 45.9253 54.8342 47.5723 52.8218C47.7523 52.7804 48.4516 52.7597 49.2184 52.7525C49.0492 54.2132 49.0168 55.7639 48.988 57.1805C48.9772 57.7034 48.9673 58.1975 48.9511 58.6682C48.9367 59.0876 48.9232 59.5178 48.9106 59.9552C45.8038 59.8769 41.2363 59.8544 37.0153 59.8337C32.9428 59.8139 29.4058 59.7968 28.1143 59.7329C28.4509 58.7834 28.9243 57.6206 29.2699 56.8268C29.3079 56.7475 29.3512 56.6709 29.3995 56.5973C29.4121 56.5792 29.423 56.5599 29.4319 56.5397C29.472 56.521 29.5063 56.4918 29.5311 56.4552C29.556 56.4186 29.5705 56.376 29.5732 56.3318C29.5751 56.2922 29.5657 56.2529 29.5462 56.2184C29.5561 56.2013 29.5651 56.1806 29.5741 56.1599ZM19.4167 51.1523C19.9 50.4845 20.7766 49.7681 21.3004 49.3397C21.4489 49.2182 21.5704 49.1219 21.637 49.058C21.7169 48.9753 21.8254 48.9264 21.9403 48.9212C21.9608 48.9213 21.9813 48.9231 22.0015 48.9266C22.2553 48.9698 22.5505 49.2749 22.8115 49.7636C23.1796 50.453 23.6476 51.4538 24.1066 52.4636L24.0346 52.4726C23.3398 52.5716 22.6405 52.9451 22.5397 53.2727C22.4335 53.6165 22.4497 53.8712 22.5937 54.053C22.8376 54.3626 23.3425 54.3311 23.8771 54.2969C24.3271 54.2681 24.8464 54.2357 24.9868 54.4652L25.0363 54.5453L25.1542 54.8153C25.1686 54.8477 25.192 54.8909 25.228 54.9566C25.4016 55.2596 25.5431 55.58 25.6501 55.9124C25.6636 56.0123 25.6753 56.1239 25.687 56.2562C25.7026 56.3985 25.711 56.5415 25.7122 56.6846C25.6918 56.777 25.6546 56.8649 25.6024 56.9438C25.5277 57.0608 25.4431 57.1976 25.3549 57.3425C25.2937 57.4235 25.2244 57.5171 25.1434 57.6296L25.0894 57.7034C24.7042 58.229 24.5305 58.5197 24.5035 58.7123C24.4477 58.796 24.3928 58.8752 24.3424 58.9454C23.8339 59.6501 23.4235 60.1154 23.0761 60.092C22.7971 60.074 22.4893 59.7473 22.1356 59.093C22.0456 58.9202 21.9556 58.7537 21.8656 58.5899L19.4797 53.5679C19.0918 52.6895 18.8218 51.9767 19.4167 51.1523Z" fill="black"/>
<path d="M16.9255 48.862L17.0461 48.5101C16.7761 48.4201 16.4332 48.2104 16.0669 47.9907C15.7006 47.7711 15.3037 47.5335 14.9671 47.4084L14.8384 47.754C15.1435 47.8674 15.5161 48.0916 15.877 48.3076C16.2604 48.5407 16.6222 48.7576 16.9255 48.862Z" fill="black"/>
<path d="M19.8901 46.3635L19.8982 46.3743C19.8379 46.2843 19.306 45.1962 19.2421 45.0558L18.9001 45.2106C18.9055 45.2232 19.5256 46.5102 19.5994 46.5993L19.8901 46.3635Z" fill="black"/>
<path d="M22.95 46.0503C23.2002 45.5517 23.3937 45.1566 23.4189 44.9748L23.0526 44.9244C23.0346 45.0603 22.7646 45.5967 22.6197 45.8847C22.5486 46.026 22.4874 46.1493 22.4541 46.2223L22.7907 46.3735C22.8213 46.3078 22.8816 46.188 22.95 46.0503Z" fill="black"/>
<path d="M25.4231 48.6C25.7498 48.3957 26.1971 48.1149 26.3168 48.06L26.1611 47.7252C26.0306 47.7855 25.6913 47.9952 25.2269 48.2886C25.0199 48.4182 24.8246 48.5406 24.7373 48.591L24.9218 48.9105C25.0145 48.8556 25.2044 48.7368 25.4231 48.6Z" fill="black"/>
<path d="M58.131 55.6732C58.0135 55.6194 57.8817 55.6049 57.7553 55.6318C57.6289 55.6587 57.5145 55.7256 57.429 55.8226C57.2409 56.0539 57.2715 56.4058 57.5109 56.7631C57.7908 57.1816 58.1499 57.376 58.4109 57.376C58.4473 57.3761 58.4836 57.3719 58.5189 57.3634C58.5804 57.3501 58.6361 57.3175 58.6779 57.2704C58.7196 57.2233 58.7453 57.1641 58.7511 57.1015C58.8366 56.0413 58.2984 55.7398 58.131 55.6732ZM58.3848 57.0061C58.2831 56.9935 58.041 56.8927 57.8178 56.5561C57.6477 56.3023 57.6531 56.1295 57.7152 56.053C57.7516 56.0182 57.798 55.9956 57.8479 55.9885C57.8978 55.9814 57.9486 55.9901 57.9933 56.0134C58.2075 56.1016 58.419 56.4067 58.3848 57.0061Z" fill="black"/>
<path d="M59.239 61.1029C58.9384 61.1767 58.8916 61.6186 58.879 61.7635C58.8592 61.9435 58.8862 62.6545 59.374 62.7949C59.4484 62.8174 59.5257 62.8292 59.6035 62.83C59.6761 62.8332 59.7485 62.8184 59.8141 62.787C59.8797 62.7556 59.9366 62.7085 59.9797 62.65C60.2083 62.3359 60.0067 61.7437 59.7907 61.4233C59.5576 61.0831 59.3452 61.0759 59.239 61.1029ZM59.6701 62.4421C59.644 62.4682 59.5675 62.4682 59.4703 62.4421C59.257 62.38 59.2282 61.9174 59.2408 61.8049C59.2439 61.6877 59.2747 61.573 59.3308 61.4701C59.4073 61.5088 59.5729 61.7212 59.6629 62.0191C59.7358 62.2621 59.7088 62.4052 59.6701 62.4421Z" fill="black"/>
<path d="M63.441 72.9C63.4064 72.8009 63.3649 72.7044 63.3168 72.6111C63.2025 72.3924 63.0198 72.1494 62.766 72.1332H62.7399H62.7345C62.663 72.1341 62.593 72.1543 62.532 72.1917C62.3799 72.2817 62.2566 72.4779 62.1639 72.7767C62.1072 72.9567 62.2638 73.8 62.4339 73.917C62.676 74.0871 62.8839 74.1717 63.0639 74.1717C63.1628 74.1727 63.2593 74.141 63.3384 74.0817C63.6084 73.8819 63.5895 73.4202 63.4851 73.0359C63.4689 72.99 63.4554 72.9423 63.441 72.9ZM63.1134 73.7856C63.0747 73.8144 62.9334 73.8135 62.6697 73.6308C62.6094 73.4994 62.5005 72.9963 62.5176 72.8802C62.6148 72.5715 62.7129 72.5004 62.7399 72.5004C62.7993 72.5004 62.9676 72.6561 63.0918 73.0197C63.2304 73.4256 63.1935 73.7244 63.1134 73.7847V73.7856Z" fill="black"/>
<path d="M14.1057 105.338C14.5404 105.72 15.0264 106.169 15.5403 106.645C17.1279 108.111 18.9261 109.773 20.6019 110.8C20.8695 110.965 21.1254 111.148 21.3678 111.348C21.627 111.555 21.8223 111.698 22.0284 111.698C22.2174 111.698 22.4154 111.577 22.6809 111.272C22.8483 111.085 23.0261 110.906 23.2137 110.739C23.508 110.469 23.7024 110.289 23.6637 110.064C23.6586 110.032 23.6486 110.002 23.634 109.974C23.9184 109.747 24.4512 109.173 25.5483 107.735C25.7859 107.425 27.2898 105.417 27.3114 105.298C27.3798 104.938 27.3168 104.638 27.126 104.42C26.9352 104.202 26.676 104.105 26.3655 104.049C26.7408 103.787 27.2043 103.442 27.6489 103.072L27.4932 102.96L27.3393 102.846C26.1945 101.987 24.9894 100.831 24.1434 99.9126L24.0192 99.7758L23.895 99.6381C23.5273 99.9555 23.1761 100.292 22.8429 100.645C22.8619 100.562 22.8758 100.477 22.8843 100.391L22.8897 100.301L22.8312 100.241C22.7412 100.151 22.6944 100.099 18.6174 100.325L18.297 100.343L18.1917 100.301L18.1575 100.292C17.532 100.176 15.3099 99.0144 14.1156 98.3898C13.257 97.9398 13.2516 97.9398 13.1877 97.9398C12.2319 97.8957 11.6955 97.9398 11.3877 98.1198C10.6911 98.3952 10.1278 99.0801 9.93515 99.6246C9.83345 99.9063 9.82985 100.143 9.92525 100.31C10.5103 101.322 12.0411 103.521 14.1057 105.338ZM13.1463 98.3079C13.2363 98.3484 13.5837 98.5293 13.9482 98.7201C15.6087 99.5886 17.4312 100.52 18.0765 100.654L18.2403 100.718H18.2799L18.6399 100.698C20.7639 100.58 22.0599 100.526 22.4919 100.535C22.4622 100.689 22.4127 100.861 22.3614 101.04C22.3344 101.13 22.3065 101.234 22.2795 101.336C22.1721 101.694 22.1267 102.067 22.1454 102.44C22.2084 103.173 22.6764 103.909 24.2289 104.373C24.2828 104.387 24.338 104.397 24.3936 104.401C24.5692 104.413 24.7455 104.413 24.921 104.401L25.0533 104.395C25.2027 104.386 25.3647 104.378 25.5303 104.375C25.65 104.375 25.7706 104.375 25.8903 104.375C26.2962 104.39 26.6715 104.459 26.8524 104.666C26.9613 104.791 26.9964 104.965 26.9586 105.199C26.5941 105.752 23.8221 109.549 23.3199 109.749C22.5999 109.659 20.1834 107.901 17.2728 105.356C14.4612 102.898 12.1482 100.542 11.772 99.7533C11.5425 99.2727 11.3274 98.7525 11.4696 98.5383C11.5983 98.3448 12.0762 98.2953 12.5982 98.2953C12.78 98.2935 12.9672 98.2998 13.1463 98.3079ZM10.288 99.7479C10.4511 99.3497 10.7158 99.0012 11.0556 98.7372C11.0619 99.0459 11.2113 99.4329 11.4381 99.9072C11.907 100.889 14.6655 103.561 17.0298 105.629C18.1899 106.642 22.0329 109.93 23.2623 110.107C23.2732 110.112 23.2837 110.118 23.2938 110.124C23.1953 110.248 23.0846 110.362 22.9635 110.464C22.7654 110.64 22.5779 110.828 22.4019 111.027C22.2219 111.235 22.1031 111.332 22.0203 111.325C21.9375 111.319 21.7836 111.204 21.5991 111.055C21.3441 110.846 21.0756 110.654 20.7954 110.48C19.1502 109.473 17.3655 107.824 15.7914 106.368C15.2757 105.892 14.7879 105.441 14.3514 105.056C12.3237 103.271 10.8217 101.115 10.2538 100.121C10.2223 100.075 10.216 99.9477 10.288 99.7488V99.7479Z" fill="black"/>
<path d="M81.0081 114.624C81.1521 114.87 81.4581 115.157 82.1213 115.128C82.6613 115.105 83.3003 115.157 83.9726 115.213C84.5765 115.262 85.2074 115.313 85.8212 115.313C87.011 115.313 88.1387 115.119 88.8812 114.337C90.476 112.656 91.0358 111.585 91.8107 110.107C92.0735 109.603 92.3714 109.033 92.7431 108.38C93.3128 107.379 94.2083 105.568 93.8123 104.684C93.7542 104.555 93.6655 104.442 93.554 104.356C93.4425 104.27 93.3115 104.212 93.1724 104.188C93.0521 104.16 92.9379 104.11 92.8358 104.041C92.7544 103.981 92.6612 103.938 92.5623 103.916C92.4633 103.894 92.3609 103.894 92.2616 103.914C92.0762 103.644 91.6793 103.385 91.0304 102.984L90.9026 102.905C90.7595 102.815 90.5975 102.713 90.4229 102.601C88.8929 101.618 87.5681 100.841 86.9372 101.285C86.8513 101.351 86.7809 101.435 86.731 101.531C86.6811 101.627 86.6529 101.732 86.6483 101.84C86.3558 101.672 86.0075 101.487 85.6106 101.3C85.5809 101.354 85.5503 101.409 85.5206 101.463C85.4909 101.517 85.4612 101.572 85.4306 101.626C84.7412 102.891 84.2201 103.876 83.8691 104.541C83.8394 104.598 83.8115 104.653 83.7836 104.704C83.7557 104.756 83.726 104.817 83.6936 104.869C83.9105 104.969 84.1562 105.073 84.4136 105.167C84.3999 105.182 84.3872 105.198 84.3758 105.215C84.2516 105.395 84.2309 105.952 84.2309 107.135C84.2309 107.5 83.8709 109.691 83.7296 109.931C83.6002 110.053 83.4556 110.157 83.2994 110.241C83.1095 110.359 82.8494 110.521 82.5002 110.773C82.4038 110.837 82.3034 110.895 82.1996 110.946C81.8396 111.134 81.3942 111.368 81.2781 111.922C81.2655 111.982 81.2384 112.074 81.2096 112.172C81.1295 112.442 81.0296 112.767 81.0539 113.01C80.8829 113.342 80.7039 114.102 81.0081 114.624ZM81.6461 111.992C81.7262 111.608 82.0574 111.435 82.3769 111.267C82.4968 111.208 82.6123 111.141 82.7225 111.066C83.0609 110.822 83.3048 110.671 83.5001 110.55C83.6676 110.456 83.8245 110.344 83.9681 110.217C84.2003 110.18 84.8906 110.064 84.9815 110.048C86.0876 109.862 86.0876 109.862 86.1362 109.806L85.9904 109.679L85.9508 109.507C85.8608 109.526 84.7196 109.719 84.1589 109.812C84.3758 109.042 84.6089 107.353 84.6089 107.13C84.6089 106.665 84.6089 105.578 84.6881 105.42C84.7268 105.364 84.8609 105.385 85.076 105.42C85.3383 105.484 85.611 105.493 85.877 105.448C86.2496 105.366 86.6465 105.098 86.9813 104.395C87.0538 104.241 87.1178 104.084 87.173 103.923L87.1991 103.846C87.2891 103.598 87.3791 103.334 87.3791 103.086C87.3828 102.914 87.3236 102.747 87.2126 102.615C87.1715 102.567 87.125 102.523 87.074 102.485C87.0587 102.413 87.0461 102.344 87.0371 102.28C87.0261 102.203 87.0189 102.125 87.0155 102.047C87.0083 101.812 87.0551 101.651 87.1568 101.579C87.6356 101.242 89.3231 102.324 90.2303 102.904C90.4103 103.018 90.5705 103.122 90.7154 103.212L90.8432 103.291C91.5578 103.732 91.952 103.976 92.0132 104.224C92.0744 104.471 91.8422 104.877 91.4192 105.61C91.2023 105.985 90.9332 106.452 90.6218 107.04L90.5993 107.082C87.7976 112.367 86.687 112.988 86.3387 113.009H86.327C83.3021 113.198 81.6884 113.121 81.4319 112.968C81.4166 112.802 81.5111 112.483 81.575 112.268C81.602 112.163 81.6299 112.067 81.6461 111.992ZM92.6432 104.353C92.7803 104.444 92.9328 104.509 93.0932 104.545C93.1756 104.556 93.2538 104.589 93.3202 104.639C93.3867 104.689 93.4393 104.755 93.473 104.831C93.7106 105.36 93.3173 106.618 92.4209 108.194C92.0456 108.852 91.7459 109.426 91.4813 109.931C90.7199 111.388 90.1709 112.439 88.6112 114.082C87.6077 115.141 85.6916 114.982 84.0014 114.845C83.3165 114.788 82.6703 114.735 82.1033 114.755C81.7226 114.771 81.4598 114.665 81.3248 114.433C81.1448 114.119 81.2105 113.623 81.3248 113.319C81.584 113.414 82.1231 113.495 83.2697 113.495C84.0113 113.495 85.0085 113.461 86.3459 113.378H86.3585C87.263 113.322 88.7984 111.262 90.9215 107.258L90.944 107.215C91.2527 106.633 91.52 106.169 91.7351 105.797C92.168 105.046 92.4029 104.608 92.3867 104.267C92.4798 104.264 92.5707 104.295 92.6432 104.353Z" fill="black"/>
</svg>
